<svg xmlns="http://www.w3.org/2000/svg" version="1.1" xmlns:xlink="http://www.w3.org/1999/xlink" xmlns:svgjs="http://svgjs.com/svgjs" width="1440" height="560" preserveAspectRatio="none" viewBox="0 0 1440 560"><g mask="url(&quot;#SvgjsMask1003&quot;)" fill="none"><path d="M72.87 544.16L137.83 581.66L137.83 656.66L72.87 694.16L7.92 656.66L7.92 581.66zM137.83 206.66L202.78 244.16L202.78 319.16L137.83 356.66L72.87 319.16L72.87 244.16zM137.83 431.66L202.78 469.16L202.78 544.16L137.83 581.66L72.87 544.16L72.87 469.16zM722.41 319.16L787.37 356.66L787.37 431.66L722.41 469.16L657.46 431.66L657.46 356.66zM852.32 319.16L917.27 356.66L917.27 431.66L852.32 469.16L787.36 431.66L787.36 356.66zM852.32 544.16L917.27 581.66L917.27 656.66L852.32 694.16L787.36 656.66L787.36 581.66zM982.23 319.16L1047.18 356.66L1047.18 431.66L982.23 469.16L917.27 431.66L917.27 356.66zM982.23 544.16L1047.18 581.66L1047.18 656.66L982.23 694.16L917.27 656.66L917.27 581.66zM1436.9 -18.34L1501.86 19.16L1501.86 94.16L1436.9 131.66L1371.95 94.16L1371.95 19.16zM1501.86 319.16L1566.81 356.66L1566.81 431.66L1501.86 469.16L1436.9 431.66L1436.9 356.66z" stroke="rgba(234, 88, 12, 1)" stroke-width="2"></path><path d="M65.37 544.16 a7.5 7.5 0 1 0 15 0 a7.5 7.5 0 1 0 -15 0zM130.33 581.66 a7.5 7.5 0 1 0 15 0 a7.5 7.5 0 1 0 -15 0zM130.33 656.66 a7.5 7.5 0 1 0 15 0 a7.5 7.5 0 1 0 -15 0zM65.37 694.16 a7.5 7.5 0 1 0 15 0 a7.5 7.5 0 1 0 -15 0zM0.42 656.66 a7.5 7.5 0 1 0 15 0 a7.5 7.5 0 1 0 -15 0zM0.42 581.66 a7.5 7.5 0 1 0 15 0 a7.5 7.5 0 1 0 -15 0zM130.33 206.66 a7.5 7.5 0 1 0 15 0 a7.5 7.5 0 1 0 -15 0zM195.28 244.16 a7.5 7.5 0 1 0 15 0 a7.5 7.5 0 1 0 -15 0zM195.28 319.16 a7.5 7.5 0 1 0 15 0 a7.5 7.5 0 1 0 -15 0zM130.33 356.66 a7.5 7.5 0 1 0 15 0 a7.5 7.5 0 1 0 -15 0zM65.37 319.16 a7.5 7.5 0 1 0 15 0 a7.5 7.5 0 1 0 -15 0zM65.37 244.16 a7.5 7.5 0 1 0 15 0 a7.5 7.5 0 1 0 -15 0zM130.33 431.66 a7.5 7.5 0 1 0 15 0 a7.5 7.5 0 1 0 -15 0zM195.28 469.16 a7.5 7.5 0 1 0 15 0 a7.5 7.5 0 1 0 -15 0zM195.28 544.16 a7.5 7.5 0 1 0 15 0 a7.5 7.5 0 1 0 -15 0zM65.37 469.16 a7.5 7.5 0 1 0 15 0 a7.5 7.5 0 1 0 -15 0zM714.91 319.16 a7.5 7.5 0 1 0 15 0 a7.5 7.5 0 1 0 -15 0zM779.87 356.66 a7.5 7.5 0 1 0 15 0 a7.5 7.5 0 1 0 -15 0zM779.87 431.66 a7.5 7.5 0 1 0 15 0 a7.5 7.5 0 1 0 -15 0zM714.91 469.16 a7.5 7.5 0 1 0 15 0 a7.5 7.5 0 1 0 -15 0zM649.96 431.66 a7.5 7.5 0 1 0 15 0 a7.5 7.5 0 1 0 -15 0zM649.96 356.66 a7.5 7.5 0 1 0 15 0 a7.5 7.5 0 1 0 -15 0zM844.82 319.16 a7.5 7.5 0 1 0 15 0 a7.5 7.5 0 1 0 -15 0zM909.77 356.66 a7.5 7.5 0 1 0 15 0 a7.5 7.5 0 1 0 -15 0zM909.77 431.66 a7.5 7.5 0 1 0 15 0 a7.5 7.5 0 1 0 -15 0zM844.82 469.16 a7.5 7.5 0 1 0 15 0 a7.5 7.5 0 1 0 -15 0zM779.86 431.66 a7.5 7.5 0 1 0 15 0 a7.5 7.5 0 1 0 -15 0zM779.86 356.66 a7.5 7.5 0 1 0 15 0 a7.5 7.5 0 1 0 -15 0zM844.82 544.16 a7.5 7.5 0 1 0 15 0 a7.5 7.5 0 1 0 -15 0zM909.77 581.66 a7.5 7.5 0 1 0 15 0 a7.5 7.5 0 1 0 -15 0zM909.77 656.66 a7.5 7.5 0 1 0 15 0 a7.5 7.5 0 1 0 -15 0zM844.82 694.16 a7.5 7.5 0 1 0 15 0 a7.5 7.5 0 1 0 -15 0zM779.86 656.66 a7.5 7.5 0 1 0 15 0 a7.5 7.5 0 1 0 -15 0zM779.86 581.66 a7.5 7.5 0 1 0 15 0 a7.5 7.5 0 1 0 -15 0zM974.73 319.16 a7.5 7.5 0 1 0 15 0 a7.5 7.5 0 1 0 -15 0zM1039.68 356.66 a7.5 7.5 0 1 0 15 0 a7.5 7.5 0 1 0 -15 0zM1039.68 431.66 a7.5 7.5 0 1 0 15 0 a7.5 7.5 0 1 0 -15 0zM974.73 469.16 a7.5 7.5 0 1 0 15 0 a7.5 7.5 0 1 0 -15 0zM974.73 544.16 a7.5 7.5 0 1 0 15 0 a7.5 7.5 0 1 0 -15 0zM1039.68 581.66 a7.5 7.5 0 1 0 15 0 a7.5 7.5 0 1 0 -15 0zM1039.68 656.66 a7.5 7.5 0 1 0 15 0 a7.5 7.5 0 1 0 -15 0zM974.73 694.16 a7.5 7.5 0 1 0 15 0 a7.5 7.5 0 1 0 -15 0zM1429.4 -18.34 a7.5 7.5 0 1 0 15 0 a7.5 7.5 0 1 0 -15 0zM1494.36 19.16 a7.5 7.5 0 1 0 15 0 a7.5 7.5 0 1 0 -15 0zM1494.36 94.16 a7.5 7.5 0 1 0 15 0 a7.5 7.5 0 1 0 -15 0zM1429.4 131.66 a7.5 7.5 0 1 0 15 0 a7.5 7.5 0 1 0 -15 0zM1364.45 94.16 a7.5 7.5 0 1 0 15 0 a7.5 7.5 0 1 0 -15 0zM1364.45 19.16 a7.5 7.5 0 1 0 15 0 a7.5 7.5 0 1 0 -15 0zM1494.36 319.16 a7.5 7.5 0 1 0 15 0 a7.5 7.5 0 1 0 -15 0zM1559.31 356.66 a7.5 7.5 0 1 0 15 0 a7.5 7.5 0 1 0 -15 0zM1559.31 431.66 a7.5 7.5 0 1 0 15 0 a7.5 7.5 0 1 0 -15 0zM1494.36 469.16 a7.5 7.5 0 1 0 15 0 a7.5 7.5 0 1 0 -15 0zM1429.4 431.66 a7.5 7.5 0 1 0 15 0 a7.5 7.5 0 1 0 -15 0zM1429.4 356.66 a7.5 7.5 0 1 0 15 0 a7.5 7.5 0 1 0 -15 0z" fill="rgba(234, 88, 12, 1)"></path><path d="M118.78 -49.6L162.09 -24.6L162.09 25.4L118.78 50.4L75.48 25.4L75.48 -24.6zM248.69 325.4L292 350.4L292 400.4L248.69 425.4L205.39 400.4L205.39 350.4zM205.39 400.4L248.69 425.4L248.69 475.4L205.39 500.4L162.09 475.4L162.09 425.4zM465.21 100.4L508.51 125.4L508.51 175.4L465.21 200.4L421.9 175.4L421.9 125.4zM508.51 325.4L551.81 350.4L551.81 400.4L508.51 425.4L465.21 400.4L465.21 350.4zM898.23 -49.6L941.53 -24.6L941.53 25.4L898.23 50.4L854.93 25.4L854.93 -24.6zM1028.14 175.4L1071.44 200.4L1071.44 250.4L1028.14 275.4L984.84 250.4L984.84 200.4zM1114.74 175.4L1158.05 200.4L1158.05 250.4L1114.74 275.4L1071.44 250.4L1071.44 200.4zM1158.05 -49.6L1201.35 -24.6L1201.35 25.4L1158.05 50.4L1114.74 25.4L1114.74 -24.6zM1158.05 100.4L1201.35 125.4L1201.35 175.4L1158.05 200.4L1114.74 175.4L1114.74 125.4zM1158.05 400.4L1201.35 425.4L1201.35 475.4L1158.05 500.4L1114.74 475.4L1114.74 425.4zM1331.26 100.4L1374.56 125.4L1374.56 175.4L1331.26 200.4L1287.95 175.4L1287.95 125.4zM1374.56 475.4L1417.86 500.4L1417.86 550.4L1374.56 575.4L1331.26 550.4L1331.26 500.4zM1417.86 -49.6L1461.16 -24.6L1461.16 25.4L1417.86 50.4L1374.56 25.4L1374.56 -24.6zM1461.16 175.4L1504.47 200.4L1504.47 250.4L1461.16 275.4L1417.86 250.4L1417.86 200.4z" stroke="rgba(249, 115, 22, 0.74)" stroke-width="2"></path></g><defs><mask id="SvgjsMask1003"><rect width="1440" height="560" fill="#ffffff"></rect></mask></defs></svg>