<svg xmlns="http://www.w3.org/2000/svg" version="1.1" xmlns:xlink="http://www.w3.org/1999/xlink" xmlns:svgjs="http://svgjs.com/svgjs" width="1440" height="560" preserveAspectRatio="none" viewBox="0 0 1440 560"><g mask="url(&quot;#SvgjsMask1053&quot;)" fill="none"><path d="M0 -76L65.82 -38L65.82 38L0 76L-65.82 38L-65.82 -38zM65.82 38L131.64 76L131.64 152L65.82 190L0 152L0 76zM0 152L65.82 190L65.82 266L0 304L-65.82 266L-65.82 190zM65.82 266L131.64 304L131.64 380L65.82 418L0 380L0 304zM0 380L65.82 418L65.82 494L0 532L-65.82 494L-65.82 418zM65.82 494L131.64 532L131.64 608L65.82 646L0 608L0 532zM131.64 -76L197.46 -38L197.46 38L131.64 76L65.82 38L65.82 -38zM197.46 38L263.28 76L263.28 152L197.46 190L131.64 152L131.64 76zM131.64 152L197.46 190L197.46 266L131.64 304L65.82 266L65.82 190zM197.46 266L263.28 304L263.28 380L197.46 418L131.64 380L131.64 304zM131.64 380L197.46 418L197.46 494L131.64 532L65.82 494L65.82 418zM197.46 494L263.28 532L263.28 608L197.46 646L131.64 608L131.64 532zM263.28 -76L329.1 -38L329.1 38L263.28 76L197.46 38L197.46 -38zM329.1 38L394.92 76L394.92 152L329.1 190L263.28 152L263.28 76zM263.28 152L329.1 190L329.1 266L263.28 304L197.46 266L197.46 190zM329.1 266L394.92 304L394.92 380L329.1 418L263.28 380L263.28 304zM263.28 380L329.1 418L329.1 494L263.28 532L197.46 494L197.46 418zM329.1 494L394.92 532L394.92 608L329.1 646L263.28 608L263.28 532zM394.92 -76L460.74 -38L460.74 38L394.92 76L329.1 38L329.1 -38zM460.74 38L526.56 76L526.56 152L460.74 190L394.92 152L394.92 76zM394.92 152L460.74 190L460.74 266L394.92 304L329.1 266L329.1 190zM460.74 266L526.56 304L526.56 380L460.74 418L394.92 380L394.92 304zM394.92 380L460.74 418L460.74 494L394.92 532L329.1 494L329.1 418zM460.74 494L526.56 532L526.56 608L460.74 646L394.92 608L394.92 532zM526.56 -76L592.38 -38L592.38 38L526.56 76L460.74 38L460.74 -38zM592.38 38L658.2 76L658.2 152L592.38 190L526.56 152L526.56 76zM526.56 152L592.38 190L592.38 266L526.56 304L460.74 266L460.74 190zM592.38 266L658.2 304L658.2 380L592.38 418L526.56 380L526.56 304zM526.56 380L592.38 418L592.38 494L526.56 532L460.74 494L460.74 418zM592.38 494L658.2 532L658.2 608L592.38 646L526.56 608L526.56 532zM658.2 -76L724.02 -38L724.02 38L658.2 76L592.38 38L592.38 -38zM724.02 38L789.84 76L789.84 152L724.02 190L658.2 152L658.2 76zM658.2 152L724.02 190L724.02 266L658.2 304L592.38 266L592.38 190zM724.02 266L789.84 304L789.84 380L724.02 418L658.2 380L658.2 304zM658.2 380L724.02 418L724.02 494L658.2 532L592.38 494L592.38 418zM724.02 494L789.84 532L789.84 608L724.02 646L658.2 608L658.2 532zM789.84 -76L855.66 -38L855.66 38L789.84 76L724.02 38L724.02 -38zM855.66 38L921.48 76L921.48 152L855.66 190L789.84 152L789.84 76zM789.84 152L855.66 190L855.66 266L789.84 304L724.02 266L724.02 190zM855.66 266L921.48 304L921.48 380L855.66 418L789.84 380L789.84 304zM789.84 380L855.66 418L855.66 494L789.84 532L724.02 494L724.02 418zM855.66 494L921.48 532L921.48 608L855.66 646L789.84 608L789.84 532zM921.48 -76L987.3 -38L987.3 38L921.48 76L855.66 38L855.66 -38zM987.3 38L1053.12 76L1053.12 152L987.3 190L921.48 152L921.48 76zM921.48 152L987.3 190L987.3 266L921.48 304L855.66 266L855.66 190zM987.3 266L1053.12 304L1053.12 380L987.3 418L921.48 380L921.48 304zM921.48 380L987.3 418L987.3 494L921.48 532L855.66 494L855.66 418zM987.3 494L1053.12 532L1053.12 608L987.3 646L921.48 608L921.48 532zM1053.12 -76L1118.94 -38L1118.94 38L1053.12 76L987.3 38L987.3 -38zM1118.94 38L1184.76 76L1184.76 152L1118.94 190L1053.12 152L1053.12 76zM1053.12 152L1118.94 190L1118.94 266L1053.12 304L987.3 266L987.3 190zM1118.94 266L1184.76 304L1184.76 380L1118.94 418L1053.12 380L1053.12 304zM1053.12 380L1118.94 418L1118.94 494L1053.12 532L987.3 494L987.3 418zM1118.94 494L1184.76 532L1184.76 608L1118.94 646L1053.12 608L1053.12 532zM1184.76 -76L1250.58 -38L1250.58 38L1184.76 76L1118.94 38L1118.94 -38zM1250.58 38L1316.4 76L1316.4 152L1250.58 190L1184.76 152L1184.76 76zM1184.76 152L1250.58 190L1250.58 266L1184.76 304L1118.94 266L1118.94 190zM1250.58 266L1316.4 304L1316.4 380L1250.58 418L1184.76 380L1184.76 304zM1184.76 380L1250.58 418L1250.58 494L1184.76 532L1118.94 494L1118.94 418zM1250.58 494L1316.4 532L1316.4 608L1250.58 646L1184.76 608L1184.76 532zM1316.4 -76L1382.22 -38L1382.22 38L1316.4 76L1250.58 38L1250.58 -38zM1382.22 38L1448.04 76L1448.04 152L1382.22 190L1316.4 152L1316.4 76zM1316.4 152L1382.22 190L1382.22 266L1316.4 304L1250.58 266L1250.58 190zM1382.22 266L1448.04 304L1448.04 380L1382.22 418L1316.4 380L1316.4 304zM1316.4 380L1382.22 418L1382.22 494L1316.4 532L1250.58 494L1250.58 418zM1382.22 494L1448.04 532L1448.04 608L1382.22 646L1316.4 608L1316.4 532z" stroke="rgba(203, 76, 10, 0.52)" stroke-width="2"></path></g><defs><mask id="SvgjsMask1053"><rect width="1440" height="560" fill="#ffffff"></rect></mask></defs></svg>