<svg xmlns="http://www.w3.org/2000/svg" version="1.1" xmlns:xlink="http://www.w3.org/1999/xlink" xmlns:svgjs="http://svgjs.com/svgjs" width="1440" height="560" preserveAspectRatio="none" viewBox="0 0 1440 560"><g mask="url(&quot;#SvgjsMask1008&quot;)" fill="none"><path d="M0 -42L36.37 -21L36.37 21L0 42L-36.37 21L-36.37 -21zM36.37 21L72.75 42L72.75 84L36.37 105L0 84L0 42zM0 84L36.37 105L36.37 147L0 168L-36.37 147L-36.37 105zM36.37 147L72.75 168L72.75 210L36.37 231L0 210L0 168zM0 210L36.37 231L36.37 273L0 294L-36.37 273L-36.37 231zM36.37 273L72.75 294L72.75 336L36.37 357L0 336L0 294zM0 336L36.37 357L36.37 399L0 420L-36.37 399L-36.37 357zM36.37 399L72.75 420L72.75 462L36.37 483L0 462L0 420zM0 462L36.37 483L36.37 525L0 546L-36.37 525L-36.37 483zM36.37 525L72.75 546L72.75 588L36.37 609L0 588L0 546zM72.75 -42L109.12 -21L109.12 21L72.75 42L36.37 21L36.37 -21zM109.12 21L145.5 42L145.5 84L109.12 105L72.75 84L72.75 42zM72.75 84L109.12 105L109.12 147L72.75 168L36.37 147L36.37 105zM109.12 147L145.5 168L145.5 210L109.12 231L72.75 210L72.75 168zM72.75 210L109.12 231L109.12 273L72.75 294L36.37 273L36.37 231zM109.12 273L145.5 294L145.5 336L109.12 357L72.75 336L72.75 294zM72.75 336L109.12 357L109.12 399L72.75 420L36.37 399L36.37 357zM109.12 399L145.5 420L145.5 462L109.12 483L72.75 462L72.75 420zM72.75 462L109.12 483L109.12 525L72.75 546L36.37 525L36.37 483zM109.12 525L145.5 546L145.5 588L109.12 609L72.75 588L72.75 546zM145.5 -42L181.87 -21L181.87 21L145.5 42L109.12 21L109.12 -21zM181.87 21L218.24 42L218.24 84L181.87 105L145.5 84L145.5 42zM145.5 84L181.87 105L181.87 147L145.5 168L109.12 147L109.12 105zM181.87 147L218.24 168L218.24 210L181.87 231L145.5 210L145.5 168zM145.5 210L181.87 231L181.87 273L145.5 294L109.12 273L109.12 231zM181.87 273L218.24 294L218.24 336L181.87 357L145.5 336L145.5 294zM145.5 336L181.87 357L181.87 399L145.5 420L109.12 399L109.12 357zM181.87 399L218.24 420L218.24 462L181.87 483L145.5 462L145.5 420zM145.5 462L181.87 483L181.87 525L145.5 546L109.12 525L109.12 483zM181.87 525L218.24 546L218.24 588L181.87 609L145.5 588L145.5 546zM218.24 -42L254.62 -21L254.62 21L218.24 42L181.87 21L181.87 -21zM254.62 21L290.99 42L290.99 84L254.62 105L218.24 84L218.24 42zM218.24 84L254.62 105L254.62 147L218.24 168L181.87 147L181.87 105zM254.62 147L290.99 168L290.99 210L254.62 231L218.24 210L218.24 168zM218.24 210L254.62 231L254.62 273L218.24 294L181.87 273L181.87 231zM254.62 273L290.99 294L290.99 336L254.62 357L218.24 336L218.24 294zM218.24 336L254.62 357L254.62 399L218.24 420L181.87 399L181.87 357zM254.62 399L290.99 420L290.99 462L254.62 483L218.24 462L218.24 420zM218.24 462L254.62 483L254.62 525L218.24 546L181.87 525L181.87 483zM254.62 525L290.99 546L290.99 588L254.62 609L218.24 588L218.24 546zM290.99 -42L327.37 -21L327.37 21L290.99 42L254.62 21L254.62 -21zM327.37 21L363.74 42L363.74 84L327.37 105L290.99 84L290.99 42zM290.99 84L327.37 105L327.37 147L290.99 168L254.62 147L254.62 105zM327.37 147L363.74 168L363.74 210L327.37 231L290.99 210L290.99 168zM290.99 210L327.37 231L327.37 273L290.99 294L254.62 273L254.62 231zM327.37 273L363.74 294L363.74 336L327.37 357L290.99 336L290.99 294zM290.99 336L327.37 357L327.37 399L290.99 420L254.62 399L254.62 357zM327.37 399L363.74 420L363.74 462L327.37 483L290.99 462L290.99 420zM290.99 462L327.37 483L327.37 525L290.99 546L254.62 525L254.62 483zM327.37 525L363.74 546L363.74 588L327.37 609L290.99 588L290.99 546zM363.74 -42L400.12 -21L400.12 21L363.74 42L327.37 21L327.37 -21zM400.12 21L436.49 42L436.49 84L400.12 105L363.74 84L363.74 42zM363.74 84L400.12 105L400.12 147L363.74 168L327.37 147L327.37 105zM400.12 147L436.49 168L436.49 210L400.12 231L363.74 210L363.74 168zM363.74 210L400.12 231L400.12 273L363.74 294L327.37 273L327.37 231zM400.12 273L436.49 294L436.49 336L400.12 357L363.74 336L363.74 294zM363.74 336L400.12 357L400.12 399L363.74 420L327.37 399L327.37 357zM400.12 399L436.49 420L436.49 462L400.12 483L363.74 462L363.74 420zM363.74 462L400.12 483L400.12 525L363.74 546L327.37 525L327.37 483zM400.12 525L436.49 546L436.49 588L400.12 609L363.74 588L363.74 546zM436.49 -42L472.86 -21L472.86 21L436.49 42L400.12 21L400.12 -21zM472.86 21L509.24 42L509.24 84L472.86 105L436.49 84L436.49 42zM436.49 84L472.86 105L472.86 147L436.49 168L400.12 147L400.12 105zM472.86 147L509.24 168L509.24 210L472.86 231L436.49 210L436.49 168zM436.49 210L472.86 231L472.86 273L436.49 294L400.12 273L400.12 231zM472.86 273L509.24 294L509.24 336L472.86 357L436.49 336L436.49 294zM436.49 336L472.86 357L472.86 399L436.49 420L400.12 399L400.12 357zM472.86 399L509.24 420L509.24 462L472.86 483L436.49 462L436.49 420zM436.49 462L472.86 483L472.86 525L436.49 546L400.12 525L400.12 483zM472.86 525L509.24 546L509.24 588L472.86 609L436.49 588L436.49 546zM509.24 -42L545.61 -21L545.61 21L509.24 42L472.86 21L472.86 -21zM545.61 21L581.99 42L581.99 84L545.61 105L509.24 84L509.24 42zM509.24 84L545.61 105L545.61 147L509.24 168L472.86 147L472.86 105zM545.61 147L581.99 168L581.99 210L545.61 231L509.24 210L509.24 168zM509.24 210L545.61 231L545.61 273L509.24 294L472.86 273L472.86 231zM545.61 273L581.99 294L581.99 336L545.61 357L509.24 336L509.24 294zM509.24 336L545.61 357L545.61 399L509.24 420L472.86 399L472.86 357zM545.61 399L581.99 420L581.99 462L545.61 483L509.24 462L509.24 420zM509.24 462L545.61 483L545.61 525L509.24 546L472.86 525L472.86 483zM545.61 525L581.99 546L581.99 588L545.61 609L509.24 588L509.24 546zM581.99 -42L618.36 -21L618.36 21L581.99 42L545.61 21L545.61 -21zM618.36 21L654.73 42L654.73 84L618.36 105L581.99 84L581.99 42zM581.99 84L618.36 105L618.36 147L581.99 168L545.61 147L545.61 105zM618.36 147L654.73 168L654.73 210L618.36 231L581.99 210L581.99 168zM581.99 210L618.36 231L618.36 273L581.99 294L545.61 273L545.61 231zM618.36 273L654.73 294L654.73 336L618.36 357L581.99 336L581.99 294zM581.99 336L618.36 357L618.36 399L581.99 420L545.61 399L545.61 357zM618.36 399L654.73 420L654.73 462L618.36 483L581.99 462L581.99 420zM581.99 462L618.36 483L618.36 525L581.99 546L545.61 525L545.61 483zM618.36 525L654.73 546L654.73 588L618.36 609L581.99 588L581.99 546zM654.73 -42L691.11 -21L691.11 21L654.73 42L618.36 21L618.36 -21zM691.11 21L727.48 42L727.48 84L691.11 105L654.73 84L654.73 42zM654.73 84L691.11 105L691.11 147L654.73 168L618.36 147L618.36 105zM691.11 147L727.48 168L727.48 210L691.11 231L654.73 210L654.73 168zM654.73 210L691.11 231L691.11 273L654.73 294L618.36 273L618.36 231zM691.11 273L727.48 294L727.48 336L691.11 357L654.73 336L654.73 294zM654.73 336L691.11 357L691.11 399L654.73 420L618.36 399L618.36 357zM691.11 399L727.48 420L727.48 462L691.11 483L654.73 462L654.73 420zM654.73 462L691.11 483L691.11 525L654.73 546L618.36 525L618.36 483zM691.11 525L727.48 546L727.48 588L691.11 609L654.73 588L654.73 546zM727.48 -42L763.86 -21L763.86 21L727.48 42L691.11 21L691.11 -21zM763.86 21L800.23 42L800.23 84L763.86 105L727.48 84L727.48 42zM727.48 84L763.86 105L763.86 147L727.48 168L691.11 147L691.11 105zM763.86 147L800.23 168L800.23 210L763.86 231L727.48 210L727.48 168zM727.48 210L763.86 231L763.86 273L727.48 294L691.11 273L691.11 231zM763.86 273L800.23 294L800.23 336L763.86 357L727.48 336L727.48 294zM727.48 336L763.86 357L763.86 399L727.48 420L691.11 399L691.11 357zM763.86 399L800.23 420L800.23 462L763.86 483L727.48 462L727.48 420zM727.48 462L763.86 483L763.86 525L727.48 546L691.11 525L691.11 483zM763.86 525L800.23 546L800.23 588L763.86 609L727.48 588L727.48 546zM800.23 -42L836.6 -21L836.6 21L800.23 42L763.86 21L763.86 -21zM836.6 21L872.98 42L872.98 84L836.6 105L800.23 84L800.23 42zM800.23 84L836.6 105L836.6 147L800.23 168L763.86 147L763.86 105zM836.6 147L872.98 168L872.98 210L836.6 231L800.23 210L800.23 168zM800.23 210L836.6 231L836.6 273L800.23 294L763.86 273L763.86 231zM836.6 273L872.98 294L872.98 336L836.6 357L800.23 336L800.23 294zM800.23 336L836.6 357L836.6 399L800.23 420L763.86 399L763.86 357zM836.6 399L872.98 420L872.98 462L836.6 483L800.23 462L800.23 420zM800.23 462L836.6 483L836.6 525L800.23 546L763.86 525L763.86 483zM836.6 525L872.98 546L872.98 588L836.6 609L800.23 588L800.23 546zM872.98 -42L909.35 -21L909.35 21L872.98 42L836.6 21L836.6 -21zM909.35 21L945.73 42L945.73 84L909.35 105L872.98 84L872.98 42zM872.98 84L909.35 105L909.35 147L872.98 168L836.6 147L836.6 105zM909.35 147L945.73 168L945.73 210L909.35 231L872.98 210L872.98 168zM872.98 210L909.35 231L909.35 273L872.98 294L836.6 273L836.6 231zM909.35 273L945.73 294L945.73 336L909.35 357L872.98 336L872.98 294zM872.98 336L909.35 357L909.35 399L872.98 420L836.6 399L836.6 357zM909.35 399L945.73 420L945.73 462L909.35 483L872.98 462L872.98 420zM872.98 462L909.35 483L909.35 525L872.98 546L836.6 525L836.6 483zM909.35 525L945.73 546L945.73 588L909.35 609L872.98 588L872.98 546zM945.73 -42L982.1 -21L982.1 21L945.73 42L909.35 21L909.35 -21zM982.1 21L1018.47 42L1018.47 84L982.1 105L945.73 84L945.73 42zM945.73 84L982.1 105L982.1 147L945.73 168L909.35 147L909.35 105zM982.1 147L1018.47 168L1018.47 210L982.1 231L945.73 210L945.73 168zM945.73 210L982.1 231L982.1 273L945.73 294L909.35 273L909.35 231zM982.1 273L1018.47 294L1018.47 336L982.1 357L945.73 336L945.73 294zM945.73 336L982.1 357L982.1 399L945.73 420L909.35 399L909.35 357zM982.1 399L1018.47 420L1018.47 462L982.1 483L945.73 462L945.73 420zM945.73 462L982.1 483L982.1 525L945.73 546L909.35 525L909.35 483zM982.1 525L1018.47 546L1018.47 588L982.1 609L945.73 588L945.73 546zM1018.47 -42L1054.85 -21L1054.85 21L1018.47 42L982.1 21L982.1 -21zM1054.85 21L1091.22 42L1091.22 84L1054.85 105L1018.47 84L1018.47 42zM1018.47 84L1054.85 105L1054.85 147L1018.47 168L982.1 147L982.1 105zM1054.85 147L1091.22 168L1091.22 210L1054.85 231L1018.47 210L1018.47 168zM1018.47 210L1054.85 231L1054.85 273L1018.47 294L982.1 273L982.1 231zM1054.85 273L1091.22 294L1091.22 336L1054.85 357L1018.47 336L1018.47 294zM1018.47 336L1054.85 357L1054.85 399L1018.47 420L982.1 399L982.1 357zM1054.85 399L1091.22 420L1091.22 462L1054.85 483L1018.47 462L1018.47 420zM1018.47 462L1054.85 483L1054.85 525L1018.47 546L982.1 525L982.1 483zM1054.85 525L1091.22 546L1091.22 588L1054.85 609L1018.47 588L1018.47 546zM1091.22 -42L1127.6 -21L1127.6 21L1091.22 42L1054.85 21L1054.85 -21zM1127.6 21L1163.97 42L1163.97 84L1127.6 105L1091.22 84L1091.22 42zM1091.22 84L1127.6 105L1127.6 147L1091.22 168L1054.85 147L1054.85 105zM1127.6 147L1163.97 168L1163.97 210L1127.6 231L1091.22 210L1091.22 168zM1091.22 210L1127.6 231L1127.6 273L1091.22 294L1054.85 273L1054.85 231zM1127.6 273L1163.97 294L1163.97 336L1127.6 357L1091.22 336L1091.22 294zM1091.22 336L1127.6 357L1127.6 399L1091.22 420L1054.85 399L1054.85 357zM1127.6 399L1163.97 420L1163.97 462L1127.6 483L1091.22 462L1091.22 420zM1091.22 462L1127.6 483L1127.6 525L1091.22 546L1054.85 525L1054.85 483zM1127.6 525L1163.97 546L1163.97 588L1127.6 609L1091.22 588L1091.22 546zM1163.97 -42L1200.35 -21L1200.35 21L1163.97 42L1127.6 21L1127.6 -21zM1200.35 21L1236.72 42L1236.72 84L1200.35 105L1163.97 84L1163.97 42zM1163.97 84L1200.35 105L1200.35 147L1163.97 168L1127.6 147L1127.6 105zM1200.35 147L1236.72 168L1236.72 210L1200.35 231L1163.97 210L1163.97 168zM1163.97 210L1200.35 231L1200.35 273L1163.97 294L1127.6 273L1127.6 231zM1200.35 273L1236.72 294L1236.72 336L1200.35 357L1163.97 336L1163.97 294zM1163.97 336L1200.35 357L1200.35 399L1163.97 420L1127.6 399L1127.6 357zM1200.35 399L1236.72 420L1236.72 462L1200.35 483L1163.97 462L1163.97 420zM1163.97 462L1200.35 483L1200.35 525L1163.97 546L1127.6 525L1127.6 483zM1200.35 525L1236.72 546L1236.72 588L1200.35 609L1163.97 588L1163.97 546zM1236.72 -42L1273.09 -21L1273.09 21L1236.72 42L1200.35 21L1200.35 -21zM1273.09 21L1309.47 42L1309.47 84L1273.09 105L1236.72 84L1236.72 42zM1236.72 84L1273.09 105L1273.09 147L1236.72 168L1200.35 147L1200.35 105zM1273.09 147L1309.47 168L1309.47 210L1273.09 231L1236.72 210L1236.72 168zM1236.72 210L1273.09 231L1273.09 273L1236.72 294L1200.35 273L1200.35 231zM1273.09 273L1309.47 294L1309.47 336L1273.09 357L1236.72 336L1236.72 294zM1236.72 336L1273.09 357L1273.09 399L1236.72 420L1200.35 399L1200.35 357zM1273.09 399L1309.47 420L1309.47 462L1273.09 483L1236.72 462L1236.72 420zM1236.72 462L1273.09 483L1273.09 525L1236.72 546L1200.35 525L1200.35 483zM1273.09 525L1309.47 546L1309.47 588L1273.09 609L1236.72 588L1236.72 546zM1309.47 -42L1345.84 -21L1345.84 21L1309.47 42L1273.09 21L1273.09 -21zM1345.84 21L1382.22 42L1382.22 84L1345.84 105L1309.47 84L1309.47 42zM1309.47 84L1345.84 105L1345.84 147L1309.47 168L1273.09 147L1273.09 105zM1345.84 147L1382.22 168L1382.22 210L1345.84 231L1309.47 210L1309.47 168zM1309.47 210L1345.84 231L1345.84 273L1309.47 294L1273.09 273L1273.09 231zM1345.84 273L1382.22 294L1382.22 336L1345.84 357L1309.47 336L1309.47 294zM1309.47 336L1345.84 357L1345.84 399L1309.47 420L1273.09 399L1273.09 357zM1345.84 399L1382.22 420L1382.22 462L1345.84 483L1309.47 462L1309.47 420zM1309.47 462L1345.84 483L1345.84 525L1309.47 546L1273.09 525L1273.09 483zM1345.84 525L1382.22 546L1382.22 588L1345.84 609L1309.47 588L1309.47 546zM1382.22 -42L1418.59 -21L1418.59 21L1382.22 42L1345.84 21L1345.84 -21zM1418.59 21L1454.96 42L1454.96 84L1418.59 105L1382.22 84L1382.22 42zM1382.22 84L1418.59 105L1418.59 147L1382.22 168L1345.84 147L1345.84 105zM1418.59 147L1454.96 168L1454.96 210L1418.59 231L1382.22 210L1382.22 168zM1382.22 210L1418.59 231L1418.59 273L1382.22 294L1345.84 273L1345.84 231zM1418.59 273L1454.96 294L1454.96 336L1418.59 357L1382.22 336L1382.22 294zM1382.22 336L1418.59 357L1418.59 399L1382.22 420L1345.84 399L1345.84 357zM1418.59 399L1454.96 420L1454.96 462L1418.59 483L1382.22 462L1382.22 420zM1382.22 462L1418.59 483L1418.59 525L1382.22 546L1345.84 525L1345.84 483zM1418.59 525L1454.96 546L1454.96 588L1418.59 609L1382.22 588L1382.22 546z" stroke="rgba(191, 74, 13, 0.81)" stroke-width="2"></path></g><defs><mask id="SvgjsMask1008"><rect width="1440" height="560" fill="#ffffff"></rect></mask></defs></svg>