<svg xmlns="http://www.w3.org/2000/svg" version="1.1" xmlns:xlink="http://www.w3.org/1999/xlink" xmlns:svgjs="http://svgjs.com/svgjs" width="1440" height="560" preserveAspectRatio="none" viewBox="0 0 1440 560"><g mask="url(&quot;#SvgjsMask1021&quot;)" fill="none"><path d="M865 271L864 436" stroke-width="8" stroke="url(#SvgjsLinearGradient1022)" stroke-linecap="round" class="Up"></path><path d="M961 33L960 -242" stroke-width="6" stroke="url(#SvgjsLinearGradient1022)" stroke-linecap="round" class="Up"></path><path d="M1080 346L1079 579" stroke-width="10" stroke="url(#SvgjsLinearGradient1023)" stroke-linecap="round" class="Down"></path><path d="M101 263L100 569" stroke-width="10" stroke="url(#SvgjsLinearGradient1022)" stroke-linecap="round" class="Up"></path><path d="M98 136L97 -238" stroke-width="8" stroke="url(#SvgjsLinearGradient1023)" stroke-linecap="round" class="Down"></path><path d="M205 341L204 699" stroke-width="10" stroke="url(#SvgjsLinearGradient1023)" stroke-linecap="round" class="Down"></path><path d="M669 248L668 -86" stroke-width="6" stroke="url(#SvgjsLinearGradient1023)" stroke-linecap="round" class="Down"></path><path d="M1372 52L1371 367" stroke-width="10" stroke="url(#SvgjsLinearGradient1023)" stroke-linecap="round" class="Down"></path><path d="M310 156L309 -46" stroke-width="10" stroke="url(#SvgjsLinearGradient1022)" stroke-linecap="round" class="Up"></path><path d="M1433 220L1432 1" stroke-width="6" stroke="url(#SvgjsLinearGradient1023)" stroke-linecap="round" class="Down"></path><path d="M982 299L981 588" stroke-width="6" stroke="url(#SvgjsLinearGradient1022)" stroke-linecap="round" class="Up"></path><path d="M207 410L206 714" stroke-width="8" stroke="url(#SvgjsLinearGradient1022)" stroke-linecap="round" class="Up"></path><path d="M1157 315L1156 53" stroke-width="8" stroke="url(#SvgjsLinearGradient1022)" stroke-linecap="round" class="Up"></path><path d="M292 558L291 203" stroke-width="8" stroke="url(#SvgjsLinearGradient1023)" stroke-linecap="round" class="Down"></path><path d="M545 187L544 -210" stroke-width="6" stroke="url(#SvgjsLinearGradient1022)" stroke-linecap="round" class="Up"></path><path d="M574 389L573 49" stroke-width="8" stroke="url(#SvgjsLinearGradient1022)" stroke-linecap="round" class="Up"></path><path d="M206 237L205 -170" stroke-width="10" stroke="url(#SvgjsLinearGradient1022)" stroke-linecap="round" class="Up"></path><path d="M753 41L752 -169" stroke-width="6" stroke="url(#SvgjsLinearGradient1023)" stroke-linecap="round" class="Down"></path><path d="M231 127L230 508" stroke-width="8" stroke="url(#SvgjsLinearGradient1022)" stroke-linecap="round" class="Up"></path><path d="M1391 401L1390 36" stroke-width="8" stroke="url(#SvgjsLinearGradient1023)" stroke-linecap="round" class="Down"></path><path d="M634 287L633 127" stroke-width="10" stroke="url(#SvgjsLinearGradient1023)" stroke-linecap="round" class="Down"></path><path d="M429 160L428 -127" stroke-width="6" stroke="url(#SvgjsLinearGradient1023)" stroke-linecap="round" class="Down"></path><path d="M63 528L62 358" stroke-width="6" stroke="url(#SvgjsLinearGradient1022)" stroke-linecap="round" class="Up"></path><path d="M973 533L972 817" stroke-width="8" stroke="url(#SvgjsLinearGradient1023)" stroke-linecap="round" class="Down"></path><path d="M1209 446L1208 93" stroke-width="10" stroke="url(#SvgjsLinearGradient1023)" stroke-linecap="round" class="Down"></path><path d="M1166 331L1165 507" stroke-width="6" stroke="url(#SvgjsLinearGradient1023)" stroke-linecap="round" class="Down"></path><path d="M709 312L708 117" stroke-width="6" stroke="url(#SvgjsLinearGradient1022)" stroke-linecap="round" class="Up"></path><path d="M1400 418L1399 93" stroke-width="8" stroke="url(#SvgjsLinearGradient1022)" stroke-linecap="round" class="Up"></path><path d="M813 319L812 153" stroke-width="6" stroke="url(#SvgjsLinearGradient1023)" stroke-linecap="round" class="Down"></path><path d="M1108 469L1107 710" stroke-width="8" stroke="url(#SvgjsLinearGradient1023)" stroke-linecap="round" class="Down"></path><path d="M506 213L505 367" stroke-width="6" stroke="url(#SvgjsLinearGradient1022)" stroke-linecap="round" class="Up"></path><path d="M1239 200L1238 459" stroke-width="10" stroke="url(#SvgjsLinearGradient1022)" stroke-linecap="round" class="Up"></path><path d="M781 467L780 878" stroke-width="8" stroke="url(#SvgjsLinearGradient1022)" stroke-linecap="round" class="Up"></path><path d="M269 51L268 -108" stroke-width="6" stroke="url(#SvgjsLinearGradient1022)" stroke-linecap="round" class="Up"></path><path d="M291 275L290 475" stroke-width="6" stroke="url(#SvgjsLinearGradient1023)" stroke-linecap="round" class="Down"></path><path d="M971 423L970 189" stroke-width="8" stroke="url(#SvgjsLinearGradient1022)" stroke-linecap="round" class="Up"></path></g><defs><mask id="SvgjsMask1021"><rect width="1440" height="560" fill="#ffffff"></rect></mask><linearGradient x1="0%" y1="100%" x2="0%" y2="0%" id="SvgjsLinearGradient1022"><stop stop-color="rgba(231, 112, 3, 0)" offset="0"></stop><stop stop-color="rgba(231, 112, 3, 0.74)" offset="1"></stop></linearGradient><linearGradient x1="0%" y1="0%" x2="0%" y2="100%" id="SvgjsLinearGradient1023"><stop stop-color="rgba(231, 112, 3, 0)" offset="0"></stop><stop stop-color="rgba(231, 112, 3, 0.74)" offset="1"></stop></linearGradient></defs></svg>