<svg xmlns="http://www.w3.org/2000/svg" version="1.1" xmlns:xlink="http://www.w3.org/1999/xlink" xmlns:svgjs="http://svgjs.com/svgjs" width="1440" height="560" preserveAspectRatio="none" viewBox="0 0 1440 560"><g mask="url(&quot;#SvgjsMask1006&quot;)" fill="none"><path d="M-49.78 398.37L-49.78 398.37" stroke="rgba(182, 72, 15, 1)" stroke-width="1.5"></path><path d="M-49.78 398.37L64.13 387.23" stroke="rgba(182, 72, 15, 1)" stroke-width="1.5"></path><path d="M-49.78 398.37L-92.28 547.32" stroke="rgba(182, 72, 15, 1)" stroke-width="1.5"></path><path d="M-92.28 547.32L-92.28 547.32" stroke="rgba(182, 72, 15, 1)" stroke-width="1.5"></path><path d="M-92.28 547.32L55.29 521.97" stroke="rgba(182, 72, 15, 1)" stroke-width="1.5"></path><path d="M-92.28 547.32L-51.83 703.48" stroke="rgba(182, 72, 15, 1)" stroke-width="1.5"></path><path d="M-92.28 547.32L48.15 699.93" stroke="rgba(182, 72, 15, 1)" stroke-width="1.5"></path><path d="M-51.83 703.48L-51.83 703.48" stroke="rgba(182, 72, 15, 1)" stroke-width="1.5"></path><path d="M-51.83 703.48L48.15 699.93" stroke="rgba(182, 72, 15, 1)" stroke-width="1.5"></path><path d="M-51.83 703.48L55.29 521.97" stroke="rgba(182, 72, 15, 1)" stroke-width="1.5"></path><path d="M-51.83 703.48L220.43 704.91" stroke="rgba(182, 72, 15, 1)" stroke-width="1.5"></path><path d="M-51.83 703.48L-49.78 398.37" stroke="rgba(182, 72, 15, 1)" stroke-width="1.5"></path><path d="M-51.83 703.48L200.98 487.58" stroke="rgba(182, 72, 15, 1)" stroke-width="1.5"></path><path d="M64.13 387.23L64.13 387.23" stroke="rgba(182, 72, 15, 1)" stroke-width="1.5"></path><path d="M64.13 387.23L55.29 521.97" stroke="rgba(182, 72, 15, 1)" stroke-width="1.5"></path><path d="M64.13 387.23L200.98 487.58" stroke="rgba(182, 72, 15, 1)" stroke-width="1.5"></path><path d="M64.13 387.23L240.41 378.96" stroke="rgba(182, 72, 15, 1)" stroke-width="1.5"></path><path d="M55.29 521.97L55.29 521.97" stroke="rgba(182, 72, 15, 1)" stroke-width="1.5"></path><path d="M55.29 521.97L200.98 487.58" stroke="rgba(182, 72, 15, 1)" stroke-width="1.5"></path><path d="M55.29 521.97L-49.78 398.37" stroke="rgba(182, 72, 15, 1)" stroke-width="1.5"></path><path d="M48.15 699.93L48.15 699.93" stroke="rgba(182, 72, 15, 1)" stroke-width="1.5"></path><path d="M48.15 699.93L220.43 704.91" stroke="rgba(182, 72, 15, 1)" stroke-width="1.5"></path><path d="M48.15 699.93L55.29 521.97" stroke="rgba(182, 72, 15, 1)" stroke-width="1.5"></path><path d="M48.15 699.93L200.98 487.58" stroke="rgba(182, 72, 15, 1)" stroke-width="1.5"></path><path d="M240.41 378.96L240.41 378.96" stroke="rgba(182, 72, 15, 1)" stroke-width="1.5"></path><path d="M240.41 378.96L200.98 487.58" stroke="rgba(182, 72, 15, 1)" stroke-width="1.5"></path><path d="M240.41 378.96L371.8 393.17" stroke="rgba(182, 72, 15, 1)" stroke-width="1.5"></path><path d="M240.41 378.96L363.27 494.7" stroke="rgba(182, 72, 15, 1)" stroke-width="1.5"></path><path d="M200.98 487.58L200.98 487.58" stroke="rgba(182, 72, 15, 1)" stroke-width="1.5"></path><path d="M200.98 487.58L363.27 494.7" stroke="rgba(182, 72, 15, 1)" stroke-width="1.5"></path><path d="M200.98 487.58L371.8 393.17" stroke="rgba(182, 72, 15, 1)" stroke-width="1.5"></path><path d="M220.43 704.91L220.43 704.91" stroke="rgba(182, 72, 15, 1)" stroke-width="1.5"></path><path d="M220.43 704.91L375.74 640.17" stroke="rgba(182, 72, 15, 1)" stroke-width="1.5"></path><path d="M220.43 704.91L200.98 487.58" stroke="rgba(182, 72, 15, 1)" stroke-width="1.5"></path><path d="M220.43 704.91L55.29 521.97" stroke="rgba(182, 72, 15, 1)" stroke-width="1.5"></path><path d="M220.43 704.91L363.27 494.7" stroke="rgba(182, 72, 15, 1)" stroke-width="1.5"></path><path d="M371.8 393.17L371.8 393.17" stroke="rgba(182, 72, 15, 1)" stroke-width="1.5"></path><path d="M371.8 393.17L363.27 494.7" stroke="rgba(182, 72, 15, 1)" stroke-width="1.5"></path><path d="M363.27 494.7L363.27 494.7" stroke="rgba(182, 72, 15, 1)" stroke-width="1.5"></path><path d="M363.27 494.7L375.74 640.17" stroke="rgba(182, 72, 15, 1)" stroke-width="1.5"></path><path d="M363.27 494.7L554.98 693.05" stroke="rgba(182, 72, 15, 1)" stroke-width="1.5"></path><path d="M375.74 640.17L375.74 640.17" stroke="rgba(182, 72, 15, 1)" stroke-width="1.5"></path><path d="M375.74 640.17L554.98 693.05" stroke="rgba(182, 72, 15, 1)" stroke-width="1.5"></path><path d="M554.98 693.05L554.98 693.05" stroke="rgba(182, 72, 15, 1)" stroke-width="1.5"></path><path d="M554.98 693.05L683.55 653.13" stroke="rgba(182, 72, 15, 1)" stroke-width="1.5"></path><path d="M554.98 693.05L685.6 494.73" stroke="rgba(182, 72, 15, 1)" stroke-width="1.5"></path><path d="M554.98 693.05L220.43 704.91" stroke="rgba(182, 72, 15, 1)" stroke-width="1.5"></path><path d="M554.98 693.05L371.8 393.17" stroke="rgba(182, 72, 15, 1)" stroke-width="1.5"></path><path d="M695.65 224.62L695.65 224.62" stroke="rgba(182, 72, 15, 1)" stroke-width="1.5"></path><path d="M695.65 224.62L828.03 260.07" stroke="rgba(182, 72, 15, 1)" stroke-width="1.5"></path><path d="M685.6 494.73L685.6 494.73" stroke="rgba(182, 72, 15, 1)" stroke-width="1.5"></path><path d="M685.6 494.73L683.55 653.13" stroke="rgba(182, 72, 15, 1)" stroke-width="1.5"></path><path d="M685.6 494.73L832.44 353.21" stroke="rgba(182, 72, 15, 1)" stroke-width="1.5"></path><path d="M683.55 653.13L683.55 653.13" stroke="rgba(182, 72, 15, 1)" stroke-width="1.5"></path><path d="M683.55 653.13L989.48 640.5" stroke="rgba(182, 72, 15, 1)" stroke-width="1.5"></path><path d="M683.55 653.13L375.74 640.17" stroke="rgba(182, 72, 15, 1)" stroke-width="1.5"></path><path d="M683.55 653.13L832.44 353.21" stroke="rgba(182, 72, 15, 1)" stroke-width="1.5"></path><path d="M855.78 91.82L855.78 91.82" stroke="rgba(182, 72, 15, 1)" stroke-width="1.5"></path><path d="M855.78 91.82L944.57 44.22" stroke="rgba(182, 72, 15, 1)" stroke-width="1.5"></path><path d="M855.78 91.82L828.03 260.07" stroke="rgba(182, 72, 15, 1)" stroke-width="1.5"></path><path d="M855.78 91.82L956.39 239.01" stroke="rgba(182, 72, 15, 1)" stroke-width="1.5"></path><path d="M855.78 91.82L695.65 224.62" stroke="rgba(182, 72, 15, 1)" stroke-width="1.5"></path><path d="M828.03 260.07L828.03 260.07" stroke="rgba(182, 72, 15, 1)" stroke-width="1.5"></path><path d="M828.03 260.07L832.44 353.21" stroke="rgba(182, 72, 15, 1)" stroke-width="1.5"></path><path d="M828.03 260.07L956.39 239.01" stroke="rgba(182, 72, 15, 1)" stroke-width="1.5"></path><path d="M832.44 353.21L832.44 353.21" stroke="rgba(182, 72, 15, 1)" stroke-width="1.5"></path><path d="M832.44 353.21L954.03 377.43" stroke="rgba(182, 72, 15, 1)" stroke-width="1.5"></path><path d="M832.44 353.21L956.39 239.01" stroke="rgba(182, 72, 15, 1)" stroke-width="1.5"></path><path d="M832.44 353.21L695.65 224.62" stroke="rgba(182, 72, 15, 1)" stroke-width="1.5"></path><path d="M990.51 -98.42L990.51 -98.42" stroke="rgba(182, 72, 15, 1)" stroke-width="1.5"></path><path d="M990.51 -98.42L944.57 44.22" stroke="rgba(182, 72, 15, 1)" stroke-width="1.5"></path><path d="M990.51 -98.42L1124.42 80.94" stroke="rgba(182, 72, 15, 1)" stroke-width="1.5"></path><path d="M990.51 -98.42L855.78 91.82" stroke="rgba(182, 72, 15, 1)" stroke-width="1.5"></path><path d="M990.51 -98.42L1299.87 -108.87" stroke="rgba(182, 72, 15, 1)" stroke-width="1.5"></path><path d="M990.51 -98.42L956.39 239.01" stroke="rgba(182, 72, 15, 1)" stroke-width="1.5"></path><path d="M944.57 44.22L944.57 44.22" stroke="rgba(182, 72, 15, 1)" stroke-width="1.5"></path><path d="M944.57 44.22L1124.42 80.94" stroke="rgba(182, 72, 15, 1)" stroke-width="1.5"></path><path d="M944.57 44.22L956.39 239.01" stroke="rgba(182, 72, 15, 1)" stroke-width="1.5"></path><path d="M944.57 44.22L828.03 260.07" stroke="rgba(182, 72, 15, 1)" stroke-width="1.5"></path><path d="M956.39 239.01L956.39 239.01" stroke="rgba(182, 72, 15, 1)" stroke-width="1.5"></path><path d="M956.39 239.01L954.03 377.43" stroke="rgba(182, 72, 15, 1)" stroke-width="1.5"></path><path d="M956.39 239.01L1143.46 247.89" stroke="rgba(182, 72, 15, 1)" stroke-width="1.5"></path><path d="M954.03 377.43L954.03 377.43" stroke="rgba(182, 72, 15, 1)" stroke-width="1.5"></path><path d="M954.03 377.43L1005.91 499.17" stroke="rgba(182, 72, 15, 1)" stroke-width="1.5"></path><path d="M1005.91 499.17L1005.91 499.17" stroke="rgba(182, 72, 15, 1)" stroke-width="1.5"></path><path d="M1005.91 499.17L989.48 640.5" stroke="rgba(182, 72, 15, 1)" stroke-width="1.5"></path><path d="M1005.91 499.17L1147.19 528.37" stroke="rgba(182, 72, 15, 1)" stroke-width="1.5"></path><path d="M1005.91 499.17L1101.47 380.72" stroke="rgba(182, 72, 15, 1)" stroke-width="1.5"></path><path d="M1005.91 499.17L1092.11 674.02" stroke="rgba(182, 72, 15, 1)" stroke-width="1.5"></path><path d="M1005.91 499.17L832.44 353.21" stroke="rgba(182, 72, 15, 1)" stroke-width="1.5"></path><path d="M989.48 640.5L989.48 640.5" stroke="rgba(182, 72, 15, 1)" stroke-width="1.5"></path><path d="M989.48 640.5L1092.11 674.02" stroke="rgba(182, 72, 15, 1)" stroke-width="1.5"></path><path d="M989.48 640.5L1147.19 528.37" stroke="rgba(182, 72, 15, 1)" stroke-width="1.5"></path><path d="M989.48 640.5L954.03 377.43" stroke="rgba(182, 72, 15, 1)" stroke-width="1.5"></path><path d="M989.48 640.5L1238.79 531.25" stroke="rgba(182, 72, 15, 1)" stroke-width="1.5"></path><path d="M989.48 640.5L1101.47 380.72" stroke="rgba(182, 72, 15, 1)" stroke-width="1.5"></path><path d="M1124.42 80.94L1124.42 80.94" stroke="rgba(182, 72, 15, 1)" stroke-width="1.5"></path><path d="M1124.42 80.94L1143.46 247.89" stroke="rgba(182, 72, 15, 1)" stroke-width="1.5"></path><path d="M1124.42 80.94L1307.7 65.96" stroke="rgba(182, 72, 15, 1)" stroke-width="1.5"></path><path d="M1143.46 247.89L1143.46 247.89" stroke="rgba(182, 72, 15, 1)" stroke-width="1.5"></path><path d="M1143.46 247.89L1101.47 380.72" stroke="rgba(182, 72, 15, 1)" stroke-width="1.5"></path><path d="M1143.46 247.89L1310.19 389.73" stroke="rgba(182, 72, 15, 1)" stroke-width="1.5"></path><path d="M1143.46 247.89L954.03 377.43" stroke="rgba(182, 72, 15, 1)" stroke-width="1.5"></path><path d="M1143.46 247.89L1307.7 65.96" stroke="rgba(182, 72, 15, 1)" stroke-width="1.5"></path><path d="M1101.47 380.72L1101.47 380.72" stroke="rgba(182, 72, 15, 1)" stroke-width="1.5"></path><path d="M1101.47 380.72L954.03 377.43" stroke="rgba(182, 72, 15, 1)" stroke-width="1.5"></path><path d="M1147.19 528.37L1147.19 528.37" stroke="rgba(182, 72, 15, 1)" stroke-width="1.5"></path><path d="M1147.19 528.37L1238.79 531.25" stroke="rgba(182, 72, 15, 1)" stroke-width="1.5"></path><path d="M1092.11 674.02L1092.11 674.02" stroke="rgba(182, 72, 15, 1)" stroke-width="1.5"></path><path d="M1092.11 674.02L1147.19 528.37" stroke="rgba(182, 72, 15, 1)" stroke-width="1.5"></path><path d="M1299.87 -108.87L1299.87 -108.87" stroke="rgba(182, 72, 15, 1)" stroke-width="1.5"></path><path d="M1299.87 -108.87L1455.84 -80.41" stroke="rgba(182, 72, 15, 1)" stroke-width="1.5"></path><path d="M1299.87 -108.87L1307.7 65.96" stroke="rgba(182, 72, 15, 1)" stroke-width="1.5"></path><path d="M1299.87 -108.87L1461.2 53.44" stroke="rgba(182, 72, 15, 1)" stroke-width="1.5"></path><path d="M1299.87 -108.87L1124.42 80.94" stroke="rgba(182, 72, 15, 1)" stroke-width="1.5"></path><path d="M1299.87 -108.87L1583.02 -43.91" stroke="rgba(182, 72, 15, 1)" stroke-width="1.5"></path><path d="M1307.7 65.96L1307.7 65.96" stroke="rgba(182, 72, 15, 1)" stroke-width="1.5"></path><path d="M1307.7 65.96L1461.2 53.44" stroke="rgba(182, 72, 15, 1)" stroke-width="1.5"></path><path d="M1307.7 65.96L1430.56 216.06" stroke="rgba(182, 72, 15, 1)" stroke-width="1.5"></path><path d="M1307.7 65.96L1455.84 -80.41" stroke="rgba(182, 72, 15, 1)" stroke-width="1.5"></path><path d="M1310.19 389.73L1310.19 389.73" stroke="rgba(182, 72, 15, 1)" stroke-width="1.5"></path><path d="M1310.19 389.73L1397.73 397.71" stroke="rgba(182, 72, 15, 1)" stroke-width="1.5"></path><path d="M1310.19 389.73L1238.79 531.25" stroke="rgba(182, 72, 15, 1)" stroke-width="1.5"></path><path d="M1310.19 389.73L1407.46 550.7" stroke="rgba(182, 72, 15, 1)" stroke-width="1.5"></path><path d="M1310.19 389.73L1101.47 380.72" stroke="rgba(182, 72, 15, 1)" stroke-width="1.5"></path><path d="M1310.19 389.73L1430.56 216.06" stroke="rgba(182, 72, 15, 1)" stroke-width="1.5"></path><path d="M1310.19 389.73L1147.19 528.37" stroke="rgba(182, 72, 15, 1)" stroke-width="1.5"></path><path d="M1238.79 531.25L1238.79 531.25" stroke="rgba(182, 72, 15, 1)" stroke-width="1.5"></path><path d="M1238.79 531.25L1302.75 649.98" stroke="rgba(182, 72, 15, 1)" stroke-width="1.5"></path><path d="M1302.75 649.98L1302.75 649.98" stroke="rgba(182, 72, 15, 1)" stroke-width="1.5"></path><path d="M1302.75 649.98L1402.28 646.99" stroke="rgba(182, 72, 15, 1)" stroke-width="1.5"></path><path d="M1302.75 649.98L1407.46 550.7" stroke="rgba(182, 72, 15, 1)" stroke-width="1.5"></path><path d="M1302.75 649.98L1147.19 528.37" stroke="rgba(182, 72, 15, 1)" stroke-width="1.5"></path><path d="M1302.75 649.98L1092.11 674.02" stroke="rgba(182, 72, 15, 1)" stroke-width="1.5"></path><path d="M1302.75 649.98L1549.26 661.01" stroke="rgba(182, 72, 15, 1)" stroke-width="1.5"></path><path d="M1455.84 -80.41L1455.84 -80.41" stroke="rgba(182, 72, 15, 1)" stroke-width="1.5"></path><path d="M1455.84 -80.41L1583.02 -43.91" stroke="rgba(182, 72, 15, 1)" stroke-width="1.5"></path><path d="M1455.84 -80.41L1461.2 53.44" stroke="rgba(182, 72, 15, 1)" stroke-width="1.5"></path><path d="M1461.2 53.44L1461.2 53.44" stroke="rgba(182, 72, 15, 1)" stroke-width="1.5"></path><path d="M1461.2 53.44L1568.78 66.42" stroke="rgba(182, 72, 15, 1)" stroke-width="1.5"></path><path d="M1430.56 216.06L1430.56 216.06" stroke="rgba(182, 72, 15, 1)" stroke-width="1.5"></path><path d="M1430.56 216.06L1573.53 246.68" stroke="rgba(182, 72, 15, 1)" stroke-width="1.5"></path><path d="M1430.56 216.06L1461.2 53.44" stroke="rgba(182, 72, 15, 1)" stroke-width="1.5"></path><path d="M1430.56 216.06L1397.73 397.71" stroke="rgba(182, 72, 15, 1)" stroke-width="1.5"></path><path d="M1397.73 397.71L1397.73 397.71" stroke="rgba(182, 72, 15, 1)" stroke-width="1.5"></path><path d="M1397.73 397.71L1407.46 550.7" stroke="rgba(182, 72, 15, 1)" stroke-width="1.5"></path><path d="M1397.73 397.71L1579.97 393.86" stroke="rgba(182, 72, 15, 1)" stroke-width="1.5"></path><path d="M1407.46 550.7L1407.46 550.7" stroke="rgba(182, 72, 15, 1)" stroke-width="1.5"></path><path d="M1407.46 550.7L1402.28 646.99" stroke="rgba(182, 72, 15, 1)" stroke-width="1.5"></path><path d="M1407.46 550.7L1238.79 531.25" stroke="rgba(182, 72, 15, 1)" stroke-width="1.5"></path><path d="M1407.46 550.7L1577.54 542.07" stroke="rgba(182, 72, 15, 1)" stroke-width="1.5"></path><path d="M1407.46 550.7L1549.26 661.01" stroke="rgba(182, 72, 15, 1)" stroke-width="1.5"></path><path d="M1402.28 646.99L1402.28 646.99" stroke="rgba(182, 72, 15, 1)" stroke-width="1.5"></path><path d="M1402.28 646.99L1549.26 661.01" stroke="rgba(182, 72, 15, 1)" stroke-width="1.5"></path><path d="M1402.28 646.99L1238.79 531.25" stroke="rgba(182, 72, 15, 1)" stroke-width="1.5"></path><path d="M1402.28 646.99L1577.54 542.07" stroke="rgba(182, 72, 15, 1)" stroke-width="1.5"></path><path d="M1402.28 646.99L1397.73 397.71" stroke="rgba(182, 72, 15, 1)" stroke-width="1.5"></path><path d="M1583.02 -43.91L1583.02 -43.91" stroke="rgba(182, 72, 15, 1)" stroke-width="1.5"></path><path d="M1583.02 -43.91L1568.78 66.42" stroke="rgba(182, 72, 15, 1)" stroke-width="1.5"></path><path d="M1568.78 66.42L1568.78 66.42" stroke="rgba(182, 72, 15, 1)" stroke-width="1.5"></path><path d="M1573.53 246.68L1573.53 246.68" stroke="rgba(182, 72, 15, 1)" stroke-width="1.5"></path><path d="M1573.53 246.68L1579.97 393.86" stroke="rgba(182, 72, 15, 1)" stroke-width="1.5"></path><path d="M1573.53 246.68L1568.78 66.42" stroke="rgba(182, 72, 15, 1)" stroke-width="1.5"></path><path d="M1573.53 246.68L1461.2 53.44" stroke="rgba(182, 72, 15, 1)" stroke-width="1.5"></path><path d="M1573.53 246.68L1397.73 397.71" stroke="rgba(182, 72, 15, 1)" stroke-width="1.5"></path><path d="M1573.53 246.68L1583.02 -43.91" stroke="rgba(182, 72, 15, 1)" stroke-width="1.5"></path><path d="M1579.97 393.86L1579.97 393.86" stroke="rgba(182, 72, 15, 1)" stroke-width="1.5"></path><path d="M1579.97 393.86L1577.54 542.07" stroke="rgba(182, 72, 15, 1)" stroke-width="1.5"></path><path d="M1579.97 393.86L1430.56 216.06" stroke="rgba(182, 72, 15, 1)" stroke-width="1.5"></path><path d="M1577.54 542.07L1577.54 542.07" stroke="rgba(182, 72, 15, 1)" stroke-width="1.5"></path><path d="M1577.54 542.07L1549.26 661.01" stroke="rgba(182, 72, 15, 1)" stroke-width="1.5"></path><path d="M1549.26 661.01L1549.26 661.01" stroke="rgba(182, 72, 15, 1)" stroke-width="1.5"></path><path d="M1549.26 661.01L1579.97 393.86" stroke="rgba(182, 72, 15, 1)" stroke-width="1.5"></path><circle r="5" cx="-49.78" cy="398.37" fill="rgba(182, 72, 15, 1)"></circle><circle r="5" cx="-92.28" cy="547.32" fill="rgba(182, 72, 15, 1)"></circle><circle r="5" cx="-51.83" cy="703.48" fill="rgba(182, 72, 15, 1)"></circle><circle r="5" cx="64.13" cy="387.23" fill="rgba(182, 72, 15, 1)"></circle><circle r="5" cx="55.29" cy="521.97" fill="rgba(182, 72, 15, 1)"></circle><circle r="5" cx="48.15" cy="699.93" fill="rgba(182, 72, 15, 1)"></circle><circle r="5" cx="240.41" cy="378.96" fill="rgba(182, 72, 15, 1)"></circle><circle r="5" cx="200.98" cy="487.58" fill="rgba(182, 72, 15, 1)"></circle><circle r="5" cx="220.43" cy="704.91" fill="rgba(182, 72, 15, 1)"></circle><circle r="5" cx="371.8" cy="393.17" fill="rgba(182, 72, 15, 1)"></circle><circle r="5" cx="363.27" cy="494.7" fill="rgba(182, 72, 15, 1)"></circle><circle r="5" cx="375.74" cy="640.17" fill="rgba(182, 72, 15, 1)"></circle><circle r="5" cx="554.98" cy="693.05" fill="rgba(182, 72, 15, 1)"></circle><circle r="5" cx="695.65" cy="224.62" fill="rgba(182, 72, 15, 1)"></circle><circle r="5" cx="685.6" cy="494.73" fill="rgba(182, 72, 15, 1)"></circle><circle r="5" cx="683.55" cy="653.13" fill="rgba(182, 72, 15, 1)"></circle><circle r="5" cx="855.78" cy="91.82" fill="rgba(182, 72, 15, 1)"></circle><circle r="5" cx="828.03" cy="260.07" fill="rgba(182, 72, 15, 1)"></circle><circle r="5" cx="832.44" cy="353.21" fill="rgba(182, 72, 15, 1)"></circle><circle r="5" cx="990.51" cy="-98.42" fill="rgba(182, 72, 15, 1)"></circle><circle r="5" cx="944.57" cy="44.22" fill="rgba(182, 72, 15, 1)"></circle><circle r="5" cx="956.39" cy="239.01" fill="rgba(182, 72, 15, 1)"></circle><circle r="5" cx="954.03" cy="377.43" fill="rgba(182, 72, 15, 1)"></circle><circle r="5" cx="1005.91" cy="499.17" fill="rgba(182, 72, 15, 1)"></circle><circle r="5" cx="989.48" cy="640.5" fill="rgba(182, 72, 15, 1)"></circle><circle r="5" cx="1124.42" cy="80.94" fill="rgba(182, 72, 15, 1)"></circle><circle r="5" cx="1143.46" cy="247.89" fill="rgba(182, 72, 15, 1)"></circle><circle r="5" cx="1101.47" cy="380.72" fill="rgba(182, 72, 15, 1)"></circle><circle r="5" cx="1147.19" cy="528.37" fill="rgba(182, 72, 15, 1)"></circle><circle r="5" cx="1092.11" cy="674.02" fill="rgba(182, 72, 15, 1)"></circle><circle r="5" cx="1299.87" cy="-108.87" fill="rgba(182, 72, 15, 1)"></circle><circle r="5" cx="1307.7" cy="65.96" fill="rgba(182, 72, 15, 1)"></circle><circle r="5" cx="1310.19" cy="389.73" fill="rgba(182, 72, 15, 1)"></circle><circle r="5" cx="1238.79" cy="531.25" fill="rgba(182, 72, 15, 1)"></circle><circle r="5" cx="1302.75" cy="649.98" fill="rgba(182, 72, 15, 1)"></circle><circle r="5" cx="1455.84" cy="-80.41" fill="rgba(182, 72, 15, 1)"></circle><circle r="5" cx="1461.2" cy="53.44" fill="rgba(182, 72, 15, 1)"></circle><circle r="5" cx="1430.56" cy="216.06" fill="rgba(182, 72, 15, 1)"></circle><circle r="5" cx="1397.73" cy="397.71" fill="rgba(182, 72, 15, 1)"></circle><circle r="5" cx="1407.46" cy="550.7" fill="rgba(182, 72, 15, 1)"></circle><circle r="5" cx="1402.28" cy="646.99" fill="rgba(182, 72, 15, 1)"></circle><circle r="5" cx="1583.02" cy="-43.91" fill="rgba(182, 72, 15, 1)"></circle><circle r="5" cx="1568.78" cy="66.42" fill="rgba(182, 72, 15, 1)"></circle><circle r="5" cx="1573.53" cy="246.68" fill="rgba(182, 72, 15, 1)"></circle><circle r="5" cx="1579.97" cy="393.86" fill="rgba(182, 72, 15, 1)"></circle><circle r="5" cx="1577.54" cy="542.07" fill="rgba(182, 72, 15, 1)"></circle><circle r="5" cx="1549.26" cy="661.01" fill="rgba(182, 72, 15, 1)"></circle><path d="M237.4 499.82L237.4 499.82" stroke="hsl(20.5, 90.2%, 62.7%)" stroke-width="1.5"></path><path d="M237.4 499.82L347.22 539.56" stroke="hsl(20.5, 90.2%, 62.7%)" stroke-width="1.5"></path><path d="M237.4 499.82L255.88 637.91" stroke="hsl(20.5, 90.2%, 62.7%)" stroke-width="1.5"></path><path d="M237.4 499.82L38.57 529.27" stroke="hsl(20.5, 90.2%, 62.7%)" stroke-width="1.5"></path><path d="M255.88 637.91L255.88 637.91" stroke="hsl(20.5, 90.2%, 62.7%)" stroke-width="1.5"></path><path d="M255.88 637.91L347.22 539.56" stroke="hsl(20.5, 90.2%, 62.7%)" stroke-width="1.5"></path><path d="M255.88 637.91L394.96 699.53" stroke="hsl(20.5, 90.2%, 62.7%)" stroke-width="1.5"></path><path d="M255.88 637.91L54.29 659.75" stroke="hsl(20.5, 90.2%, 62.7%)" stroke-width="1.5"></path><path d="M255.88 637.91L497.5 651.38" stroke="hsl(20.5, 90.2%, 62.7%)" stroke-width="1.5"></path><path d="M978.13 704.99L978.13 704.99" stroke="hsl(20.5, 90.2%, 62.7%)" stroke-width="1.5"></path><path d="M978.13 704.99L1139.09 700.17" stroke="hsl(20.5, 90.2%, 62.7%)" stroke-width="1.5"></path><path d="M978.13 704.99L814.53 654.69" stroke="hsl(20.5, 90.2%, 62.7%)" stroke-width="1.5"></path><path d="M978.13 704.99L844.22 547.13" stroke="hsl(20.5, 90.2%, 62.7%)" stroke-width="1.5"></path><path d="M978.13 704.99L956.67 489.88" stroke="hsl(20.5, 90.2%, 62.7%)" stroke-width="1.5"></path><path d="M1150.16 37.57L1150.16 37.57" stroke="hsl(20.5, 90.2%, 62.7%)" stroke-width="1.5"></path><path d="M1150.16 37.57L1248.99 -90.04" stroke="hsl(20.5, 90.2%, 62.7%)" stroke-width="1.5"></path><path d="M1150.16 37.57L1260.55 191.55" stroke="hsl(20.5, 90.2%, 62.7%)" stroke-width="1.5"></path><path d="M1150.16 37.57L1129.36 235.81" stroke="hsl(20.5, 90.2%, 62.7%)" stroke-width="1.5"></path><path d="M1150.16 37.57L996.64 229.34" stroke="hsl(20.5, 90.2%, 62.7%)" stroke-width="1.5"></path><path d="M1295.5 513.36L1295.5 513.36" stroke="hsl(20.5, 90.2%, 62.7%)" stroke-width="1.5"></path><path d="M1295.5 513.36L1246.71 398.81" stroke="hsl(20.5, 90.2%, 62.7%)" stroke-width="1.5"></path><path d="M1295.5 513.36L1445.48 538.16" stroke="hsl(20.5, 90.2%, 62.7%)" stroke-width="1.5"></path><path d="M1295.5 513.36L1143.04 512.68" stroke="hsl(20.5, 90.2%, 62.7%)" stroke-width="1.5"></path><path d="M1295.5 513.36L1244.95 697.84" stroke="hsl(20.5, 90.2%, 62.7%)" stroke-width="1.5"></path><path d="M1295.5 513.36L1412.05 667.74" stroke="hsl(20.5, 90.2%, 62.7%)" stroke-width="1.5"></path><path d="M1444.85 84.06L1444.85 84.06" stroke="hsl(20.5, 90.2%, 62.7%)" stroke-width="1.5"></path><path d="M1444.85 84.06L1591.32 59.19" stroke="hsl(20.5, 90.2%, 62.7%)" stroke-width="1.5"></path><path d="M1444.85 84.06L1417.21 230.08" stroke="hsl(20.5, 90.2%, 62.7%)" stroke-width="1.5"></path><path d="M1444.85 84.06L1414.17 -76.14" stroke="hsl(20.5, 90.2%, 62.7%)" stroke-width="1.5"></path><path d="M1444.85 84.06L1572.87 211.15" stroke="hsl(20.5, 90.2%, 62.7%)" stroke-width="1.5"></path><path d="M1572.87 211.15L1572.87 211.15" stroke="hsl(20.5, 90.2%, 62.7%)" stroke-width="1.5"></path><path d="M1572.87 211.15L1591.32 59.19" stroke="hsl(20.5, 90.2%, 62.7%)" stroke-width="1.5"></path><path d="M1572.87 211.15L1417.21 230.08" stroke="hsl(20.5, 90.2%, 62.7%)" stroke-width="1.5"></path><path d="M1572.87 211.15L1578.95 383.61" stroke="hsl(20.5, 90.2%, 62.7%)" stroke-width="1.5"></path><path d="M1572.87 211.15L1460.32 366.72" stroke="hsl(20.5, 90.2%, 62.7%)" stroke-width="1.5"></path><path d="M1572.87 211.15L1604.31 -59.69" stroke="hsl(20.5, 90.2%, 62.7%)" stroke-width="1.5"></path><path d="M1578.95 383.61L1578.95 383.61" stroke="hsl(20.5, 90.2%, 62.7%)" stroke-width="1.5"></path><path d="M1578.95 383.61L1460.32 366.72" stroke="hsl(20.5, 90.2%, 62.7%)" stroke-width="1.5"></path><path d="M1578.95 383.61L1567.69 543.19" stroke="hsl(20.5, 90.2%, 62.7%)" stroke-width="1.5"></path><path d="M1578.95 383.61L1445.48 538.16" stroke="hsl(20.5, 90.2%, 62.7%)" stroke-width="1.5"></path><path d="M1578.95 383.61L1417.21 230.08" stroke="hsl(20.5, 90.2%, 62.7%)" stroke-width="1.5"></path><path d="M1567.42 659.25L1567.42 659.25" stroke="hsl(20.5, 90.2%, 62.7%)" stroke-width="1.5"></path><path d="M1567.42 659.25L1567.69 543.19" stroke="hsl(20.5, 90.2%, 62.7%)" stroke-width="1.5"></path><path d="M1567.42 659.25L1412.05 667.74" stroke="hsl(20.5, 90.2%, 62.7%)" stroke-width="1.5"></path><path d="M1567.42 659.25L1445.48 538.16" stroke="hsl(20.5, 90.2%, 62.7%)" stroke-width="1.5"></path><path d="M1567.42 659.25L1578.95 383.61" stroke="hsl(20.5, 90.2%, 62.7%)" stroke-width="1.5"></path><path d="M-51.85 528.14L-51.85 528.14" stroke="hsl(20.5, 90.2%, 62.7%)" stroke-width="1.5"></path><path d="M-51.85 528.14L38.57 529.27" stroke="hsl(20.5, 90.2%, 62.7%)" stroke-width="1.5"></path><path d="M-51.85 528.14L-104.91 681.57" stroke="hsl(20.5, 90.2%, 62.7%)" stroke-width="1.5"></path><path d="M-51.85 528.14L54.29 659.75" stroke="hsl(20.5, 90.2%, 62.7%)" stroke-width="1.5"></path><path d="M-51.85 528.14L237.4 499.82" stroke="hsl(20.5, 90.2%, 62.7%)" stroke-width="1.5"></path><path d="M-104.91 681.57L-104.91 681.57" stroke="hsl(20.5, 90.2%, 62.7%)" stroke-width="1.5"></path><path d="M-104.91 681.57L54.29 659.75" stroke="hsl(20.5, 90.2%, 62.7%)" stroke-width="1.5"></path><path d="M-104.91 681.57L38.57 529.27" stroke="hsl(20.5, 90.2%, 62.7%)" stroke-width="1.5"></path><path d="M38.57 529.27L38.57 529.27" stroke="hsl(20.5, 90.2%, 62.7%)" stroke-width="1.5"></path><path d="M38.57 529.27L54.29 659.75" stroke="hsl(20.5, 90.2%, 62.7%)" stroke-width="1.5"></path><path d="M54.29 659.75L54.29 659.75" stroke="hsl(20.5, 90.2%, 62.7%)" stroke-width="1.5"></path><path d="M347.22 539.56L347.22 539.56" stroke="hsl(20.5, 90.2%, 62.7%)" stroke-width="1.5"></path><path d="M347.22 539.56L507.01 520.54" stroke="hsl(20.5, 90.2%, 62.7%)" stroke-width="1.5"></path><path d="M347.22 539.56L394.96 699.53" stroke="hsl(20.5, 90.2%, 62.7%)" stroke-width="1.5"></path><path d="M347.22 539.56L497.5 651.38" stroke="hsl(20.5, 90.2%, 62.7%)" stroke-width="1.5"></path><path d="M347.22 539.56L655.31 552.46" stroke="hsl(20.5, 90.2%, 62.7%)" stroke-width="1.5"></path><path d="M394.96 699.53L394.96 699.53" stroke="hsl(20.5, 90.2%, 62.7%)" stroke-width="1.5"></path><path d="M394.96 699.53L497.5 651.38" stroke="hsl(20.5, 90.2%, 62.7%)" stroke-width="1.5"></path><path d="M507.01 520.54L507.01 520.54" stroke="hsl(20.5, 90.2%, 62.7%)" stroke-width="1.5"></path><path d="M507.01 520.54L497.5 651.38" stroke="hsl(20.5, 90.2%, 62.7%)" stroke-width="1.5"></path><path d="M507.01 520.54L655.31 552.46" stroke="hsl(20.5, 90.2%, 62.7%)" stroke-width="1.5"></path><path d="M497.5 651.38L497.5 651.38" stroke="hsl(20.5, 90.2%, 62.7%)" stroke-width="1.5"></path><path d="M497.5 651.38L661.28 675.03" stroke="hsl(20.5, 90.2%, 62.7%)" stroke-width="1.5"></path><path d="M705.38 354.23L705.38 354.23" stroke="hsl(20.5, 90.2%, 62.7%)" stroke-width="1.5"></path><path d="M705.38 354.23L847.77 374.89" stroke="hsl(20.5, 90.2%, 62.7%)" stroke-width="1.5"></path><path d="M705.38 354.23L655.31 552.46" stroke="hsl(20.5, 90.2%, 62.7%)" stroke-width="1.5"></path><path d="M705.38 354.23L844.22 547.13" stroke="hsl(20.5, 90.2%, 62.7%)" stroke-width="1.5"></path><path d="M655.31 552.46L655.31 552.46" stroke="hsl(20.5, 90.2%, 62.7%)" stroke-width="1.5"></path><path d="M655.31 552.46L661.28 675.03" stroke="hsl(20.5, 90.2%, 62.7%)" stroke-width="1.5"></path><path d="M661.28 675.03L661.28 675.03" stroke="hsl(20.5, 90.2%, 62.7%)" stroke-width="1.5"></path><path d="M661.28 675.03L814.53 654.69" stroke="hsl(20.5, 90.2%, 62.7%)" stroke-width="1.5"></path><path d="M847.77 374.89L847.77 374.89" stroke="hsl(20.5, 90.2%, 62.7%)" stroke-width="1.5"></path><path d="M847.77 374.89L946.67 394.23" stroke="hsl(20.5, 90.2%, 62.7%)" stroke-width="1.5"></path><path d="M847.77 374.89L956.67 489.88" stroke="hsl(20.5, 90.2%, 62.7%)" stroke-width="1.5"></path><path d="M847.77 374.89L844.22 547.13" stroke="hsl(20.5, 90.2%, 62.7%)" stroke-width="1.5"></path><path d="M847.77 374.89L996.64 229.34" stroke="hsl(20.5, 90.2%, 62.7%)" stroke-width="1.5"></path><path d="M844.22 547.13L844.22 547.13" stroke="hsl(20.5, 90.2%, 62.7%)" stroke-width="1.5"></path><path d="M844.22 547.13L814.53 654.69" stroke="hsl(20.5, 90.2%, 62.7%)" stroke-width="1.5"></path><path d="M844.22 547.13L956.67 489.88" stroke="hsl(20.5, 90.2%, 62.7%)" stroke-width="1.5"></path><path d="M844.22 547.13L946.67 394.23" stroke="hsl(20.5, 90.2%, 62.7%)" stroke-width="1.5"></path><path d="M844.22 547.13L655.31 552.46" stroke="hsl(20.5, 90.2%, 62.7%)" stroke-width="1.5"></path><path d="M814.53 654.69L814.53 654.69" stroke="hsl(20.5, 90.2%, 62.7%)" stroke-width="1.5"></path><path d="M996.64 229.34L996.64 229.34" stroke="hsl(20.5, 90.2%, 62.7%)" stroke-width="1.5"></path><path d="M996.64 229.34L1129.36 235.81" stroke="hsl(20.5, 90.2%, 62.7%)" stroke-width="1.5"></path><path d="M996.64 229.34L946.67 394.23" stroke="hsl(20.5, 90.2%, 62.7%)" stroke-width="1.5"></path><path d="M996.64 229.34L1136.96 402.36" stroke="hsl(20.5, 90.2%, 62.7%)" stroke-width="1.5"></path><path d="M996.64 229.34L956.67 489.88" stroke="hsl(20.5, 90.2%, 62.7%)" stroke-width="1.5"></path><path d="M946.67 394.23L946.67 394.23" stroke="hsl(20.5, 90.2%, 62.7%)" stroke-width="1.5"></path><path d="M946.67 394.23L956.67 489.88" stroke="hsl(20.5, 90.2%, 62.7%)" stroke-width="1.5"></path><path d="M946.67 394.23L1136.96 402.36" stroke="hsl(20.5, 90.2%, 62.7%)" stroke-width="1.5"></path><path d="M946.67 394.23L1143.04 512.68" stroke="hsl(20.5, 90.2%, 62.7%)" stroke-width="1.5"></path><path d="M956.67 489.88L956.67 489.88" stroke="hsl(20.5, 90.2%, 62.7%)" stroke-width="1.5"></path><path d="M1129.36 235.81L1129.36 235.81" stroke="hsl(20.5, 90.2%, 62.7%)" stroke-width="1.5"></path><path d="M1129.36 235.81L1260.55 191.55" stroke="hsl(20.5, 90.2%, 62.7%)" stroke-width="1.5"></path><path d="M1136.96 402.36L1136.96 402.36" stroke="hsl(20.5, 90.2%, 62.7%)" stroke-width="1.5"></path><path d="M1136.96 402.36L1246.71 398.81" stroke="hsl(20.5, 90.2%, 62.7%)" stroke-width="1.5"></path><path d="M1136.96 402.36L1143.04 512.68" stroke="hsl(20.5, 90.2%, 62.7%)" stroke-width="1.5"></path><path d="M1136.96 402.36L1129.36 235.81" stroke="hsl(20.5, 90.2%, 62.7%)" stroke-width="1.5"></path><path d="M1143.04 512.68L1143.04 512.68" stroke="hsl(20.5, 90.2%, 62.7%)" stroke-width="1.5"></path><path d="M1143.04 512.68L1246.71 398.81" stroke="hsl(20.5, 90.2%, 62.7%)" stroke-width="1.5"></path><path d="M1143.04 512.68L1139.09 700.17" stroke="hsl(20.5, 90.2%, 62.7%)" stroke-width="1.5"></path><path d="M1143.04 512.68L956.67 489.88" stroke="hsl(20.5, 90.2%, 62.7%)" stroke-width="1.5"></path><path d="M1143.04 512.68L1244.95 697.84" stroke="hsl(20.5, 90.2%, 62.7%)" stroke-width="1.5"></path><path d="M1139.09 700.17L1139.09 700.17" stroke="hsl(20.5, 90.2%, 62.7%)" stroke-width="1.5"></path><path d="M1139.09 700.17L1244.95 697.84" stroke="hsl(20.5, 90.2%, 62.7%)" stroke-width="1.5"></path><path d="M1139.09 700.17L1295.5 513.36" stroke="hsl(20.5, 90.2%, 62.7%)" stroke-width="1.5"></path><path d="M1248.99 -90.04L1248.99 -90.04" stroke="hsl(20.5, 90.2%, 62.7%)" stroke-width="1.5"></path><path d="M1248.99 -90.04L1414.17 -76.14" stroke="hsl(20.5, 90.2%, 62.7%)" stroke-width="1.5"></path><path d="M1248.99 -90.04L1444.85 84.06" stroke="hsl(20.5, 90.2%, 62.7%)" stroke-width="1.5"></path><path d="M1260.55 191.55L1260.55 191.55" stroke="hsl(20.5, 90.2%, 62.7%)" stroke-width="1.5"></path><path d="M1260.55 191.55L1417.21 230.08" stroke="hsl(20.5, 90.2%, 62.7%)" stroke-width="1.5"></path><path d="M1246.71 398.81L1246.71 398.81" stroke="hsl(20.5, 90.2%, 62.7%)" stroke-width="1.5"></path><path d="M1246.71 398.81L1129.36 235.81" stroke="hsl(20.5, 90.2%, 62.7%)" stroke-width="1.5"></path><path d="M1246.71 398.81L1260.55 191.55" stroke="hsl(20.5, 90.2%, 62.7%)" stroke-width="1.5"></path><path d="M1244.95 697.84L1244.95 697.84" stroke="hsl(20.5, 90.2%, 62.7%)" stroke-width="1.5"></path><path d="M1244.95 697.84L1412.05 667.74" stroke="hsl(20.5, 90.2%, 62.7%)" stroke-width="1.5"></path><path d="M1414.17 -76.14L1414.17 -76.14" stroke="hsl(20.5, 90.2%, 62.7%)" stroke-width="1.5"></path><path d="M1414.17 -76.14L1604.31 -59.69" stroke="hsl(20.5, 90.2%, 62.7%)" stroke-width="1.5"></path><path d="M1417.21 230.08L1417.21 230.08" stroke="hsl(20.5, 90.2%, 62.7%)" stroke-width="1.5"></path><path d="M1417.21 230.08L1460.32 366.72" stroke="hsl(20.5, 90.2%, 62.7%)" stroke-width="1.5"></path><path d="M1460.32 366.72L1460.32 366.72" stroke="hsl(20.5, 90.2%, 62.7%)" stroke-width="1.5"></path><path d="M1460.32 366.72L1445.48 538.16" stroke="hsl(20.5, 90.2%, 62.7%)" stroke-width="1.5"></path><path d="M1460.32 366.72L1567.69 543.19" stroke="hsl(20.5, 90.2%, 62.7%)" stroke-width="1.5"></path><path d="M1445.48 538.16L1445.48 538.16" stroke="hsl(20.5, 90.2%, 62.7%)" stroke-width="1.5"></path><path d="M1445.48 538.16L1567.69 543.19" stroke="hsl(20.5, 90.2%, 62.7%)" stroke-width="1.5"></path><path d="M1445.48 538.16L1412.05 667.74" stroke="hsl(20.5, 90.2%, 62.7%)" stroke-width="1.5"></path><path d="M1412.05 667.74L1412.05 667.74" stroke="hsl(20.5, 90.2%, 62.7%)" stroke-width="1.5"></path><path d="M1412.05 667.74L1567.69 543.19" stroke="hsl(20.5, 90.2%, 62.7%)" stroke-width="1.5"></path><path d="M1412.05 667.74L1139.09 700.17" stroke="hsl(20.5, 90.2%, 62.7%)" stroke-width="1.5"></path><path d="M1604.31 -59.69L1604.31 -59.69" stroke="hsl(20.5, 90.2%, 62.7%)" stroke-width="1.5"></path><path d="M1604.31 -59.69L1591.32 59.19" stroke="hsl(20.5, 90.2%, 62.7%)" stroke-width="1.5"></path><path d="M1591.32 59.19L1591.32 59.19" stroke="hsl(20.5, 90.2%, 62.7%)" stroke-width="1.5"></path><path d="M1567.69 543.19L1567.69 543.19" stroke="hsl(20.5, 90.2%, 62.7%)" stroke-width="1.5"></path><path d="M1567.69 543.19L1295.5 513.36" stroke="hsl(20.5, 90.2%, 62.7%)" stroke-width="1.5"></path><circle r="25" cx="237.4" cy="499.82" fill="url(#SvgjsRadialGradient1007)"></circle><circle r="25" cx="255.88" cy="637.91" fill="url(#SvgjsRadialGradient1007)"></circle><circle r="25" cx="978.13" cy="704.99" fill="url(#SvgjsRadialGradient1007)"></circle><circle r="25" cx="1150.16" cy="37.57" fill="url(#SvgjsRadialGradient1007)"></circle><circle r="25" cx="1295.5" cy="513.36" fill="url(#SvgjsRadialGradient1007)"></circle><circle r="25" cx="1444.85" cy="84.06" fill="url(#SvgjsRadialGradient1007)"></circle><circle r="25" cx="1572.87" cy="211.15" fill="url(#SvgjsRadialGradient1007)"></circle><circle r="25" cx="1578.95" cy="383.61" fill="url(#SvgjsRadialGradient1007)"></circle><circle r="25" cx="1567.42" cy="659.25" fill="url(#SvgjsRadialGradient1007)"></circle><circle r="5" cx="-51.85" cy="528.14" fill="#f5ac86"></circle><circle r="5" cx="-104.91" cy="681.57" fill="#f5ac86"></circle><circle r="5" cx="38.57" cy="529.27" fill="#f5ac86"></circle><circle r="5" cx="54.29" cy="659.75" fill="#f5ac86"></circle><circle r="5" cx="347.22" cy="539.56" fill="#f5ac86"></circle><circle r="5" cx="394.96" cy="699.53" fill="#f5ac86"></circle><circle r="5" cx="507.01" cy="520.54" fill="#f5ac86"></circle><circle r="5" cx="497.5" cy="651.38" fill="#f5ac86"></circle><circle r="5" cx="705.38" cy="354.23" fill="#f5ac86"></circle><circle r="5" cx="655.31" cy="552.46" fill="#f5ac86"></circle><circle r="5" cx="661.28" cy="675.03" fill="#f5ac86"></circle><circle r="5" cx="847.77" cy="374.89" fill="#f5ac86"></circle><circle r="5" cx="844.22" cy="547.13" fill="#f5ac86"></circle><circle r="5" cx="814.53" cy="654.69" fill="#f5ac86"></circle><circle r="5" cx="996.64" cy="229.34" fill="#f5ac86"></circle><circle r="5" cx="946.67" cy="394.23" fill="#f5ac86"></circle><circle r="5" cx="956.67" cy="489.88" fill="#f5ac86"></circle><circle r="5" cx="1129.36" cy="235.81" fill="#f5ac86"></circle><circle r="5" cx="1136.96" cy="402.36" fill="#f5ac86"></circle><circle r="5" cx="1143.04" cy="512.68" fill="#f5ac86"></circle><circle r="5" cx="1139.09" cy="700.17" fill="#f5ac86"></circle><circle r="5" cx="1248.99" cy="-90.04" fill="#f5ac86"></circle><circle r="5" cx="1260.55" cy="191.55" fill="#f5ac86"></circle><circle r="5" cx="1246.71" cy="398.81" fill="#f5ac86"></circle><circle r="5" cx="1244.95" cy="697.84" fill="#f5ac86"></circle><circle r="5" cx="1414.17" cy="-76.14" fill="#f5ac86"></circle><circle r="5" cx="1417.21" cy="230.08" fill="#f5ac86"></circle><circle r="5" cx="1460.32" cy="366.72" fill="#f5ac86"></circle><circle r="5" cx="1445.48" cy="538.16" fill="#f5ac86"></circle><circle r="5" cx="1412.05" cy="667.74" fill="#f5ac86"></circle><circle r="5" cx="1604.31" cy="-59.69" fill="#f5ac86"></circle><circle r="5" cx="1591.32" cy="59.19" fill="#f5ac86"></circle><circle r="5" cx="1567.69" cy="543.19" fill="#f5ac86"></circle></g><defs><mask id="SvgjsMask1006"><rect width="1440" height="560" fill="#ffffff"></rect></mask><radialGradient id="SvgjsRadialGradient1007"><stop stop-color="#ffffff" offset="0.1"></stop><stop stop-color="rgba(234, 88, 12, 1)" offset="0.2"></stop><stop stop-color="rgba(234, 88, 12, 0)" offset="1"></stop></radialGradient></defs></svg>