<svg xmlns="http://www.w3.org/2000/svg" version="1.1" xmlns:xlink="http://www.w3.org/1999/xlink" xmlns:svgjs="http://svgjs.com/svgjs" width="144" height="56" preserveAspectRatio="none" viewBox="0 0 144 56"><g mask="url(&quot;#SvgjsMask1032&quot;)" fill="none"><rect width="144" height="56" x="0" y="0" fill="rgba(234, 88, 12, 1)"></rect><circle r="0.875" cx="92.615" cy="29.255" filter="url(#SvgjsFilter1033)" fill="rgba(200, 78, 15, 0.75)"></circle><circle r="0.78" cx="56.39" cy="25.32" filter="url(#SvgjsFilter1033)" fill="rgba(200, 78, 15, 0.75)"></circle><circle r="0.86" cx="52.71" cy="27.77" filter="url(#SvgjsFilter1033)" fill="rgba(200, 78, 15, 0.75)"></circle><circle r="0.81" cx="73.17" cy="29.72" filter="url(#SvgjsFilter1033)" fill="rgba(200, 78, 15, 0.75)"></circle><circle r="0.555" cx="120.92500000000001" cy="12.565" filter="url(#SvgjsFilter1033)" fill="rgba(200, 78, 15, 0.75)"></circle><circle r="0.93" cx="15.62" cy="30.95" filter="url(#SvgjsFilter1033)" fill="rgba(200, 78, 15, 0.75)"></circle><circle r="0.56" cx="66.74000000000001" cy="22.04" filter="url(#SvgjsFilter1033)" fill="rgba(200, 78, 15, 0.75)"></circle><circle r="0.47" cx="105.87" cy="10.21" filter="url(#SvgjsFilter1033)" fill="rgba(200, 78, 15, 0.75)"></circle><circle r="0.685" cx="86.015" cy="36.175000000000004" filter="url(#SvgjsFilter1033)" fill="rgba(200, 78, 15, 0.75)"></circle><circle r="0.71" cx="13.05" cy="39.53" filter="url(#SvgjsFilter1033)" fill="rgba(200, 78, 15, 0.75)"></circle><circle r="0.92" cx="142.17" cy="3.23" filter="url(#SvgjsFilter1033)" fill="rgba(200, 78, 15, 0.75)"></circle><circle r="0.475" cx="130.195" cy="36.865" filter="url(#SvgjsFilter1033)" fill="rgba(200, 78, 15, 0.75)"></circle><circle r="0.75" cx="15.26" cy="27.26" filter="url(#SvgjsFilter1033)" fill="rgba(200, 78, 15, 0.75)"></circle><circle r="0.895" cx="106.255" cy="32.175000000000004" filter="url(#SvgjsFilter1033)" fill="rgba(200, 78, 15, 0.75)"></circle><circle r="0.785" cx="64.565" cy="34.184999999999995" filter="url(#SvgjsFilter1033)" fill="rgba(200, 78, 15, 0.75)"></circle><circle r="0.765" cx="15.265" cy="21.315" filter="url(#SvgjsFilter1033)" fill="rgba(200, 78, 15, 0.75)"></circle><circle r="0.81" cx="133.87" cy="10.47" filter="url(#SvgjsFilter1033)" fill="rgba(200, 78, 15, 0.75)"></circle><circle r="0.92" cx="110.92" cy="18.450000000000003" filter="url(#SvgjsFilter1033)" fill="rgba(200, 78, 15, 0.75)"></circle><circle r="0.52" cx="132.62" cy="54.580000000000005" filter="url(#SvgjsFilter1033)" fill="rgba(200, 78, 15, 0.75)"></circle><circle r="0.675" cx="79.545" cy="40.974999999999994" filter="url(#SvgjsFilter1033)" fill="rgba(200, 78, 15, 0.75)"></circle><path d="M21.1 24.3L20.3 23.2 21.1 23.1C21.2 23.1 21.3 23 21.3 22.9 21.3 22.8 21.2 22.7 21.1 22.7L20 22.8 19.4 21.9 21.6 21.7C21.7 21.7 21.7 21.6 21.7 21.5 21.7 21.4 21.6 21.3 21.5 21.3L19.1 21.5 18.1 20.2 20 20.2 18.8 18.8 20.4 18.6 21.9 20.6C21.8 20.6 21.9 20.7 21.9 20.7 22 20.7 22.1 20.7 22.1 20.7 22.2 20.6 22.2 20.5 22.2 20.4L20.9 18.6 22 18.5 22.6 19.4C22.6 19.4 22.7 19.4 22.7 19.5 22.7 19.5 22.8 19.5 22.9 19.4 23 19.4 23 19.2 22.9 19.2L22.4 18.5 23.8 18.3C24 18.3 24 18.2 24 18.1 24 18 23.9 17.9 23.8 17.9L22.4 18 22.8 17.3C22.8 17.2 22.7 17.1 22.7 17 22.5 17 22.4 17 22.4 17.1L21.9 18.1 20.9 18.2 21.8 16.2C21.8 16.1 21.8 16 21.7 15.9 21.6 15.9 21.4 15.9 21.4 16L20.4 18.2 18.7 18.4 19.7 16.8 17.8 17.2 18.5 15.6 20.9 15.4C21.1 15.4 21.1 15.3 21.1 15.2 21.1 15.1 21 15 20.9 15L18.7 15.2 19.2 14.2 20.2 14.1C20.4 14.1 20.5 14 20.4 13.9 20.4 13.8 20.3 13.7 20.2 13.7L19.4 13.8 20 12.5C20 12.4 20 12.3 19.9 12.3S19.6 12.3 19.6 12.4L19 13.6 18.5 13C18.4 12.9 18.3 12.8 18.3 12.9 18.1 13 18.1 13.1 18.2 13.2L18.8 14.1 18.4 15.1 17.1 13.3C17 13.2 16.9 13.2 16.8 13.2 16.7 13.3 16.7 13.4 16.8 13.5L18.2 15.5 17.5 17 16.6 15.3 16 17.1 15 15.8 16 13.6C16.1 13.5 16 13.4 15.9 13.3 15.8 13.3 15.7 13.3 15.6 13.4L14.7 15.4 14.1 14.5 14.5 13.5C14.6 13.4 14.5 13.3 14.4 13.3 14.4 13.2 14.2 13.3 14.2 13.4L13.8 14.1 13 13C12.9 12.9 12.8 12.9 12.7 13 12.7 13 12.6 13.1 12.7 13.2L13.5 14.4 12.7 14.5C12.6 14.5 12.5 14.6 12.5 14.7 12.5 14.7 12.5 14.8 12.6 14.8 12.6 14.8 12.6 14.9 12.7 14.8L13.8 14.8 14.4 15.6 12.2 15.8C12.1 15.9 12 15.9 12 16 12 16.1 12.1 16.2 12.2 16.2 12.2 16.2 12.2 16.2 12.2 16.2L14.7 16 15.6 17.4 13.7 17.3 15 18.8 13.3 18.9 11.9 16.9C11.9 16.9 11.7 16.8 11.6 16.9 11.6 17 11.5 17.1 11.6 17.2L12.9 19 11.8 19 11.2 18.2C11.1 18.1 11 18.1 10.9 18.1 10.8 18.2 10.8 18.3 10.8 18.4L11.3 19.1 9.9 19.3C9.8 19.2 9.8 19.4 9.7 19.5 9.8 19.5 9.8 19.6 9.9 19.6 9.9 19.6 9.9 19.6 10 19.6L11.4 19.5 11 20.3C11 20.4 11 20.5 11.1 20.5L11.1 20.5C11.2 20.6 11.3 20.5 11.4 20.4L11.8 19.5 12.9 19.4 12 21.3C12 21.5 12 21.6 12.1 21.6S12.3 21.6 12.4 21.5L13.4 19.3 15 19.2 14.1 20.8 15.9 20.4 15.2 21.9 12.8 22.2C12.7 22.2 12.6 22.3 12.6 22.4 12.6 22.5 12.7 22.6 12.9 22.6L15 22.4 14.6 23.3 13.5 23.4C13.4 23.4 13.3 23.5 13.3 23.7 13.3 23.8 13.4 23.8 13.6 23.9L14.4 23.8 13.8 25C13.8 25.1 13.8 25.2 13.9 25.3S14.1 25.3 14.2 25.2L14.8 23.9 15.2 24.6C15.3 24.6 15.3 24.7 15.3 24.7 15.4 24.7 15.5 24.7 15.5 24.7 15.6 24.6 15.6 24.5 15.6 24.4L15 23.5 15.4 22.5 16.6 24.3C16.7 24.3 16.7 24.3 16.8 24.4 16.8 24.4 16.9 24.4 16.9 24.3 17.1 24.3 17.1 24.1 17 24.1L15.6 22.1 16.3 20.6 17.2 22.2 17.8 20.4 18.8 21.8 17.8 24C17.7 24.1 17.8 24.2 17.9 24.2 18 24.3 18.1 24.3 18.1 24.1L19 22.2 19.7 23 19.2 24C19.2 24.1 19.2 24.2 19.3 24.3S19.5 24.3 19.6 24.2L19.9 23.4 20.8 24.6C20.8 24.6 20.8 24.6 20.8 24.6 20.9 24.7 21 24.7 21 24.6 21.1 24.5 21.2 24.4 21.1 24.3ZM17.1 21.3L16.4 19.9 14.9 20.2 15.7 18.9 14.6 17.7 16.2 17.7 16.7 16.3 17.4 17.7 18.9 17.3 18.1 18.6 19.1 19.8 17.6 19.8 17.1 21.3Z" fill="rgba(200, 78, 15, 0.75)"></path><path d="M65.1 2.2L62.6 6.8 61.2 7.3 58.8 5 59.1 3.6 63.7 0.8C63.7 0.8 63.7 0.8 63.7 0.7 63.8 0.6 63.9 0.5 63.8 0.3 63.6 0.2 63.5 0.1 63.3 0.2L59.4 2.7 59.9 0.4 61.6-0.7C61.6-0.7 61.7-0.7 61.7-0.7 61.8-0.8 61.8-0.9 61.7-1.1 61.6-1.2 61.4-1.3 61.2-1.2L60.1-0.5 60.5-2.2C60.5-2.3 60.4-2.5 60.3-2.6S59.9-2.5 59.8-2.3L59.4-0.7 58.7-1.8C58.6-2 58.4-2 58.2-1.9 58.1-1.8 58.1-1.6 58.2-1.5L59.2 0.3 58.7 2.5 56.3-1.4C56.2-1.6 55.9-1.6 55.8-1.6 55.7-1.4 55.6-1.3 55.7-1.1L58.5 3.4 58.1 4.9 55.1 5.8 53.9 4.8 53.7-0.5C53.7-0.7 53.6-0.8 53.4-0.8S53.1-0.7 53.1-0.5L53.3 4.2 51.6 2.5 51.5 0.5C51.5 0.4 51.4 0.2 51.1 0.2S50.8 0.3 50.8 0.5L50.9 1.9 49.7 0.7C49.5 0.6 49.3 0.6 49.2 0.8 49 0.9 49 1.1 49.2 1.2L50.4 2.4 49.1 2.5C48.8 2.4 48.7 2.6 48.8 2.8 48.8 3 48.9 3.1 49.1 3.1L51.1 3 52.8 4.7 48.1 4.7C48 4.8 47.8 4.9 47.8 5.1S47.9 5.4 48.1 5.4L53.5 5.3 54.6 6.3 53.8 9.5 52.4 9.9 47.7 7.3C47.5 7.3 47.4 7.4 47.2 7.5 47.1 7.7 47.2 7.9 47.4 8L51.5 10.2 49.3 10.8 47.5 9.8C47.3 9.8 47.1 9.8 47 10 46.9 10.1 47 10.4 47.2 10.4L48.3 11.1 46.7 11.6C46.6 11.6 46.5 11.8 46.5 12 46.6 12.2 46.8 12.3 46.9 12.2L48.5 11.7 47.9 13C47.8 13.1 47.9 13.3 48 13.4 48.2 13.5 48.3 13.4 48.4 13.3 48.4 13.3 48.5 13.3 48.5 13.3L49.5 11.5 51.7 10.8 49.5 14.9C49.4 15.1 49.4 15.3 49.6 15.3 49.8 15.4 49.9 15.4 50 15.3 50 15.2 50 15.2 50 15.2L52.6 10.5 54 10.1 56.4 12.3 56 13.8 51.5 16.6C51.3 16.7 51.3 16.9 51.3 17 51.4 17.2 51.7 17.2 51.8 17.1L55.8 14.7 55.3 17 53.5 18C53.4 18.1 53.3 18.3 53.4 18.5 53.5 18.6 53.7 18.7 53.9 18.6L55 17.9 54.6 19.5C54.6 19.7 54.7 19.9 54.9 20 55 19.9 55.1 19.9 55.2 19.8 55.3 19.8 55.3 19.8 55.3 19.7L55.7 18 56.4 19.2C56.5 19.4 56.7 19.4 56.8 19.3 56.9 19.3 56.9 19.3 56.9 19.2 57 19.1 57.1 19 57 18.8L55.9 17.1 56.4 14.9 58.9 18.8C59 19 59.2 19.1 59.3 18.9 59.4 18.9 59.4 18.9 59.5 18.9 59.5 18.8 59.5 18.6 59.5 18.5L56.6 13.9 57 12.5 60.1 11.6 61.2 12.6 61.3 17.9C61.3 18.1 61.5 18.3 61.7 18.3S62.1 18.1 62.1 17.9L61.9 13.2 63.6 14.8 63.7 16.9C63.7 17 63.8 17.2 64 17.2 64.2 17.2 64.3 17 64.3 16.8L64.2 15.5 65.5 16.7C65.6 16.8 65.8 16.8 66 16.6 66.1 16.5 66.1 16.2 66 16.2L64.7 15 66.1 14.9C66.2 14.9 66.3 14.9 66.3 14.9 66.4 14.8 66.4 14.7 66.4 14.6 66.4 14.4 66.3 14.3 66.1 14.3L64 14.3 62.4 12.7 67 12.6C67.1 12.6 67.2 12.6 67.2 12.5 67.3 12.4 67.3 12.4 67.3 12.3 67.3 12.1 67.1 12 67 12L61.7 12.1 60.6 11.1 61.3 8 62.8 7.5 67.4 10C67.6 10.1 67.8 10.1 67.9 10 67.9 9.9 67.9 9.9 67.8 9.9 68 9.8 67.9 9.5 67.7 9.4L63.7 7.3 65.9 6.6 67.7 7.5C67.8 7.6 68 7.5 68.1 7.4 68.1 7.4 68.1 7.4 68.1 7.4 68.2 7.3 68.2 7 68 6.9L66.8 6.3 68.4 5.8C68.5 5.8 68.5 5.8 68.5 5.7 68.6 5.6 68.7 5.5 68.6 5.4 68.6 5.2 68.4 5.1 68.2 5.1L66.6 5.6 67.2 4.5C67.3 4.3 67.3 4.1 67.1 4 67 3.9 66.7 4 66.7 4.1L65.7 5.9 63.5 6.6 65.7 2.5C65.8 2.3 65.7 2.1 65.5 2 65.4 2 65.2 2 65.1 2.2ZM58.6 5.8L60.4 7.5 60.7 7.8 60.6 8.2 60 10.5 59.9 10.9 59.6 11 57.2 11.7 56.9 11.8 56.6 11.6 54.8 9.9 54.5 9.6 54.6 9.2 55.1 6.9 55.2 6.5 55.6 6.3 57.9 5.6 58.3 5.5 58.6 5.8Z" fill="rgba(200, 78, 15, 0.75)"></path><path d="M-24.7 6.9L-22.9 6.9-23.5 7.9C-23.5 8-23.5 8.2-23.4 8.3-23.2 8.4-23 8.3-23 8.2L-22.2 6.9-20.6 6.9-22.1 9.6C-22.2 9.8-22.2 10-22 10-21.9 10.1-21.7 10.1-21.6 9.9L-19.9 6.9-18.4 6.8-16.7 9.7-17.3 10.9-21 10.9C-21.1 10.9-21.1 11-21.2 11-21.2 11-21.3 11.1-21.3 11.2-21.3 11.4-21.2 11.5-21 11.5L-17.6 11.5-18.4 12.9-20.1 12.9C-20.2 12.9-20.2 12.9-20.2 12.9-20.3 13-20.4 13.1-20.4 13.2-20.4 13.3-20.3 13.5-20.1 13.5L-18.7 13.4-19.7 15.2C-19.7 15.3-19.7 15.5-19.6 15.6-19.4 15.6-19.2 15.6-19.2 15.5L-18.3 13.8-17.7 14.8C-17.6 15-17.4 15-17.3 14.9-17.1 14.8-17 14.7-17.1 14.5L-17.9 13.2-17.1 11.8-15.5 14.5C-15.4 14.7-15.3 14.7-15.1 14.6-15 14.5-14.9 14.4-15 14.2L-16.8 11.3-16.2 10-12.7 10-12.1 11.1-13.8 14.2C-13.9 14.3-13.8 14.6-13.7 14.6-13.5 14.7-13.4 14.6-13.3 14.5L-11.7 11.7-10.9 13-11.7 14.4C-11.8 14.5-11.7 14.8-11.6 14.8S-11.3 14.8-11.1 14.7L-10.5 13.6-9.5 15.3C-9.4 15.4-9.2 15.4-9.1 15.4-9 15.3-8.9 15.1-9 15L-10 13.3-8.7 13.2C-8.6 13.2-8.5 13.1-8.5 12.9-8.5 12.8-8.6 12.7-8.8 12.7L-10.4 12.7-11.2 11.3-8 11.3C-7.8 11.2-7.7 11.1-7.6 10.9-7.7 10.8-7.8 10.7-7.9 10.7L-11.6 10.8-12.2 9.7-10.6 6.6-9.2 6.6-7.4 9.6C-7.3 9.8-7.2 9.8-7 9.7-6.9 9.6-6.8 9.4-6.9 9.3L-8.5 6.6-6.9 6.6-6.1 7.9C-6 8-5.9 8-5.7 8-5.6 7.9-5.5 7.7-5.6 7.6L-6.2 6.6-4.4 6.5C-4.2 6.5-4.1 6.4-4.1 6.2-4.1 6.1-4.2 5.9-4.4 6L-6.3 6-5.7 4.8C-5.6 4.6-5.7 4.5-5.8 4.4-5.9 4.3-6 4.3-6.1 4.4-6.1 4.4-6.2 4.4-6.2 4.5L-7 6-8.6 6.1-7 3.1C-6.9 2.9-7 2.8-7.1 2.7-7.2 2.6-7.3 2.6-7.4 2.7-7.4 2.7-7.5 2.7-7.5 2.8L-9.3 6.1-10.6 6.1-12.4 3.1-11.6 1.8-8.1 1.8C-7.9 1.8-7.8 1.6-7.9 1.5-7.8 1.3-8 1.2-8.2 1.2L-11.3 1.3-10.6-0.2-9-0.2C-8.9-0.2-8.8-0.3-8.7-0.5-8.8-0.7-8.9-0.8-9-0.8L-10.2-0.8-9.4-2.3C-9.3-2.5-9.4-2.6-9.5-2.7-9.6-2.7-9.7-2.7-9.8-2.7-9.8-2.7-9.8-2.6-9.9-2.6L-10.8-1-11.5-2.2C-11.6-2.3-11.7-2.3-11.9-2.3-12-2.2-12-2-12-1.9L-11.1-0.4-11.8 1.1-13.6-1.9C-13.7-2-13.9-2-14-1.9S-14.2-1.7-14.1-1.5L-12.2 1.7-12.9 2.8-16.3 2.9-17.1 1.6-15.3-1.5C-15.3-1.7-15.3-1.8-15.4-1.9-15.5-2-15.6-2-15.7-1.9-15.8-1.9-15.8-1.8-15.8-1.8L-17.4 1.1-18.2-0.3-17.5-1.8C-17.4-1.9-17.4-2-17.6-2.2-17.7-2.2-17.9-2.2-18-2L-18.6-0.9-19.5-2.4C-19.6-2.5-19.8-2.6-19.9-2.5-20-2.4-20.1-2.2-20-2.1L-19.1-0.6-20.4-0.6C-20.4-0.6-20.5-0.5-20.5-0.5-20.6-0.5-20.7-0.3-20.7-0.3-20.7-0.1-20.5 0-20.4 0.1L-18.8 0-17.9 1.4-21.2 1.5C-21.4 1.4-21.5 1.6-21.5 1.7-21.5 1.9-21.3 2-21.2 2.1L-17.6 2-16.8 3.2-18.5 6.2-19.8 6.3-21.8 3.1C-21.9 2.9-22 2.9-22.1 3-22.3 3-22.3 3.2-22.2 3.3L-20.5 6.3-22.1 6.3-23 4.8C-23.1 4.7-23.3 4.6-23.4 4.7-23.6 4.8-23.6 5-23.5 5.1L-22.8 6.3-24.7 6.3C-24.7 6.4-24.7 6.4-24.8 6.4-24.9 6.4-25 6.6-25 6.6-24.9 6.8-24.8 6.9-24.7 6.9ZM-16.5 3.8L-16.3 3.5-16 3.5-13.2 3.4-12.8 3.4-12.7 3.7-11.2 6.1-11.1 6.3-11.2 6.6-12.6 9.1-12.7 9.4-13.1 9.4-15.8 9.4-16.2 9.4-16.4 9.2-17.8 6.8-18 6.5-17.8 6.2-16.5 3.8Z" fill="rgba(200, 78, 15, 0.75)"></path><path d="M79.4-0.5L80.7 2.4 80.3 3.5 79.8 2.5C79.8 2.4 79.7 2.3 79.6 2.4 79.5 2.4 79.4 2.5 79.5 2.6L80 4 79.6 5.1 78.9 4.2 79.1 2.7C79.1 2.7 79.1 2.6 79.1 2.6 79.1 2.6 79 2.5 78.9 2.5 78.8 2.5 78.7 2.5 78.7 2.6L78.6 3.7 77.9 2.8 78.2-0.4C78.2-0.4 78.3-0.4 78.3-0.4 78.2-0.5 78.2-0.5 78.1-0.6 77.9-0.6 77.8-0.5 77.9-0.4L77.5 2.4 76.7 1.3 76.8 0.1C76.8 0.1 76.8 0.1 76.8 0 76.8-0.1 76.7-0.1 76.6-0.2 76.5-0.1 76.4-0.1 76.4 0L76.3 0.9 75.7 0.1C75.6 0 75.5 0 75.4 0 75.3 0.1 75.3 0.2 75.4 0.3L76 1.1 75.2 1C75.1 1 75 1.1 75 1.2 75 1.3 75 1.4 75.1 1.4L76.4 1.5 77.2 2.6 74.4 2.3C74.3 2.3 74.2 2.4 74.2 2.5 74.2 2.6 74.3 2.7 74.4 2.7L77.6 3.1 78.3 4 77.2 3.8C77.1 3.8 77 3.9 77 4 77 4.1 77.1 4.2 77.1 4.3L78.6 4.4 79.4 5.3 78.2 5.5 77 4.6C76.9 4.5 76.8 4.6 76.8 4.6 76.7 4.7 76.7 4.9 76.8 4.9L77.7 5.6 76.5 5.7 74 3.8C73.9 3.7 73.7 3.8 73.7 3.9 73.6 3.9 73.6 4.1 73.7 4.1L76 5.8 74.6 6 73.6 5.3C73.5 5.2 73.4 5.2 73.3 5.3 73.3 5.4 73.3 5.5 73.4 5.6L74 6.1 73 6.3C72.9 6.3 72.8 6.4 72.9 6.5 72.9 6.6 73 6.7 73.1 6.7L74.1 6.5 73.6 7.1C73.5 7.2 73.6 7.3 73.6 7.4S73.9 7.5 73.9 7.4L74.6 6.4 76 6.2 74.4 8.4C74.3 8.5 74.3 8.6 74.4 8.7 74.5 8.8 74.6 8.8 74.7 8.7L76.6 6.1 77.7 6 77.1 6.8C77 6.9 77 7 77.1 7.1 77.2 7.2 77.3 7.1 77.4 7.1L78.3 5.9 79.4 5.7 79 6.7 77.6 7.3C77.5 7.4 77.5 7.5 77.5 7.6 77.6 7.7 77.7 7.7 77.8 7.7L78.8 7.3 78.4 8.3 75.4 9.6C75.3 9.7 75.3 9.8 75.3 9.9 75.4 10 75.5 10 75.6 10L78.2 8.9 77.6 10.2 76.5 10.7C76.4 10.7 76.4 10.8 76.4 10.9 76.5 11 76.6 11.1 76.7 11L77.4 10.7 77.1 11.6C77 11.7 77.1 11.8 77.2 11.9 77.3 11.9 77.4 11.9 77.4 11.8L77.8 10.8 78.1 11.6C78.2 11.7 78.3 11.7 78.4 11.7 78.5 11.7 78.5 11.6 78.5 11.5 78.5 11.5 78.5 11.5 78.5 11.4L78 10.3 78.5 9 79.7 11.6C79.7 11.7 79.8 11.7 79.9 11.7 80 11.6 80 11.6 80 11.5 80 11.4 80 11.4 80 11.4L78.7 8.5 79.2 7.4 79.6 8.4C79.6 8.5 79.7 8.6 79.8 8.5 79.9 8.5 80 8.4 80 8.3 80 8.3 80 8.3 80 8.2L79.4 6.9 79.8 5.8 80.5 6.7 80.3 8.2C80.3 8.3 80.4 8.4 80.5 8.5 80.6 8.4 80.7 8.4 80.7 8.3L80.8 7.2 81.6 8 81.2 11.3C81.2 11.3 81.3 11.5 81.3 11.5 81.5 11.5 81.6 11.4 81.6 11.3L81.9 8.5 82.8 9.6 82.6 10.8C82.6 10.9 82.7 11 82.8 11 82.9 11 83 11 83 10.9L83.1 10 83.7 10.8C83.8 10.9 83.9 10.9 84 10.9 84.1 10.8 84.1 10.7 84.1 10.7 84.1 10.7 84.1 10.6 84.1 10.6L83.4 9.8 84.3 9.9C84.3 9.9 84.4 9.8 84.5 9.7 84.5 9.7 84.5 9.7 84.5 9.7 84.4 9.6 84.4 9.5 84.3 9.5L83.1 9.4 82.2 8.3 85 8.6C85.1 8.6 85.2 8.5 85.2 8.4 85.2 8.4 85.2 8.3 85.2 8.3 85.2 8.3 85.1 8.2 85 8.2L81.8 7.8 81.1 6.9 82.2 7.1C82.3 7 82.4 7 82.4 6.9 82.5 6.9 82.5 6.8 82.5 6.8 82.4 6.7 82.4 6.7 82.3 6.6L80.8 6.5 80.1 5.6 81.2 5.4 82.4 6.3C82.5 6.4 82.6 6.3 82.7 6.3 82.7 6.2 82.7 6.1 82.7 6L81.8 5.3 82.9 5.2 85.4 7.1C85.5 7.1 85.7 7.1 85.7 7 85.8 6.9 85.8 6.8 85.7 6.7L83.5 5.1 84.8 4.9 85.8 5.6C85.9 5.7 86 5.6 86.1 5.5S86.1 5.3 86 5.3L85.4 4.8 86.4 4.7C86.5 4.6 86.6 4.5 86.5 4.4 86.5 4.3 86.4 4.2 86.3 4.3L85.3 4.4 85.8 3.7C85.8 3.7 85.9 3.6 85.9 3.6 85.9 3.6 85.8 3.5 85.8 3.5 85.7 3.4 85.5 3.4 85.5 3.5L84.8 4.5 83.4 4.7 85 2.4C85.1 2.4 85.1 2.3 85.1 2.3 85.1 2.3 85 2.2 85 2.2 84.9 2.1 84.8 2.1 84.7 2.2L82.8 4.8 81.7 5 82.4 4.1C82.4 4 82.4 4 82.4 3.9 82.4 3.9 82.4 3.8 82.3 3.8 82.2 3.7 82.1 3.8 82.1 3.8L81.1 5 80 5.2 80.4 4.1 81.8 3.6C81.9 3.5 81.9 3.4 81.9 3.3 81.9 3.3 81.9 3.3 81.9 3.3 81.9 3.2 81.7 3.1 81.6 3.2L80.6 3.6 81 2.5 84 1.3C84.1 1.2 84.1 1.2 84.1 1.1 84.1 1 84.1 1 84.1 1 84 0.9 83.9 0.9 83.8 0.9L81.3 2 81.8 0.7 82.9 0.2C83 0.2 83 0.1 83 0 83 0 83 0 83 0 82.9-0.1 82.8-0.2 82.7-0.1L82 0.2 82.4-0.7C82.4-0.8 82.4-0.8 82.4-0.9 82.4-0.9 82.3-1 82.3-1 82.1-1 82-1 82-0.9L81.6 0.1 81.3-0.7C81.2-0.8 81.1-0.8 81-0.8 80.9-0.8 80.9-0.6 80.9-0.5L81.4 0.6 80.9 1.9 79.8-0.7C79.7-0.8 79.6-0.8 79.5-0.8 79.4-0.7 79.4-0.6 79.4-0.5Z" fill="rgba(200, 78, 15, 0.75)"></path><path d="M28.9-12.9L30.3-13.5 30.2-12.5C30.2-12.4 30.3-12.3 30.5-12.2 30.6-12.3 30.7-12.3 30.7-12.5L30.8-13.8 32.1-14.4 31.9-11.7C31.9-11.5 32-11.4 32.1-11.4 32.2-11.4 32.4-11.4 32.4-11.6L32.6-14.6 33.7-15.2 36.2-13.5 36.1-12.4 33.2-11.1C33.2-11 33.1-11 33.1-10.9 33.1-10.9 33.1-10.8 33.1-10.7 33.1-10.6 33.3-10.5 33.4-10.6L36.1-11.8 35.9-10.5 34.6-9.8C34.6-9.8 34.5-9.8 34.5-9.7 34.5-9.7 34.4-9.6 34.5-9.5 34.5-9.4 34.7-9.3 34.8-9.4L35.9-9.9 35.8-8.2C35.8-8.1 35.8-8 36-7.9 36.1-7.9 36.2-8 36.3-8.1L36.4-9.8 37.2-9.2C37.3-9.1 37.5-9.2 37.5-9.2 37.6-9.4 37.6-9.5 37.5-9.6L36.4-10.3 36.6-11.7 38.8-10.2C38.9-10.1 39-10.1 39.1-10.3 39.2-10.4 39.2-10.5 39-10.6L36.6-12.3 36.6-13.5 39.3-14.7 40.2-14.1 40-11.1C40-10.9 40.1-10.8 40.2-10.8 40.4-10.7 40.4-10.9 40.5-11L40.7-13.8 41.8-13 41.7-11.6C41.7-11.5 41.8-11.4 41.9-11.3S42.2-11.5 42.2-11.6L42.3-12.7 43.7-11.7C43.8-11.6 44-11.7 44.1-11.8 44.1-11.9 44.1-12.1 44-12.1L42.6-13.1 43.6-13.6C43.7-13.6 43.8-13.8 43.7-13.9 43.7-14 43.5-14.1 43.4-14L42.1-13.4 41-14.2 43.5-15.4C43.6-15.5 43.7-15.6 43.6-15.8 43.6-15.9 43.4-15.9 43.3-15.9L40.5-14.5 39.6-15.2 39.8-18.1 40.9-18.6 43.4-16.9C43.5-16.8 43.6-16.8 43.7-17 43.8-17.1 43.8-17.3 43.7-17.3L41.4-18.8 42.7-19.5 43.7-18.7C43.9-18.6 44-18.7 44.1-18.8 44.2-18.9 44.1-19 44-19.1L43.2-19.7 44.6-20.4C44.7-20.4 44.8-20.6 44.7-20.7 44.7-20.8 44.5-20.9 44.4-20.8L42.9-20.1 43-21.3C43-21.4 42.9-21.5 42.8-21.6 42.7-21.6 42.6-21.5 42.5-21.4 42.5-21.4 42.5-21.4 42.5-21.3L42.4-19.9 41.1-19.2 41.3-22.1C41.3-22.3 41.3-22.4 41.1-22.4 41-22.4 40.9-22.4 40.9-22.3 40.9-22.3 40.8-22.2 40.8-22.2L40.6-19 39.6-18.5 37.2-20.2 37.3-21.5 40-22.8C40.1-22.8 40.2-23 40.1-23.1 40.1-23.2 39.9-23.3 39.8-23.2L37.3-22 37.4-23.4 38.6-24C38.7-24 38.7-24.2 38.7-24.3 38.6-24.4 38.5-24.5 38.4-24.4L37.5-24 37.6-25.5C37.6-25.7 37.5-25.7 37.3-25.8 37.3-25.8 37.2-25.7 37.1-25.6 37.1-25.6 37.1-25.6 37.1-25.6L37-23.9 36-24.6C35.9-24.7 35.7-24.7 35.6-24.6 35.6-24.4 35.6-24.3 35.7-24.2L36.9-23.4 36.8-22 34.4-23.6C34.3-23.7 34.1-23.7 34.1-23.5S34-23.3 34.1-23.2L36.8-21.4 36.7-20.2 34-19 33-19.7 33.2-22.8C33.2-22.9 33.1-23 33-23.1 32.9-23.1 32.8-23 32.8-22.9 32.7-22.9 32.7-22.8 32.7-22.8L32.5-20 31.4-20.8 31.4-22.2C31.5-22.3 31.4-22.4 31.2-22.5 31.1-22.4 31-22.3 31-22.2L30.9-21.1 29.6-22C29.5-22 29.3-22 29.3-21.9 29.2-21.8 29.2-21.6 29.3-21.5L30.6-20.7 29.6-20.3C29.6-20.2 29.5-20.2 29.5-20.1 29.5-20.1 29.5-20 29.5-19.9 29.6-19.8 29.7-19.7 29.8-19.7L31.1-20.4 32.2-19.6 29.7-18.4C29.6-18.3 29.5-18.2 29.6-18.1 29.6-17.9 29.8-17.9 29.9-17.9L32.7-19.2 33.7-18.5 33.5-15.6 32.5-15.1 29.8-16.9C29.7-17 29.6-17 29.5-16.8 29.4-16.7 29.4-16.6 29.5-16.5L32-14.9 30.7-14.3 29.5-15.1C29.4-15.2 29.2-15.1 29.1-15 29-14.9 29.1-14.7 29.2-14.7L30.2-14 28.7-13.3C28.7-13.3 28.7-13.3 28.6-13.2 28.6-13.2 28.6-13.1 28.6-13 28.7-12.9 28.8-12.8 28.9-12.9ZM34.2-18.2L34.2-18.5 34.5-18.7 36.7-19.7 36.9-19.8 37.1-19.6 39.1-18.3 39.3-18.1 39.3-17.9 39.1-15.5 39.1-15.2 38.8-15 36.7-14.1 36.4-13.9 36.2-14.1 34.2-15.4 34-15.6 34.1-15.9 34.2-18.2Z" fill="rgba(200, 78, 15, 0.75)"></path><path d="M104.7-14.4L104.4-17.6 105.1-18.5 105.2-17.4C105.2-17.3 105.3-17.2 105.4-17.2 105.5-17.3 105.6-17.4 105.6-17.5L105.5-18.9 106.2-19.8 106.6-18.8 106-17.4C106-17.4 106-17.4 106-17.4 105.9-17.3 106-17.2 106.1-17.1 106.2-17.1 106.3-17.1 106.3-17.3L106.8-18.2 107.2-17.2 105.9-14.2C105.9-14.2 105.9-14.2 105.9-14.2 105.9-14.1 105.9-14 106-14 106.1-13.9 106.2-14 106.3-14.1L107.4-16.7 107.9-15.4 107.4-14.2C107.4-14.2 107.4-14.2 107.4-14.2 107.4-14.1 107.4-14 107.5-14 107.6-13.9 107.7-14 107.8-14.1L108.1-14.8 108.5-13.9C108.5-13.8 108.6-13.7 108.7-13.8 108.8-13.8 108.9-13.9 108.8-14L108.5-15 109.2-14.6C109.3-14.6 109.5-14.6 109.5-14.8 109.5-14.9 109.5-14.9 109.4-15L108.3-15.5 107.8-16.8 110.3-15.7C110.4-15.6 110.6-15.7 110.6-15.8 110.6-15.9 110.6-16 110.5-16.1L107.6-17.3 107.2-18.4 108.1-18C108.3-17.9 108.4-18 108.4-18.1 108.5-18.1 108.4-18.3 108.3-18.3L107-18.9 106.5-20 107.7-19.8 108.5-18.6C108.6-18.5 108.7-18.5 108.8-18.6 108.9-18.6 108.9-18.8 108.9-18.9L108.2-19.7 109.4-19.5 111.2-17C111.3-16.9 111.4-16.8 111.5-16.9 111.6-17 111.6-17.1 111.6-17.2L109.9-19.5 111.3-19.3 112-18.3C112.1-18.2 112.2-18.1 112.3-18.2 112.4-18.3 112.4-18.4 112.3-18.5L111.9-19.2 112.8-19C113-19 113.1-19.1 113.1-19.2 113.1-19.3 113-19.4 112.9-19.4L111.9-19.6 112.6-20C112.6-20.1 112.7-20.2 112.6-20.3S112.4-20.4 112.3-20.3L111.4-19.6 110-19.9 112.2-21.5C112.3-21.6 112.3-21.7 112.3-21.8 112.2-21.9 112.1-21.9 112-21.8L109.4-19.9 108.3-20.1 109.1-20.8C109.2-20.8 109.3-20.9 109.2-21 109.1-21.1 109-21.1 108.9-21.1L107.7-20.2 106.6-20.4 107.3-21.2 108.8-21.4C108.9-21.4 109-21.5 109-21.6 108.9-21.8 108.9-21.8 108.7-21.8L107.7-21.7 108.4-22.6 111.5-22.9C111.7-23 111.7-23 111.7-23.1 111.7-23.3 111.6-23.3 111.5-23.3L108.7-23 109.6-24.1 110.8-24.3C110.9-24.2 111-24.4 111-24.5 111-24.6 110.9-24.7 110.8-24.6L110-24.6 110.6-25.3C110.7-25.4 110.6-25.5 110.5-25.6 110.5-25.7 110.3-25.7 110.3-25.6L109.6-24.8 109.6-25.6C109.5-25.7 109.4-25.8 109.3-25.8 109.2-25.8 109.2-25.7 109.2-25.6 109.2-25.6 109.2-25.6 109.2-25.6L109.3-24.4 108.4-23.3 108.1-26.1C108.1-26.2 108-26.2 107.9-26.2 107.8-26.2 107.7-26.1 107.7-26.1 107.7-26 107.7-26 107.7-26L108-22.8 107.3-22 107.2-23C107.2-23.2 107.1-23.2 107-23.2 106.9-23.2 106.8-23.1 106.8-23 106.8-23 106.8-23 106.8-23L107-21.5 106.3-20.6 105.9-21.7 106.5-23C106.5-23.1 106.5-23.3 106.4-23.3 106.3-23.3 106.1-23.3 106.1-23.2L105.7-22.2 105.2-23.3 106.5-26.2C106.6-26.3 106.5-26.4 106.5-26.5 106.3-26.5 106.2-26.5 106.2-26.3L105-23.8 104.6-25.1 105-26.2C105.1-26.3 105-26.4 104.9-26.5 104.8-26.5 104.7-26.5 104.7-26.4L104.3-25.6 104-26.6C103.9-26.6 103.8-26.7 103.7-26.7 103.7-26.7 103.6-26.6 103.6-26.5 103.6-26.5 103.6-26.5 103.6-26.4L104-25.5 103.2-25.8C103.1-25.8 103-25.8 102.9-25.7 102.9-25.7 102.9-25.7 102.9-25.7 102.9-25.6 103-25.5 103.1-25.4L104.2-25 104.7-23.7 102.1-24.8C102-24.8 101.9-24.8 101.9-24.7 101.9-24.7 101.8-24.6 101.8-24.6 101.8-24.5 101.9-24.5 102-24.4L104.9-23.1 105.3-22.1 104.3-22.5C104.2-22.5 104.1-22.5 104.1-22.4 104-22.4 104-22.3 104-22.3 104-22.3 104.1-22.2 104.1-22.1L105.5-21.6 105.9-20.5 104.8-20.6 103.9-21.8C103.9-21.9 103.7-22 103.6-21.9 103.6-21.8 103.5-21.7 103.6-21.6L104.2-20.7 103.1-20.9 101.2-23.5C101.2-23.6 101-23.6 100.9-23.5 100.9-23.4 100.8-23.3 100.9-23.2L102.5-21 101.2-21.2 100.5-22.2C100.4-22.3 100.3-22.3 100.2-22.2S100.1-22 100.1-21.9L100.6-21.3 99.6-21.4C99.5-21.5 99.4-21.4 99.4-21.3 99.4-21.2 99.4-21.1 99.6-21L100.5-20.9 99.9-20.4C99.9-20.4 99.8-20.3 99.8-20.3 99.8-20.2 99.8-20.2 99.9-20.1 99.9-20 100-20 100.1-20.1L101.1-20.8 102.5-20.6 100.2-18.9C100.2-18.9 100.2-18.9 100.1-18.8 100.1-18.8 100.2-18.7 100.2-18.6 100.3-18.6 100.4-18.5 100.5-18.6L103-20.5 104.2-20.3 103.3-19.7C103.2-19.7 103.2-19.6 103.2-19.6 103.2-19.5 103.2-19.5 103.2-19.4 103.3-19.3 103.5-19.3 103.5-19.4L104.7-20.3 105.8-20.1 105.1-19.2 103.7-19C103.6-19 103.5-18.9 103.5-18.9 103.5-18.8 103.5-18.8 103.5-18.8 103.5-18.7 103.6-18.6 103.7-18.6L104.8-18.7 104.1-17.8 100.9-17.5C100.8-17.5 100.7-17.4 100.7-17.3 100.7-17.3 100.7-17.3 100.7-17.3 100.7-17.2 100.8-17.1 100.9-17.1L103.7-17.4 102.8-16.3 101.6-16.2C101.5-16.2 101.5-16.1 101.5-16 101.5-16 101.5-16 101.5-16 101.5-15.9 101.6-15.8 101.7-15.8L102.5-15.9 101.8-15.1C101.8-15.1 101.8-15 101.8-15 101.8-15 101.8-14.9 101.9-14.8 102-14.8 102.1-14.7 102.2-14.9L102.8-15.7 102.9-14.8C102.9-14.7 103-14.6 103.1-14.6 103.2-14.7 103.3-14.8 103.3-14.9L103.2-16.1 104-17.2 104.3-14.4C104.3-14.3 104.5-14.2 104.5-14.2 104.7-14.2 104.8-14.3 104.7-14.4Z" fill="rgba(200, 78, 15, 0.75)"></path><path d="M1.1-15.1L-1.3-14-3.6-14.9-1.7-16.4 0.9-16.1C0.9-16.1 0.9-16.1 0.9-16.1 1-16.1 1.1-16.2 1.1-16.2 1.1-16.3 1-16.4 0.9-16.4L-1.4-16.6-0.5-17.4 0.5-17.3C0.5-17.3 0.6-17.3 0.6-17.3 0.6-17.3 0.7-17.4 0.7-17.4 0.7-17.5 0.6-17.6 0.5-17.6L-0.2-17.7 0.5-18.2C0.6-18.3 0.6-18.4 0.5-18.4 0.5-18.5 0.3-18.5 0.3-18.5L-0.4-17.9-0.3-18.6C-0.3-18.7-0.4-18.8-0.4-18.8-0.5-18.8-0.6-18.7-0.6-18.6L-0.7-17.6-1.6-16.9-1.4-19.2C-1.3-19.3-1.4-19.4-1.5-19.4-1.6-19.4-1.7-19.3-1.7-19.3L-2-16.6-3.8-15.1-4.2-17.5-2.6-19.6C-2.6-19.7-2.6-19.8-2.7-19.9-2.7-19.9-2.8-19.9-2.9-19.8L-4.3-17.9-4.4-19.1-3.9-19.9C-3.8-19.9-3.8-20-3.9-20.1-4-20.1-4.1-20.1-4.1-20L-4.5-19.5-4.7-20.4C-4.7-20.5-4.8-20.5-4.9-20.5-4.9-20.5-5-20.4-5-20.3L-4.8-19.5-5.4-19.9C-5.5-20-5.6-19.9-5.6-19.9S-5.7-19.7-5.6-19.6L-4.8-19.1-4.6-17.9-6.5-19.3C-6.6-19.3-6.7-19.3-6.7-19.3-6.8-19.2-6.8-19.1-6.7-19L-4.5-17.5-4.1-15.1-6.3-16-7.4-18.3C-7.5-18.4-7.6-18.4-7.7-18.4-7.7-18.4-7.8-18.3-7.7-18.2L-6.8-16.1-7.8-16.5-8.3-17.4C-8.3-17.5-8.4-17.5-8.5-17.5-8.6-17.5-8.6-17.4-8.6-17.3L-8.3-16.7-9.1-17C-9.2-17-9.3-17-9.3-16.9-9.3-16.8-9.3-16.7-9.2-16.6L-8.4-16.4-9-16.1C-9.1-16-9.1-15.9-9.1-15.8-9.1-15.8-9-15.7-9-15.7-9-15.7-8.9-15.7-8.9-15.7L-8-16.2-6.9-15.8-9-14.8C-9.1-14.7-9.1-14.6-9.1-14.6-9.1-14.5-9-14.5-8.9-14.5-8.9-14.5-8.9-14.5-8.9-14.5L-6.5-15.6-4.3-14.8-6.1-13.3-8.8-13.5C-8.9-13.6-8.9-13.5-8.9-13.4-8.9-13.3-8.9-13.2-8.8-13.2L-6.5-13-7.3-12.2-8.4-12.3C-8.5-12.4-8.5-12.3-8.5-12.2-8.5-12.1-8.5-12-8.4-12L-7.7-11.9-8.3-11.4C-8.4-11.4-8.4-11.2-8.4-11.2-8.3-11.1-8.2-11.1-8.2-11.1-8.2-11.1-8.1-11.1-8.1-11.1L-7.4-11.7-7.5-11C-7.5-10.9-7.5-10.8-7.4-10.8-7.4-10.8-7.3-10.8-7.3-10.8-7.3-10.8-7.2-10.9-7.2-11L-7.1-12-6.2-12.7-6.5-10.4C-6.5-10.3-6.4-10.2-6.3-10.2-6.3-10.2-6.3-10.3-6.3-10.3-6.2-10.3-6.1-10.3-6.1-10.4L-5.8-13-4-14.5-3.6-12.2-5.2-10C-5.2-10-5.2-9.9-5.2-9.8-5.1-9.8-5-9.8-4.9-9.9L-3.6-11.7-3.4-10.6-3.9-9.8C-4-9.7-4-9.6-3.9-9.6S-3.7-9.5-3.7-9.6L-3.3-10.2-3.2-9.3C-3.1-9.2-3.1-9.2-3-9.2-2.9-9.2-2.8-9.3-2.8-9.4L-3-10.2-2.4-9.8C-2.4-9.8-2.4-9.8-2.3-9.8S-2.2-9.8-2.2-9.9C-2.1-9.9-2.1-10-2.2-10.1L-3-10.7-3.2-11.8-1.3-10.4C-1.3-10.4-1.2-10.4-1.2-10.4-1.1-10.4-1.1-10.4-1-10.5-1-10.5-1-10.6-1.1-10.7L-3.3-12.2-3.6-14.6-1.4-13.7-0.3-11.3C-0.3-11.3-0.2-11.2-0.1-11.2-0.1-11.2-0.1-11.2-0.1-11.2 0-11.3 0-11.4 0-11.5L-1-13.6 0.1-13.2 0.5-12.2C0.6-12.2 0.6-12.1 0.7-12.1 0.7-12.1 0.7-12.1 0.7-12.1 0.8-12.2 0.8-12.3 0.8-12.3L0.5-13 1.3-12.7C1.3-12.7 1.4-12.7 1.4-12.7 1.5-12.7 1.5-12.7 1.6-12.8 1.6-12.9 1.6-13 1.5-13L0.7-13.3 1.3-13.6C1.4-13.6 1.4-13.7 1.4-13.8 1.3-13.9 1.2-13.9 1.2-13.9L0.2-13.5-0.8-13.9 1.3-14.8C1.4-14.9 1.4-15 1.4-15.1 1.3-15.1 1.2-15.2 1.1-15.1Z" fill="rgba(200, 78, 15, 0.75)"></path><path d="M73.4-23.6L72.7-19.7 71.8-19 69.6-20.1 69.4-21.2 72-24.2C72.1-24.3 72.1-24.3 72.1-24.3 72.1-24.4 72.1-24.5 72-24.6 71.9-24.7 71.8-24.7 71.7-24.6L69.4-21.9 69.3-23.6 70.2-24.8C70.2-24.8 70.3-24.8 70.3-24.8 70.3-24.9 70.3-25 70.2-25.1 70.1-25.2 69.9-25.2 69.8-25.1L69.2-24.3 69.1-25.6C69.1-25.7 69-25.8 68.8-25.8S68.6-25.7 68.6-25.5L68.7-24.3 67.9-24.9C67.8-25 67.6-25 67.5-24.9 67.5-24.8 67.5-24.7 67.6-24.6L68.8-23.6 68.9-21.8 66.2-24.1C66.1-24.2 66-24.1 65.9-24.1 65.8-23.9 65.8-23.8 65.9-23.7L69-21.2 69.1-20 67.1-18.6 66-19.1 64.7-22.8C64.6-23 64.5-23 64.4-23S64.2-22.8 64.2-22.7L65.4-19.4 63.8-20.2 63.3-21.6C63.3-21.7 63.1-21.8 63-21.7S62.8-21.6 62.8-21.4L63.2-20.4 62-21C61.9-21.1 61.8-21 61.7-20.8 61.6-20.7 61.7-20.6 61.8-20.5L63-20 62-19.6C61.9-19.6 61.8-19.5 61.9-19.3 61.9-19.2 62.1-19.1 62.2-19.2L63.6-19.7 65.2-18.9 61.9-17.8C61.8-17.7 61.7-17.5 61.8-17.4S61.9-17.2 62.1-17.3L65.8-18.6 66.9-18.2 67.1-15.7 66.1-15.1 62.2-15.8C62.1-15.8 62-15.7 61.9-15.6 61.9-15.4 62-15.3 62.1-15.3L65.6-14.7 64.1-13.7 62.6-14C62.5-14 62.4-13.9 62.3-13.8 62.3-13.7 62.4-13.5 62.6-13.5L63.5-13.3 62.5-12.6C62.4-12.5 62.4-12.3 62.4-12.2 62.6-12.1 62.7-12.1 62.8-12.2L63.8-12.9 63.7-11.9C63.7-11.8 63.8-11.6 63.9-11.6 64-11.6 64.1-11.6 64.1-11.8 64.1-11.8 64.2-11.8 64.2-11.8L64.4-13.3 65.9-14.3 65.3-10.9C65.2-10.7 65.3-10.6 65.4-10.6 65.6-10.5 65.7-10.6 65.7-10.7 65.7-10.7 65.7-10.7 65.7-10.7L66.4-14.7 67.3-15.3 69.6-14.3 69.6-13.2 67.1-10.1C67-10 67-9.9 67.1-9.8 67.2-9.7 67.4-9.7 67.5-9.8L69.7-12.5 69.9-10.8 68.9-9.6C68.8-9.5 68.8-9.3 68.9-9.3 69-9.2 69.2-9.2 69.3-9.2L69.9-10.1 70-8.8C70.1-8.7 70.2-8.6 70.3-8.5 70.4-8.6 70.5-8.6 70.5-8.7 70.5-8.8 70.5-8.8 70.5-8.8L70.4-10.1 71.2-9.4C71.3-9.3 71.5-9.4 71.5-9.5 71.6-9.5 71.6-9.5 71.6-9.5 71.6-9.6 71.6-9.7 71.5-9.8L70.4-10.8 70.2-12.5 72.9-10.3C73-10.2 73.2-10.2 73.2-10.3 73.3-10.3 73.3-10.3 73.3-10.4 73.3-10.5 73.3-10.6 73.2-10.7L70.1-13.2 70.1-14.3 72-15.7 73-15.3 74.4-11.5C74.5-11.4 74.6-11.3 74.8-11.3S75-11.6 74.9-11.7L73.7-15 75.3-14.2 75.8-12.8C75.9-12.7 76-12.6 76.1-12.7 76.2-12.7 76.3-12.8 76.3-13L75.9-13.9 77.1-13.4C77.2-13.3 77.3-13.4 77.4-13.5 77.5-13.6 77.4-13.8 77.3-13.9L76.1-14.4 77.1-14.8C77.2-14.8 77.2-14.8 77.2-14.8 77.3-14.9 77.3-15 77.2-15.1 77.2-15.2 77.1-15.2 76.9-15.2L75.5-14.7 73.9-15.4 77.2-16.6C77.3-16.6 77.3-16.7 77.3-16.8 77.4-16.8 77.4-16.8 77.4-16.9 77.3-17 77.1-17.1 77-17.1L73.3-15.7 72.3-16.2 72.1-18.6 73-19.3 76.9-18.5C77-18.6 77.1-18.6 77.2-18.7 77.2-18.7 77.2-18.7 77.2-18.7 77.2-18.9 77.1-19 77-19L73.5-19.6 75-20.7 76.5-20.4C76.6-20.4 76.7-20.5 76.7-20.5 76.7-20.5 76.7-20.6 76.7-20.6 76.8-20.7 76.7-20.9 76.6-20.9L75.5-21 76.6-21.8C76.6-21.8 76.6-21.8 76.7-21.9 76.7-22 76.7-22.1 76.7-22.1 76.6-22.3 76.4-22.3 76.3-22.2L75.3-21.5 75.5-22.5C75.5-22.6 75.4-22.8 75.2-22.8 75.1-22.8 75-22.7 75-22.6L74.7-21.1 73.3-20.1 73.9-23.5C73.9-23.7 73.8-23.8 73.7-23.8 73.5-23.8 73.4-23.7 73.4-23.6ZM69.6-19.5L71.3-18.7 71.6-18.6 71.6-18.3 71.7-16.5 71.7-16.1 71.5-16 70-14.9 69.8-14.8 69.5-14.9 67.8-15.7 67.6-15.8 67.5-16.1 67.4-17.9 67.4-18.2 67.6-18.4 69.1-19.4 69.3-19.6 69.6-19.5Z" fill="rgba(200, 78, 15, 0.75)"></path><path d="M99 11.4L98.6 12.6 98 12C97.9 11.9 97.8 11.9 97.7 12 97.6 12.1 97.6 12.2 97.7 12.3L98.4 13.1 98 14.2 96.5 12.5C96.4 12.4 96.3 12.4 96.2 12.5 96.1 12.5 96.1 12.7 96.2 12.8L97.9 14.6 97.6 15.6 95.2 16.1 94.5 15.5 95.4 12.9C95.4 12.9 95.4 12.9 95.4 12.8 95.4 12.8 95.3 12.7 95.3 12.7 95.1 12.6 95 12.7 95 12.8L94.2 15.1 93.5 14.2 93.8 13.1C93.9 13.1 93.9 13 93.9 13 93.8 12.9 93.8 12.8 93.7 12.8 93.6 12.8 93.5 12.9 93.4 12.9L93.2 13.9 92.2 12.8C92.1 12.8 92 12.8 91.9 12.8 91.8 12.9 91.8 13 91.9 13.1L92.8 14.1 92 14.3C91.8 14.3 91.8 14.4 91.8 14.5 91.8 14.6 91.9 14.7 92.1 14.7L93.1 14.5 93.9 15.4 91.7 15.8C91.6 15.8 91.5 15.9 91.5 16 91.5 16.2 91.6 16.2 91.8 16.2L94.2 15.7 94.9 16.4 94.1 18.7 93.2 18.9 91.5 17C91.4 16.9 91.3 16.9 91.2 17 91.1 17.1 91.1 17.2 91.2 17.3L92.7 19 91.6 19.3 90.8 18.4C90.8 18.3 90.6 18.3 90.5 18.4S90.5 18.6 90.5 18.7L91.1 19.4 89.7 19.7C89.6 19.7 89.6 19.8 89.6 19.9 89.6 20 89.7 20.1 89.8 20.1L91.2 19.8 90.9 20.7C90.9 20.8 90.9 20.9 91.1 20.9 91.2 20.9 91.3 20.9 91.3 20.8L91.7 19.7 92.8 19.5 92.1 21.7C92.1 21.8 92.1 21.9 92.2 21.9 92.3 22 92.5 21.9 92.5 21.8L93.3 19.4 94.2 19.2 95.8 21 95.5 21.9 93.1 22.4C92.9 22.5 92.9 22.5 92.9 22.7 92.9 22.8 93 22.9 93.2 22.9L95.3 22.4 95 23.5 94 23.7C93.8 23.7 93.8 23.8 93.8 23.9 93.8 24.1 93.9 24.1 94 24.1L94.9 23.9 94.4 25.2C94.4 25.3 94.5 25.4 94.6 25.5 94.7 25.5 94.8 25.5 94.8 25.3L95.3 24 95.9 24.7C96 24.8 96.1 24.8 96.2 24.7 96.3 24.7 96.3 24.6 96.3 24.5 96.3 24.5 96.3 24.5 96.2 24.5L95.4 23.5 95.8 22.4 97.4 24.2C97.5 24.3 97.6 24.3 97.7 24.2 97.7 24.2 97.8 24.1 97.7 24.1 97.7 24 97.7 24 97.7 23.9L95.9 22 96.2 21.1 98.6 20.6 99.3 21.4 98.5 23.8C98.5 23.9 98.6 24 98.7 24 98.8 24.1 98.9 24 98.9 23.9L99.6 21.7 100.4 22.6 100.1 23.6C100 23.7 100.1 23.8 100.2 23.9 100.3 23.9 100.4 23.9 100.5 23.8L100.7 23 101.6 23.9C101.7 24 101.8 24 101.9 23.9 101.9 23.9 101.9 23.8 101.9 23.7 101.9 23.7 101.9 23.7 101.9 23.6L101 22.6 102 22.4C102.1 22.4 102.2 22.3 102.1 22.2 102.1 22.1 102 22 101.9 22L100.7 22.3 99.9 21.4 102.3 20.9C102.4 20.9 102.4 20.8 102.4 20.7S102.3 20.5 102.2 20.5L99.6 21.1 98.9 20.3 99.7 18 100.7 17.8 102.4 19.7C102.5 19.8 102.6 19.8 102.8 19.7 102.8 19.7 102.8 19.6 102.8 19.5 102.8 19.5 102.8 19.4 102.7 19.4L101.2 17.7 102.3 17.5 103.1 18.3C103.2 18.4 103.3 18.4 103.4 18.3 103.5 18.2 103.5 18.1 103.4 18L102.8 17.4 104 17.1C104.1 17.1 104.2 16.9 104.2 16.9 104.2 16.7 104 16.6 104 16.7L102.7 16.9 103 16.1C103 16 103 16 103 16 103 15.9 102.9 15.8 102.9 15.8 102.7 15.8 102.6 15.8 102.6 15.9L102.2 17 101.1 17.3 101.8 15.1C101.9 14.9 101.8 14.8 101.7 14.8 101.6 14.7 101.5 14.8 101.4 14.9L100.6 17.4 99.6 17.6 98 15.8 98.3 14.8 100.9 14.3C101 14.3 101.1 14.2 101 14 101 13.9 100.9 13.9 100.8 13.9L98.4 14.4 98.8 13.3 100 13C100.1 13 100.2 12.9 100.1 12.8 100.1 12.6 100 12.6 99.9 12.6L98.9 12.8 99.4 11.5C99.3 11.5 99.3 11.5 99.3 11.5 99.3 11.4 99.3 11.3 99.2 11.3 99.1 11.3 99 11.3 99 11.4ZM99.1 17.7L99.3 17.9 99.2 18.1 98.6 20 98.5 20.2 98.3 20.3 96.4 20.7 96.1 20.7 96 20.5 94.6 19.1 94.5 18.9 94.6 18.6 95.2 16.8 95.3 16.5 95.5 16.5 97.4 16.1 97.6 16 97.8 16.2 99.1 17.7Z" fill="rgba(200, 78, 15, 0.75)"></path><path d="M108.3-6.7L107.6-5.9 107.4-6.5C107.4-6.6 107.3-6.7 107.2-6.6 107.1-6.6 107.1-6.5 107.1-6.4L107.4-5.6 106.8-4.9 106.2-6.6C106.1-6.7 106-6.7 106-6.7 105.9-6.7 105.8-6.6 105.9-6.5L106.5-4.6 106-4 104.1-4.3 103.8-5 105.2-6.6C105.2-6.6 105.2-6.7 105.2-6.7 105.2-6.7 105.2-6.8 105.2-6.8 105.1-6.9 105-6.9 104.9-6.8L103.7-5.3 103.4-6.2 104-7C104-7 104-7 104-7 104.1-7.1 104-7.2 104-7.2 103.9-7.2 103.8-7.2 103.7-7.2L103.2-6.5 102.8-7.6C102.8-7.7 102.7-7.7 102.6-7.7 102.6-7.7 102.5-7.6 102.5-7.5L102.9-6.5 102.3-6.6C102.2-6.6 102.1-6.6 102.1-6.5 102-6.4 102.1-6.3 102.2-6.3L103-6.1 103.3-5.3 101.6-5.6C101.5-5.6 101.4-5.5 101.4-5.4 101.4-5.3 101.4-5.3 101.5-5.3L103.5-4.9 103.8-4.2 102.5-2.7 101.8-2.8 101.1-4.7C101.1-4.8 100.9-4.9 100.9-4.8 100.8-4.8 100.7-4.7 100.8-4.6L101.4-2.9 100.5-3 100.2-3.9C100.2-4 100-4 100-4S99.9-3.9 99.9-3.8L100.1-3.1 99-3.3C98.9-3.3 98.8-3.2 98.8-3.1 98.8-3.1 98.9-3 98.9-2.9L100.1-2.7 99.6-2.2C99.6-2.1 99.5-2 99.6-1.9 99.7-1.9 99.8-1.9 99.9-2L100.4-2.7 101.3-2.5 100.2-1.1C100.1-1 100.1-0.9 100.2-0.8 100.2-0.8 100.4-0.8 100.4-0.9L101.7-2.5 102.4-2.3 103.1-0.5 102.6 0.1 100.7-0.2C100.6-0.3 100.5-0.2 100.5-0.1 100.5 0 100.5 0.1 100.6 0.1L102.4 0.4 101.8 1.1 100.9 1C100.8 1 100.8 1 100.7 1.1 100.7 1.2 100.8 1.3 100.9 1.3L101.5 1.4 100.8 2.2C100.8 2.3 100.8 2.4 100.9 2.5 101 2.5 101.1 2.5 101.1 2.4L101.8 1.6 102.1 2.3C102.1 2.4 102.2 2.4 102.3 2.4 102.4 2.4 102.4 2.3 102.4 2.3 102.4 2.3 102.4 2.2 102.4 2.2L102.1 1.3 102.7 0.6 103.4 2.4C103.4 2.5 103.5 2.5 103.6 2.5 103.6 2.4 103.6 2.4 103.6 2.4 103.7 2.3 103.7 2.3 103.7 2.3L102.9 0.3 103.4-0.3 105.3 0.1 105.6 0.8 104.3 2.4C104.2 2.5 104.3 2.6 104.4 2.6 104.4 2.7 104.5 2.7 104.6 2.6L105.7 1.2 106.1 2.1 105.5 2.7C105.5 2.8 105.5 2.9 105.5 3 105.6 3 105.7 3 105.8 3L106.2 2.4 106.6 3.4C106.6 3.5 106.7 3.5 106.8 3.5 106.8 3.5 106.8 3.4 106.9 3.3 106.9 3.3 106.9 3.3 106.9 3.3L106.5 2.3 107.3 2.4C107.3 2.4 107.4 2.4 107.5 2.3 107.5 2.2 107.4 2.1 107.3 2.1L106.4 1.9 106 1.1 107.9 1.4C108 1.4 108.1 1.3 108.1 1.2S108.1 1.1 108 1L105.9 0.7 105.6-0.1 106.9-1.6 107.7-1.4 108.4 0.5C108.5 0.6 108.6 0.6 108.7 0.6 108.7 0.6 108.7 0.5 108.7 0.5 108.8 0.5 108.8 0.4 108.7 0.4L108.1-1.4 109-1.2 109.3-0.3C109.4-0.3 109.5-0.2 109.6-0.2 109.6-0.3 109.7-0.4 109.7-0.4L109.4-1.1 110.4-1C110.5-0.9 110.6-1 110.6-1.1 110.6-1.2 110.5-1.3 110.5-1.3L109.4-1.5 109.9-2C109.9-2 109.9-2.1 109.9-2.1 110-2.2 109.9-2.2 109.9-2.3 109.8-2.3 109.7-2.3 109.6-2.2L109.1-1.5 108.2-1.7 109.3-3.1C109.4-3.2 109.4-3.3 109.3-3.3 109.3-3.4 109.2-3.4 109.1-3.4L107.8-1.8 107-1.9 106.3-3.7 106.8-4.3 108.9-4C109-4 109-4 109.1-4.1 109.1-4.2 109-4.3 108.9-4.3L107-4.6 107.6-5.3 108.6-5.2C108.7-5.2 108.8-5.2 108.8-5.3 108.8-5.4 108.7-5.5 108.7-5.5L107.9-5.6 108.6-6.5C108.6-6.5 108.6-6.5 108.6-6.5 108.6-6.6 108.6-6.7 108.5-6.7 108.4-6.7 108.3-6.7 108.3-6.7ZM106.6-2L106.6-1.8 106.5-1.6 105.5-0.4 105.4-0.3 105.2-0.3 103.6-0.6 103.4-0.6 103.4-0.8 102.8-2.3 102.8-2.4 102.9-2.6 103.9-3.8 104-4 104.2-3.9 105.8-3.7 106-3.6 106-3.4 106.6-2Z" fill="rgba(200, 78, 15, 0.75)"></path></g><defs><mask id="SvgjsMask1032"><rect width="144" height="56" fill="#ffffff"></rect></mask><filter id="SvgjsFilter1033"><feGaussianBlur stdDeviation="1"></feGaussianBlur></filter></defs></svg>