<svg xmlns="http://www.w3.org/2000/svg" version="1.1" xmlns:xlink="http://www.w3.org/1999/xlink" xmlns:svgjs="http://svgjs.com/svgjs" width="1440" height="560" preserveAspectRatio="none" viewBox="0 0 1440 560"><g mask="url(&quot;#SvgjsMask1004&quot;)" fill="none"><circle r="8.67" cx="571.25" cy="533.0899999999999" filter="url(#SvgjsFilter1005)" fill="rgba(177, 70, 14, 0.76)"></circle><circle r="9.18" cx="1073.01" cy="139.03" filter="url(#SvgjsFilter1005)" fill="rgba(177, 70, 14, 0.76)"></circle><circle r="8.925" cx="246.625" cy="503.915" filter="url(#SvgjsFilter1005)" fill="rgba(177, 70, 14, 0.76)"></circle><circle r="8.425" cx="245.19500000000002" cy="28.475" filter="url(#SvgjsFilter1005)" fill="rgba(177, 70, 14, 0.76)"></circle><circle r="6.205" cx="203.335" cy="60.795" filter="url(#SvgjsFilter1005)" fill="rgba(177, 70, 14, 0.76)"></circle><circle r="7.675" cx="1278.2649999999999" cy="239.50500000000002" filter="url(#SvgjsFilter1005)" fill="rgba(177, 70, 14, 0.76)"></circle><circle r="7.99" cx="191.23000000000002" cy="42.82" filter="url(#SvgjsFilter1005)" fill="rgba(177, 70, 14, 0.76)"></circle><circle r="6.89" cx="1325.63" cy="313.81" filter="url(#SvgjsFilter1005)" fill="rgba(177, 70, 14, 0.76)"></circle><circle r="7.19" cx="561.1700000000001" cy="95.11" filter="url(#SvgjsFilter1005)" fill="rgba(177, 70, 14, 0.76)"></circle><circle r="6.325" cx="394.35499999999996" cy="275.35499999999996" filter="url(#SvgjsFilter1005)" fill="rgba(177, 70, 14, 0.76)"></circle><circle r="8.325" cx="34.445" cy="373.34499999999997" filter="url(#SvgjsFilter1005)" fill="rgba(177, 70, 14, 0.76)"></circle><circle r="6.325" cx="252.61499999999998" cy="314.41499999999996" filter="url(#SvgjsFilter1005)" fill="rgba(177, 70, 14, 0.76)"></circle><circle r="7.55" cx="386.31" cy="544.9599999999999" filter="url(#SvgjsFilter1005)" fill="rgba(177, 70, 14, 0.76)"></circle><circle r="8.51" cx="9.48" cy="246.45" filter="url(#SvgjsFilter1005)" fill="rgba(177, 70, 14, 0.76)"></circle><circle r="7.54" cx="691.0899999999999" cy="114.04" filter="url(#SvgjsFilter1005)" fill="rgba(177, 70, 14, 0.76)"></circle><circle r="8.925" cx="129.775" cy="26.745" filter="url(#SvgjsFilter1005)" fill="rgba(177, 70, 14, 0.76)"></circle><circle r="7.005" cx="1157.305" cy="463.615" filter="url(#SvgjsFilter1005)" fill="rgba(177, 70, 14, 0.76)"></circle><circle r="7.23" cx="481.39000000000004" cy="201.14999999999998" filter="url(#SvgjsFilter1005)" fill="rgba(177, 70, 14, 0.76)"></circle><circle r="8.845" cx="79.275" cy="32.675" filter="url(#SvgjsFilter1005)" fill="rgba(177, 70, 14, 0.76)"></circle><circle r="9.05" cx="867.1099999999999" cy="329.87" filter="url(#SvgjsFilter1005)" fill="rgba(177, 70, 14, 0.76)"></circle><path d="M502.1 411.6L498.8 360.6 511.4 346.9 512.4 364.1C512.1 365.9 513.8 367 515.7 367.3 517.1 367 518.7 365.3 518.3 364L517.3 340.2 529.2 326.3 534.8 343.8 524 365.1C524 365.1 523.9 365.7 523.9 365.7 523.6 367 524.6 368.5 525.7 369.4 527.6 369.8 529 369.4 530 367.6L537.7 352.2 543.3 369.7 520.9 415.4C520.9 415.4 520.2 415.9 520.2 415.9 519.9 417.2 520.9 418.7 522 419.6 523.8 420.6 525.9 419.7 526.3 417.8L546.2 378.1 553.6 399.2 544.8 417C544.8 417 544.8 417 544.6 417.6 544.4 418.9 544.8 420.3 545.9 421.2 547.8 421.5 549.8 421.3 550.8 419.5L556.5 407.6 561.8 423.1C562.1 425.1 564 425.5 565.3 425.1 567.3 424.9 568.4 423.1 567.5 421L562.8 405.6 573.9 411.8C575.8 412.2 577.8 412 578.2 410.1 579.2 408.3 578.8 406.9 577.1 405.9L559.3 397.1 552.4 376.1 592.8 396.1C593.9 397 596.1 396.1 597.1 394.3 597.3 393.1 597.1 391.1 595.3 390.1L549.6 367.7 544 350.2 559.4 357.9C561.1 358.9 562.7 357.9 563.7 356.2 564.6 355.1 563.7 352.9 562.6 352L541.1 341.8 534.9 324.2 553.1 327.9 566.1 347.5C567.1 349 569 349.4 570.5 348.4 571.9 348.1 572.4 345.5 571.4 344L561.9 329.7 580.1 333.4 607.9 376.3C608.9 377.8 610.8 378.2 612.3 377.2 613.8 376.2 614.2 374.3 613.2 372.8L588.8 335.2 610.2 339.5 621.2 356.1C622.2 357.6 624 358 625.5 357 627.1 356 627.4 354.1 626.4 352.6L619.6 341.4 635.2 344.6C637.1 345 638.6 344 639 342.1 639.4 340.2 638.4 338.7 636.5 338.3L620.8 335.2 631.4 328.2C632.9 327.2 633.3 325.3 632.3 323.8S629.4 321.9 627.9 322.9L612.1 333.4 590.1 328.9 627.1 304.4C628.6 303.4 629 301.5 628 300 627 298.5 625.1 298.1 623.6 299.1L581.3 327.1 563.1 323.4 577.5 313.9C579 312.9 579.4 311.1 578.4 309.5 577.4 308 575.5 307.7 574 308.7L554.4 321.6 536.8 318.1 548.6 304.8 572.5 303.1C573.9 302.8 575.5 301.1 575.1 299.7 574.9 297.7 573.8 296.9 571.9 296.5L554.7 297.5 566.5 284.3 617.5 280.9C619.5 280.7 620.4 279.6 620.8 277.7 620.5 275.7 618.8 274.7 617.5 274.4L572.6 277 587.7 260.5 606.9 259.2C608.8 259.6 609.8 257.8 610.2 255.9 609.8 254.5 608.2 252.9 606.2 253.2L593.6 253.9 603.9 241.6C605.5 240.6 605.2 238.6 603.6 237 602.5 236.1 600.4 236.3 599.6 237.4L588.6 249.6 588 236.4C587.8 234.4 586 233.4 584.6 233.8 582.8 233.4 581.9 234.5 581.6 235.8 581.5 236.4 581.5 236.4 581.4 237L582.7 256.2 567.6 272.7 564.8 228.4C565.2 226.5 563.5 225.5 561.6 225.1 560.2 225.5 559.3 226.6 559.1 227.9 558.9 228.5 558.9 228.5 558.9 228.5L561.5 280 549.7 293.3 548.6 276.1C548.4 274.1 547.2 273.2 545.4 272.8 544 273.2 542.5 274.2 542.2 275.4 542.1 276 542.1 276 542 276.7L543.6 300.5 531.8 313.8 526.1 297 536.3 275.5C537.3 273.8 536.4 271.6 535.3 270.8 533.4 270.4 531.4 270.6 531 272.5L523.3 287.9 517 270.9 540.1 224.7C541 223.6 540.1 221.4 539 220.6 537.1 220.2 535.1 220.4 534.1 222.2L514.3 261.9 507.4 240.9 516.1 223.7C517.1 222 516.3 219.9 514.4 219.5 513.3 218.6 511.3 218.8 510.2 220.6L504.6 232.5 499.2 217C498.8 215.7 497.1 214.7 495.1 214.9 494.3 215.4 493.4 216.5 493.2 217.8 493.2 217.8 493.1 218.4 492.9 219L498.3 234.5 486.4 228.8C485.2 227.9 483.1 228.8 482.2 229.9 482.1 230.5 482.1 230.5 482.1 230.5 481.7 232.4 482.7 233.9 484 234.2L501.1 242.9 508.6 264 468.3 244.1C466.4 243.7 465 244 464 245.8 464 245.8 463.9 246.4 463.9 246.4 463.6 247.7 464 249.1 465.7 250.1L511.3 273.1 517.1 289.9 501.6 282.2C499.8 281.8 497.8 282.1 497.4 283.9 496.7 283.8 496.6 284.4 496.6 284.4 496.4 285.7 497.4 287.2 498.5 288.1L519.9 298.3 525.5 315.8 508 312.2 495 292.6C494 291.1 491.5 290.6 489.9 291.6 489.1 292.7 488.7 294.6 489.1 296L499.2 310.4 481 306.7 453 264.5C452 263 450.1 262.6 448.6 263.6 447.1 264.6 446.7 266.5 447.7 268L472.2 304.9 450.3 300.5 439.8 284.6C438.8 283.1 436.9 282.7 435.4 283.7S433.5 286.6 434.5 288.1L441.5 298.7 425.8 295.5C423.9 295.1 422.4 296.1 422 298 421.6 299.9 422.6 301.4 424.5 301.8L440.2 305 429.5 312.6C428.8 313.1 428 313.6 427.9 314.2 427.7 314.8 428.1 316.2 428.6 317 429.6 318.5 431.5 318.9 433 317.9L449 306.8 470.9 311.2 433.8 336.3C433.1 336.8 432.3 337.3 432.2 338 432.1 338.6 432.4 340 432.9 340.7 433.9 342.2 435.8 342.6 437.3 341.6L479.7 313 497.9 316.7 482.9 326.1C482.2 326.6 481.9 327.8 481.8 328.4 481.7 329.1 481.5 329.7 482 330.5 483 332 485.5 332.5 486.4 331.3L506.7 318.5 524.2 322.1 512.3 335.9 488.5 337C487.2 337.4 485.7 338.4 485.4 339.6 485.3 340.3 485.3 340.3 485.9 340.4 485.5 342.3 487.1 343.9 489.2 343.7L506.4 342.6 494.4 356.5 442.9 359.1C441.5 359.4 440.7 360.6 440.4 361.8 440.3 362.5 440.3 362.5 440.3 362.5 440.5 364.5 441.5 366 443.5 365.7L488.5 363.1 473.3 379.6 454.1 380.9C452.1 381.2 451.3 382.3 451 383.6 451 383.6 450.9 384.2 450.9 384.2 451.1 386.2 452.9 387.2 454.1 387.5L467.4 386.3 456.5 398.4C456.3 399 456.2 399.7 456.1 400.3 456 400.9 456.3 402.3 456.8 403 458.6 404.1 460.5 404.4 461.5 402.7L472.4 390.5 473 403.7C473.3 405.7 475 406.7 476.3 407 478.3 406.8 479.3 405 479.7 403.1L478.4 383.9 492.8 367.3 495.6 411.6C495.8 413.6 497.5 415.2 498.8 414.9 500.9 414.6 502.4 413.6 502.1 411.6Z" fill="rgba(177, 70, 14, 0.76)"></path><path d="M264.2 380.1L246.2 427.9 229 435.2 235.2 419.1C236.3 417.5 235.1 415.9 233.6 414.8 232.2 414.5 230 415.3 229.8 416.7L220.9 438.8 204.3 446.5 206.4 428.3 225.1 413.4C225.1 413.4 225.5 412.8 225.5 412.8 226.2 411.8 225.9 410 225.3 408.7 223.7 407.6 222.3 407.4 220.7 408.6L207.3 419.4 209.4 401.2 248.7 368.8C248.7 368.8 249.6 368.7 249.6 368.7 250.3 367.6 250 365.8 249.4 364.6 248.2 362.9 245.9 362.8 244.8 364.4L210.3 392.4 212.2 370 227.6 357.5C227.6 357.5 227.6 357.5 228 357 228.8 355.9 229 354.5 228.3 353.3 226.8 352.1 224.8 351.5 223.2 352.7L213.1 361.2 214.6 344.9C215.2 343 213.7 341.9 212.3 341.6 210.3 341 208.7 342.2 208.6 344.5L206.6 360.4 199 350.2C197.4 349 195.5 348.4 194.4 350 192.7 351.2 192.5 352.6 193.7 354.2L206.2 369.6 203.7 391.6 175.3 356.7C174.6 355.4 172.3 355.3 170.6 356.5 169.9 357.6 169.3 359.5 170.5 361.1L202.9 400.4 200.7 418.6 189.9 405.2C188.7 403.6 186.9 403.9 185.3 405.1 184 405.7 183.9 408 184.6 409.3L199.9 427.5 198.2 446.1 183.2 435.2 179.5 411.9C179.2 410.2 177.7 409 175.9 409.3 174.5 409.1 173 411.2 173.2 412.9L176 429.9 160.9 419 153.3 368.5C153 366.7 151.5 365.6 149.7 365.8 147.9 366.1 146.8 367.7 147.1 369.5L153.7 413.8 136.1 401 132.9 381.3C132.6 379.6 131.1 378.4 129.3 378.7 127.5 379 126.4 380.6 126.7 382.3L128.3 395.4 115.3 386C113.8 384.9 112 385.2 110.9 386.7 109.7 388.3 110 390.1 111.6 391.2L124.5 400.6 112 402.6C110.2 402.8 109.1 404.4 109.4 406.2S111.2 409.1 113 408.8L131.8 405.8 149.9 419 106.1 426C104.3 426.2 103.2 427.8 103.5 429.6 103.8 431.4 105.3 432.5 107.1 432.2L157.2 424.2 172.2 435.1 155.2 437.8C153.4 438.1 152.3 439.7 152.6 441.4 152.9 443.2 154.4 444.4 156.2 444.1L179.5 440.4 194 450.9 177.7 458.1 155.3 449.7C153.9 449.5 151.7 450.3 151.5 451.7 150.9 453.6 151.5 454.9 153.1 456L169.2 462.2 152.9 469.3 105.1 451.3C103.2 450.7 101.9 451.4 100.8 452.9 100.2 454.9 101.4 456.5 102.4 457.3L144.4 473.5 123.8 482.2 105.8 475.5C104.2 474.4 102.6 475.6 101.5 477.1 101.2 478.5 102 480.7 104 481.3L115.7 485.8 101.2 492.7C99.4 493 98.8 495 99.6 497.1 100.3 498.4 102.2 499 103.5 498.3L118.5 491.8 113.6 504.1C113 506 114.1 507.6 115.6 507.9 117.1 509 118.4 508.3 119.1 507.3 119.5 506.8 119.5 506.8 119.9 506.3L126.6 488.2 147.2 479.4 131.4 520.9C130.3 522.5 131.4 524.1 133 525.2 134.4 525.5 135.7 524.8 136.4 523.8 136.8 523.3 136.8 523.3 136.8 523.3L155.7 475.3 172 468.1 165.9 484.2C165.2 486.2 165.9 487.4 167.5 488.6 168.9 488.8 170.7 488.5 171.4 487.5 171.8 487 171.8 487 172.2 486.4L180.5 464 196.8 456.8 195 474.5 176.8 489.8C175.2 491 175.1 493.3 175.8 494.6 177.3 495.7 179.2 496.3 180.4 494.8L193.8 483.9 192.5 502 152.3 534.5C151.1 535.2 151 537.5 151.7 538.8 153.2 539.9 155.1 540.5 156.8 539.3L191.3 511.3 188.8 533.3 173.8 545.3C172.1 546.5 172 548.8 173.6 549.9 174.3 551.2 176.2 551.8 177.8 550.6L187.9 542.1 186.4 558.4C186.2 559.8 187.4 561.5 189.3 562.1 190.2 561.9 191.5 561.3 192.2 560.2 192.2 560.2 192.6 559.7 193 559.2L194.5 542.9 203 553C203.6 554.3 205.9 554.4 207.2 553.7 207.6 553.2 207.6 553.2 207.6 553.2 208.7 551.6 208.4 549.8 207.4 549.1L195.4 534.1 197.3 511.8 225.8 546.6C227.3 547.7 228.7 548 230.4 546.8 230.4 546.8 230.8 546.3 230.8 546.3 231.5 545.2 231.7 543.8 230.6 542.2L198.5 502.4 200.3 484.7 211.1 498.1C212.7 499.2 214.6 499.8 215.8 498.3 216.3 498.6 216.7 498.1 216.7 498.1 217.4 497.1 217.1 495.3 216.5 494L201.2 475.8 203.3 457.6 217.8 468.1 221.5 491.4C221.8 493.2 223.9 494.7 225.7 494.4 226.9 493.7 228.1 492.2 228.3 490.8L225.1 473.4 240.1 484.3 248.1 534.3C248.4 536.1 249.9 537.3 251.7 537 253.5 536.7 254.6 535.1 254.4 533.3L247.4 489.5 265.5 502.7 268.5 521.5C268.8 523.2 270.3 524.4 272.1 524.1S275 522.2 274.8 520.5L272.8 507.9 285.7 517.3C287.3 518.5 289.1 518.2 290.2 516.6 291.3 515.1 291 513.3 289.5 512.1L276.5 502.8 289.4 500.2C290.3 500.1 291.2 500 291.6 499.4 291.9 498.9 292.2 497.5 292 496.6 291.7 494.8 290.2 493.7 288.4 494L269.3 497.5 251.1 484.4 295.3 476.8C296.2 476.7 297.1 476.6 297.4 476 297.8 475.5 298.1 474.1 297.9 473.2 297.6 471.4 296.1 470.3 294.3 470.6L243.9 479.1 228.8 468.2 246.3 465.9C247.2 465.7 248 464.7 248.3 464.2 248.7 463.7 249.1 463.1 249 462.3 248.7 460.5 246.6 459 245.3 459.6L221.6 463 207.1 452.4 223.7 444.7 245.7 453.6C247.2 453.8 248.9 453.5 249.7 452.5 250.1 452 250.1 452 249.5 451.6 250.7 450.1 249.9 447.9 247.9 447.3L231.8 441.2 248.5 433.5 296.4 452.4C297.8 452.6 299.1 451.9 299.8 450.9 300.2 450.4 300.2 450.4 300.2 450.4 300.8 448.5 300.5 446.7 298.6 446.1L256.6 429.9 277.2 421.1 295.2 427.8C297.2 428.4 298.4 427.8 299.2 426.7 299.2 426.7 299.6 426.2 299.6 426.2 300.2 424.3 299 422.6 298 421.9L285.3 417.5 300.3 411C300.7 410.4 301.1 409.9 301.5 409.4 301.8 408.9 302.1 407.5 301.9 406.6 300.8 404.9 299.2 403.8 297.6 405L282.6 411.5 287.5 399.3C288.1 397.3 286.9 395.7 285.9 394.9 283.9 394.3 282.3 395.5 281.2 397.1L274.4 415.1 254.3 424.3 270.2 382.8C270.8 380.9 270 378.7 268.6 378.5 266.6 377.9 264.8 378.1 264.2 380.1Z" fill="rgba(177, 70, 14, 0.76)"></path><path d="M892.9 295.1L859.8 256.2 861.7 237.6 872.8 250.8C873.6 252.5 875.7 252.3 877.4 251.5 878.3 250.3 878.6 248.1 877.5 247.2L862.5 228.8 863.8 210.5 878.7 221.2 882.7 244.7C882.7 244.7 883 245.3 883 245.3 883.5 246.5 885.2 247.1 886.7 247.1 888.4 246.3 889.3 245.2 889.1 243.2L886.1 226.2 901 236.9 910.3 286.9C910.3 286.9 910 287.8 910 287.8 910.5 289 912.2 289.6 913.7 289.6 915.7 289.4 916.9 287.4 916 285.7L908.3 241.9 926.9 254.4 930.4 274C930.4 274 930.4 274 930.6 274.6 931.2 275.7 932.3 276.6 933.7 276.7 935.5 275.8 936.9 274.4 936.7 272.4L934.2 259.5 947.7 268.7C949.1 270.2 950.8 269.4 951.7 268.2 953.2 266.8 952.9 264.8 951 263.6L938 254.1 950.7 252.5C952.4 251.6 953.9 250.3 953.1 248.5 952.8 246.5 951.7 245.6 949.7 245.9L930.1 249.4 912.1 236.6 956.4 228.6C957.9 228.6 959 226.6 958.8 224.6 958.3 223.4 956.9 222 954.9 222.2L904.8 231.5 889.9 220.9 906.9 217.9C908.9 217.6 909.5 215.9 909.3 213.9 909.3 212.5 907.3 211.3 905.9 211.2L882.6 215.8 867.1 205.4 883.9 197.5 906 205.5C907.7 206.1 909.5 205.3 910.1 203.6 911 202.5 909.9 200.2 908.2 199.6L892 193.7 908.8 185.8 956.8 203.7C958.5 204.3 960.2 203.5 960.8 201.8 961.4 200.1 960.6 198.3 958.9 197.7L916.9 182 936.6 172.8 955.4 179.6C957.1 180.2 958.8 179.4 959.4 177.7 960 176 959.2 174.2 957.5 173.6L945.3 168.7 959.8 161.9C961.6 161.1 962.2 159.4 961.4 157.7 960.5 155.9 958.8 155.3 957.1 156.1L942.6 162.9 946.9 151C947.5 149.3 946.7 147.6 945 147S941.6 147.2 941 148.9L934.5 166.7 914.2 176.2 929.3 134.5C929.9 132.8 929.1 131.1 927.4 130.5 925.7 129.9 924 130.7 923.3 132.4L906.1 180 889.3 187.9 895.2 171.8C895.8 170.1 895 168.3 893.3 167.7 891.6 167.1 889.8 167.9 889.2 169.6L881.2 191.7 865 199.3 866.6 181.6 884.7 166C885.6 164.9 885.9 162.6 884.8 161.8 883.4 160.3 882 160.3 880.3 161.1L867.1 172.2 868.7 154.5 907.6 121.4C909.1 120 909.1 118.6 908.3 116.8 906.9 115.4 904.9 115.6 903.7 116.1L869.2 145 871.5 122.8 886.1 110.3C887.9 109.4 887.6 107.4 886.8 105.7 885.7 104.8 883.4 104.5 881.9 105.9L872.3 113.9 873.3 97.9C873.9 96.2 872.5 94.7 870.2 94.4 868.8 94.4 867.3 95.8 867.3 97.2L865.7 113.5 857.4 103.2C856 101.8 854 102 853.1 103.1 851.3 103.9 851.3 105.4 851.9 106.5 852.1 107.1 852.1 107.1 852.4 107.7L864.9 122.3 862.6 144.6 834 110.7C833.2 108.9 831.2 109.2 829.4 110 828.5 111.1 828.5 112.5 829.1 113.7 829.3 114.3 829.3 114.3 829.3 114.3L862.1 154 860.5 171.7 849.4 158.6C848 157.1 846.6 157.1 844.8 157.9 843.9 159 843.3 160.7 843.9 161.9 844.1 162.4 844.1 162.4 844.4 163L860 181.2 858.4 198.9 843.8 188.8 839.2 165.5C839 163.5 837 162.3 835.6 162.2 833.8 163 832.4 164.4 833.2 166.2L836.2 183.1 821 173.3 811.9 122.4C812 121 810 119.8 808.6 119.8 806.8 120.6 805.4 122 805.6 124L813.4 167.7 795.4 154.9 792.1 135.9C791.9 133.9 789.9 132.7 788.2 133.6 786.7 133.5 785.3 134.9 785.5 136.9L788.1 149.9 774.5 140.7C773.4 139.8 771.4 140 769.9 141.4 769.6 142.2 769.6 143.7 770.1 144.8 770.1 144.8 770.4 145.4 770.7 146L784.2 155.2 771.3 157.7C769.8 157.7 768.6 159.7 768.6 161.1 768.9 161.7 768.9 161.7 768.9 161.7 769.7 163.4 771.4 164 772.5 163.5L791.5 160.3 810.1 172.8 765.8 180.8C764.1 181.6 763.2 182.7 763.4 184.7 763.4 184.7 763.7 185.3 763.7 185.3 764.2 186.5 765.3 187.4 767.4 187.1L817.7 178.4 832.3 188.5 815.3 191.5C813.6 192.3 812.1 193.7 813 195.4 812.4 195.7 812.7 196.3 812.7 196.3 813.2 197.5 814.9 198.1 816.3 198.1L839.6 193.5 854.5 204.2 838.3 211.8 816.2 203.8C814.5 203.2 812.2 204.3 811.5 206 811.5 207.4 812.3 209.2 813.4 210.1L830.2 215.6 813.4 223.5 765.7 206.3C764 205.7 762.3 206.5 761.7 208.2 761.1 209.9 761.9 211.6 763.6 212.2L805.3 227.3 785 236.8 767.1 230.4C765.4 229.7 763.7 230.6 763.1 232.3S763.3 235.7 765 236.3L776.9 240.6 762.4 247.4C760.7 248.2 760 249.9 760.9 251.7 761.7 253.4 763.4 254 765.1 253.2L779.6 246.4 775.6 258.9C775.3 259.8 775 260.6 775.2 261.2 775.5 261.8 776.6 262.7 777.5 263 779.2 263.6 780.9 262.8 781.5 261.1L787.7 242.6 808 233.1 793.2 275.4C792.9 276.3 792.6 277.1 792.8 277.7 793.1 278.3 794.2 279.1 795.1 279.5 796.8 280.1 798.5 279.3 799.1 277.6L816.1 229.3 832.9 221.4 826.5 237.9C826.2 238.7 826.7 239.9 827 240.5 827.3 241 827.5 241.6 828.4 241.9 830.1 242.5 832.4 241.5 832.4 240L841 217.6 857.3 210 855.9 228.3 837.5 243.3C836.6 244.4 836 246.1 836.6 247.3 836.8 247.9 836.8 247.9 837.4 247.6 838.2 249.3 840.5 249.7 842 248.3L855.1 237.2 853.8 255.5 814.1 288.2C813.2 289.4 813.1 290.8 813.7 292 813.9 292.5 813.9 292.5 813.9 292.5 815.3 294 817 294.6 818.5 293.2L853 264.3 850.7 286.6 836.1 299.1C834.6 300.5 834.6 301.9 835.2 303.1 835.2 303.1 835.4 303.7 835.4 303.7 836.8 305.1 838.8 304.9 840 304.4L849.9 295.4 848.4 311.7C848.7 312.3 848.9 312.9 849.2 313.5 849.5 314 850.6 314.9 851.5 315.2 853.5 315 855.2 314.2 855 312.2L856.5 295.9 864.9 306.1C866.2 307.6 868.3 307.4 869.4 306.8 870.9 305.4 870.6 303.4 869.8 301.7L857.3 287 859 265 887.7 299C889 300.4 891.3 300.8 892.2 299.7 893.7 298.3 894.3 296.6 892.9 295.1Z" fill="rgba(177, 70, 14, 0.76)"></path><path d="M1026.2 405.8L1013.8 421.7 1008.3 409.3C1007.8 408 1006 407.1 1004 407.5 1002.6 408.6 1001.7 410.4 1002.2 411.8L1009.1 428.2 997.6 442.8 983.8 409.4C982.8 407.4 980.9 406.5 979.5 407.6 977.5 408 976.6 409.8 977.7 411.9L993 448.7 982.8 462.2 944.1 457.3 938.1 443.6 964.3 410.2C964.4 409.5 964.5 408.9 964.6 408.3 964.7 407.6 964.2 406.3 963.6 405.6 961.9 404.1 959.9 404.5 959 406.3L935.1 436.8 928.3 419.8 940 403.8C940.6 403.9 940.7 403.3 940.8 402.7 940.9 401.4 940.5 400 939.3 399.2 938.1 398.4 936.1 398.8 934.7 399.9L925.3 412.9 916.4 391.8C915.9 390.4 914.1 389.6 912.1 390 910.6 391.1 909.8 392.9 910.2 394.2L918.7 414 905.3 412.3C903.4 412.1 901.9 413.8 901.8 415.1 901.5 417 902.5 419.1 904.5 419.3L921.6 421.5 928.5 438.5 892.9 434C891 433.7 889.6 434.8 889.3 436.7 889.1 438.6 890.2 440.1 892.1 440.3L931.5 445.3 938 459.7 914 490.9 899.4 489 883.6 451.5C883.2 449.5 880.7 448.5 879.3 449.6 877.3 450 877.1 451.9 877.4 453.9L891.8 488 873.4 485.7 866.5 468.7C866.1 467.3 863.6 466.3 862.3 466.8S859.9 469.8 860.3 471.7L865.8 484.7 843.6 481.9C841.7 481.6 840.1 483.4 839.9 485.3 839.7 486.5 840.8 488.6 842.7 488.8L864.9 491.7 856.3 503.5C855.5 504.7 855.2 506.6 857 508.1 858.2 508.9 860.8 508.6 861.6 507.4L872.5 492.6 890.9 495 868.4 524.4C867.6 526.2 867.3 528.1 869.1 529.6 870.3 530.4 872.9 530.1 873.7 528.9L898.5 496 913.1 497.8 928.5 534 918.6 546.3 879.2 541.2C877.3 541 875.9 542.1 875.6 544 875.4 545.9 876.4 548 878.3 548.2L913.9 552.8 902.9 567.5 885.8 565.3C883.9 565.1 882.5 566.2 882.2 568.1 882 570 883.1 571.4 885 571.7L898.3 573.4 885.2 590.4C884.4 591.6 884.7 594.2 885.9 595 887.7 595.9 889.6 596.1 890.5 594.3L904.3 576.7 910.3 591C911.4 592.5 913.2 593.3 914.5 592.9 915.9 592.4 916.7 591.2 916.9 589.9 916.9 589.9 916.9 589.3 916.4 588.6L909 570.2 920 555.5 935.4 591C935.8 593 937.6 593.9 939.7 592.8 940.4 592.3 941.1 591.7 941.3 590.5 941.4 589.8 941.5 589.2 941.5 588.6L924.6 549.6 933.8 537.9 972.5 542.8 978.9 558.5 954.9 590.3C953.4 592 953.8 594 955.6 594.9 956.7 596.3 958.7 595.9 960.2 594.2L981.9 565.3 989.4 582.4 978.6 596.5C977.8 597.7 978.2 599.7 979.3 601.1 981.1 602 983 602.3 983.9 600.4L992.3 589.9 1000.3 608.3C1000.7 610.3 1002.6 610.6 1004.6 610.2 1005.3 609.6 1006.1 608.4 1006.3 607.2 1006.3 607.2 1006.4 606.5 1006.4 605.9L998 586.1 1013.9 588.1C1015.1 588.3 1017.2 587.3 1017.4 585.4 1017.7 583.5 1015.9 581.9 1014.7 581.8L995 579.3 987.5 562.2 1026.2 567.1C1028.1 567.4 1029.6 565.6 1029.9 563.7S1029 560.4 1027.1 560.1L984.6 554.7 978.7 540.4 1002.6 509.3 1019.2 511.4 1034.9 549.5C1036 551 1037.9 551.8 1039.8 551.4 1040.6 550.9 1041.4 549.7 1041.5 548.4 1041.6 547.8 1041.7 547.2 1041.1 546.4L1026.8 512.4 1045.2 514.7 1052.7 531.8C1053.1 533.1 1055 534 1057 533.6 1058.4 532.5 1059.3 530.7 1058.8 529.3L1052.8 515.7 1073.1 518.3C1074.4 518.4 1076.5 516.8 1076.7 515.5 1076.9 513.6 1075.3 511.5 1074 511.3L1053.7 508.7 1062.8 497.6C1062.9 497 1063 496.3 1063.1 495.7 1063.3 494.4 1062.8 493.1 1062.2 492.4 1060.4 491.5 1058.4 491.9 1057 493L1046.1 507.7 1027.7 505.4 1050.1 476C1051.6 474.2 1051.2 472.3 1050.1 471.5 1048.3 469.9 1046.3 470.3 1044.9 471.4L1020 504.4 1003.5 502.3 988.2 466.1 997.5 453.8 1040 459.2C1041.9 459.4 1043.3 458.3 1043.6 456.4 1043.8 454.5 1042.7 453.1 1040.8 452.9L1002.1 447.9 1013.6 433.3 1033.3 435.8C1034.6 435.9 1036.7 434.3 1037 432.4 1037.2 430.5 1035.5 428.9 1034.2 428.8L1018.3 426.8 1031.5 409.7C1031.6 409.1 1031.6 409.1 1031.7 408.5 1031.8 407.2 1031.3 405.8 1030.8 405.1 1029 404.2 1027 404.6 1026.2 405.8ZM995.9 501.3L997.3 505.4 995 508.3 975.7 533.6 973.4 536.5 969.5 536 938.4 532 934.6 531.6 933.1 528.1 920.7 498.8 919.3 495.4 921.6 491.8 940.9 467.2 943.3 463.6 947.1 464.1 978.2 468.1 982 468.6 983.5 472.6 995.9 501.3Z" fill="rgba(177, 70, 14, 0.76)"></path><path d="M323.4 105.9L297.9 104.3 291.9 97.2 300.5 97.8C301.4 98.1 302 97.3 302.3 96.4 302.2 95.6 301.5 94.7 300.8 94.8L288.9 93.8 282.8 87 291.9 85.3 301.7 92.1C301.7 92.1 302 92.2 302 92.2 302.6 92.4 303.4 92 303.9 91.5 304.3 90.6 304.2 89.9 303.4 89.3L296.2 84.5 305.2 82.8 326.5 96.9C326.5 96.9 326.7 97.3 326.7 97.3 327.3 97.5 328.1 97.1 328.6 96.6 329.2 95.8 328.9 94.7 328 94.3L309.6 81.9 320.5 79.6 328.8 85.1C328.8 85.1 328.8 85.1 329.1 85.2 329.7 85.5 330.4 85.4 330.9 84.9 331.2 84 331.2 82.9 330.4 82.3L324.9 78.7 332.9 77.1C333.9 77.1 334.2 76.2 334.1 75.5 334.1 74.5 333.3 73.8 332.2 74.1L324.3 75.5 328.1 70.4C328.4 69.5 328.4 68.4 327.5 68.1 326.7 67.5 326 67.6 325.4 68.4L319.9 76.7 309 78.7 321.5 60C322 59.5 321.7 58.4 320.9 57.8 320.3 57.5 319.3 57.5 318.7 58.3L304.7 79.6 295.6 81.2 300.5 74.1C301.1 73.3 300.7 72.5 299.9 71.8 299.4 71.3 298.2 71.6 297.7 72.1L291.3 82.1 282.2 84 285.2 75.3 295.7 70.1C296.5 69.7 296.9 68.8 296.5 68 296.4 67.3 295.2 66.8 294.3 67.2L286.6 71 289.6 62.2 312.7 51.2C313.5 50.8 313.8 49.9 313.4 49.1 313 48.3 312.1 48 311.3 48.4L291.1 58 294.6 47.7 303.6 43.3C304.4 42.9 304.7 42 304.3 41.2 303.9 40.4 303 40.1 302.2 40.5L296.2 43.2 298.8 35.6C299.1 34.7 298.7 33.9 297.8 33.6 296.9 33.3 296 33.7 295.7 34.6L293.1 42.1 290.4 36.4C290 35.6 289 35.3 288.2 35.7S287.1 37 287.5 37.8L291.7 46.4 288.1 57 278.3 37C277.9 36.2 277 35.9 276.2 36.3 275.4 36.7 275.1 37.6 275.5 38.4L286.6 61.2 283.6 70 279.8 62.3C279.4 61.4 278.5 61.1 277.7 61.5 276.9 61.9 276.6 62.8 277 63.6L282.1 74.2 279.2 82.7 273.4 76 274.1 64C274 63.3 273.3 62.4 272.6 62.5 271.6 62.5 271.1 63 270.8 63.9L270.2 72.5 264.4 65.8 266 40.3C266 39.3 265.5 38.8 264.6 38.4 263.6 38.4 263 39.2 262.8 39.8L261.2 62.3 254 53.7 254.6 44.1C254.9 43.2 254.1 42.6 253.2 42.3 252.5 42.4 251.5 43.1 251.5 44.1L251.1 50.4 245.7 44.5C245.3 43.6 244.2 43.6 243.3 44.3 242.8 44.8 242.8 45.8 243.3 46.4L248.6 52.6 242.1 52C241 52 240.4 52.8 240.5 53.5 240.2 54.4 240.7 54.9 241.3 55.1 241.6 55.2 241.6 55.2 241.9 55.4L251.5 55.9 258.7 64.5 236.6 63C235.7 62.7 235.1 63.5 234.8 64.4 234.9 65.1 235.4 65.6 236 65.8 236.3 65.9 236.3 65.9 236.3 65.9L262 68 267.8 74.7 259.2 74.1C258.2 74.1 257.6 74.6 257.3 75.5 257.4 76.2 257.8 77 258.4 77.3 258.7 77.4 258.7 77.4 259 77.5L271 78.2 276.8 84.9 268.1 86.6 258.1 80.2C257.3 79.6 256.2 79.9 255.7 80.4 255.4 81.3 255.4 82.3 256.3 82.6L263.4 87.4 254.6 89.5 233.1 75C232.6 74.5 231.5 74.8 231 75.3 230.7 76.2 230.7 77.2 231.5 77.8L249.9 90.2 239.1 92.3 231.1 86.8C230.3 86.2 229.2 86.5 228.9 87.4 228.4 87.9 228.4 88.9 229.2 89.5L234.7 93.1 226.7 94.8C226 94.9 225.4 95.7 225.4 96.7 225.6 97.1 226.1 97.6 226.7 97.8 226.7 97.8 227 97.9 227.3 98L235.3 96.4 231.7 101.9C231.2 102.4 231.5 103.5 232 104 232.3 104.1 232.3 104.1 232.3 104.1 233.2 104.5 234 104.1 234.2 103.5L239.7 95.5 250.6 93.2 238.1 111.9C237.8 112.8 237.9 113.5 238.7 114.1 238.7 114.1 239 114.2 239 114.2 239.6 114.4 240.3 114.3 240.9 113.5L255.3 92.4 264 90.7 259.2 97.8C258.9 98.7 258.8 99.7 259.8 100 259.6 100.3 259.9 100.4 259.9 100.4 260.6 100.6 261.4 100.2 261.9 99.7L268.3 89.8 277.4 88.1 274.5 96.6 263.9 101.8C263.1 102.2 262.7 103.4 263.1 104.2 263.6 104.7 264.5 105 265.2 104.9L273 100.9 270 109.6 247.2 120.8C246.4 121.2 246.1 122.1 246.5 122.9 246.9 123.7 247.8 124 248.6 123.6L268.5 113.9 264.9 124.5 256.4 128.6C255.6 129 255.2 129.9 255.6 130.8S256.9 131.9 257.8 131.5L263.4 128.7 260.9 136.3C260.5 137.2 260.9 138 261.8 138.3 262.8 138.6 263.6 138.2 263.9 137.3L266.5 129.7 269.6 135.5C269.8 135.9 270 136.3 270.3 136.5 270.6 136.6 271.3 136.5 271.7 136.3 272.5 135.9 272.8 135 272.4 134.1L267.9 125.5 271.6 114.9 281.6 134.9C281.8 135.3 282 135.7 282.3 135.8 282.6 136 283.3 135.9 283.7 135.7 284.5 135.3 284.9 134.4 284.5 133.5L273 110.7 276 101.9 279.7 109.9C279.9 110.3 280.5 110.5 280.8 110.6 281.1 110.7 281.4 110.8 281.8 110.6 282.6 110.2 283 109 282.5 108.5L277.5 97.7 280.4 89.2 286.5 96 285.5 107.8C285.6 108.6 286 109.4 286.6 109.6 286.9 109.7 286.9 109.7 287 109.4 287.9 109.7 288.8 109 288.8 108L289.4 99.4 295.5 106.2 293.5 131.9C293.6 132.6 294.1 133.1 294.7 133.3 295 133.4 295 133.4 295 133.4 296 133.4 296.8 133 296.8 132L298.4 109.6 305.6 118.1 305 127.7C305 128.8 305.5 129.3 306.1 129.5 306.1 129.5 306.5 129.6 306.5 129.6 307.5 129.6 308.1 128.8 308.3 128.2L308.5 121.5 313.9 127.7C314.2 127.8 314.5 127.9 314.8 128 315.1 128.1 315.8 128 316.2 127.8 316.8 127 317.1 126.1 316.3 125.5L311 119.3 317.6 119.9C318.6 119.9 319.2 119.1 319.4 118.5 319.4 117.4 318.6 116.8 317.7 116.5L308.1 115.9 300.8 107.7 322.9 109.2C323.9 109.2 324.8 108.5 324.8 107.8 324.8 106.8 324.4 106 323.4 105.9Z" fill="rgba(177, 70, 14, 0.76)"></path><path d="M674.6 523.5L655.4 505.3 655.1 498 668.9 489.4 675.6 492.8 683.1 518.3C683.2 518.6 683.2 518.6 683.4 518.8 683.7 519.4 684.3 519.8 685.3 519.5 686.1 519 686.5 518.4 686.3 517.4L679.7 495.2 689.8 500.6 692.8 510.4C692.8 510.4 693 510.6 693 510.6 693.3 511.2 694 511.6 694.9 511.3 695.6 511.3 696.1 510.2 695.9 509.2L694.2 502.8 701.6 506.8C702.2 507.2 703.2 507 703.8 506.2S703.8 504.3 703 503.7L695.8 499.9 702.1 497.9C703 497.7 703.5 496.6 703.3 495.6 702.9 495.1 702.2 494.4 701.2 494.7L691.4 497.7 681.1 492 703.4 485.4C704.3 485.2 704.8 484.1 704.8 483.4 704.3 482.6 703.5 482 702.5 482.2L677.2 489.9 670.4 486.2 669.9 470.3 676.5 466.3 702.3 472.1C703.2 472.4 704 471.8 704.2 471S703.9 469.3 703 469.1L680.3 463.9 690.4 457.7 700 460C700.9 460.2 701.7 459.7 702.2 458.6S701.9 456.9 701 456.7L694.2 455.4 701.5 450.8C702.3 450.3 702.4 449.1 701.9 448.3 701.4 447.5 700.5 447.3 699.7 447.8L692.3 452.4 693.9 445.8C694.4 444.7 693.8 443.9 692.7 443.8 691.8 443.6 691 444.1 690.8 445L688.5 454.7 678.4 460.9 684 438.3C684.2 437.4 683.5 436.3 682.7 436.1S681 436.4 680.7 437.3L674.6 463.3 668.1 467.3 653.9 459.6 653.8 452.1 672 432.9C672.7 432.2 672.4 431.2 671.9 430.4 671.1 429.7 670.2 429.9 669.3 430.4L653.5 447.4 653.2 435.9 660.3 428.5C660.9 427.8 660.7 426.8 660.2 426 659.6 425.6 658.4 425.5 657.8 426.3L653.2 431.1 652.8 422.6C652.8 421.9 652 421.2 651.1 421 650.1 421.3 649.5 422 649.5 422.8L649.9 431.2 644.7 426.5C644.1 426.1 642.9 426.1 642.6 426.7 641.8 427.2 641.8 427.9 642.3 428.7 642.3 428.7 642.5 429 642.5 429L649.9 436.1 650.2 447.6 633.3 431.7C632.5 431.1 631.6 430.9 630.9 431.6 630.3 432.4 630.4 433.1 630.7 433.7 630.9 433.9 630.9 433.9 630.9 433.9L650.5 452.3 650.6 459.7 636.7 468.3 630.4 464.7 622.4 439.2C622.4 438.4 621.3 438 620.6 438 619.6 438.3 619.1 439.3 619.4 440.3L626 462.5 615.9 457.1 612.8 447.4C612.6 446.4 611.8 445.7 611 446.2 610 446.5 609.5 447.5 609.6 448.2L611.8 454.8 604.4 450.7C603.5 450.5 602.5 450.7 601.9 451.5 601.7 452 601.8 452.7 602.2 453.2 602.3 453.5 602.3 453.5 602.8 453.6L610.2 457.7 603.6 459.8C602.6 460.1 602.4 460.9 602.5 461.7 602.7 461.9 602.7 461.9 602.8 462.2 603.2 462.7 603.8 463.1 604.5 463.1L614.3 460 624.4 465.4 602.1 472C601.3 472.5 600.7 473.3 601.2 474.1 601.1 474.6 601.1 474.6 601.2 474.8 601.6 475.4 602.5 475.6 603.2 475.5L628.7 467.6 635.1 471.2 635.7 487.4 629.5 491.3 603.5 485.1C602.6 484.9 601.5 485.6 601.3 486.5S601.8 488.5 602.6 488.7L625.4 493.8 615.6 499.8 605.6 497.7C604.7 497.5 603.9 498 603.7 498.9 603.5 499.8 604 500.6 604.9 500.8L611.5 502.4 604.2 506.9C603.6 507.3 603.1 508.3 603.6 509.1 604.1 509.9 605.5 510.2 606 509.9L613.4 505.4 611.8 512C611.7 512.4 611.6 512.9 611.8 513.1 612.1 513.7 612.5 513.8 613 513.9 613.9 514.1 614.7 513.6 614.9 512.7L617.4 502.8 627.2 496.8 621.7 519.4C621.6 519.8 621.7 520.1 622.1 520.7 622.2 520.9 622.4 521.2 622.8 521.3 623.7 521.5 624.8 520.8 625 520L631.3 494.2 637.6 490.4 651.6 497.9 652.2 505.4 633.6 524.8C633.3 525.4 633.1 526.3 633.4 526.8 633.6 527.1 633.6 527.1 633.8 526.9 634.3 527.7 635.5 527.8 636.1 527L652 510 652.5 521.8 645.4 529.2C645 529.8 645.1 530.5 645.4 531 645.4 531 645.6 531.3 645.6 531.3 646.1 532.1 647.3 532.2 647.9 531.4L652.6 526.2 652.9 534.7C652.8 535.1 653 535.4 653.2 535.7 653.5 536.2 654.1 536.6 654.4 536.4 655.5 536.5 656.2 535.7 656.4 534.8L656.1 526.3 660.8 530.9C661.6 531.6 662.7 531.6 663.4 530.9 663.7 530.2 663.8 529.1 663.2 528.7L655.8 521.6 655.5 510.2 672.4 526C673.2 526.7 674.2 526.4 675 525.9 675.4 525.3 675.4 524.2 674.6 523.5ZM665.5 487.4L654.9 494 653.2 495 651.6 494.1 640.8 488.4 639 487.2 639 485.4 638.6 473.2 638.6 471.3 640.2 470.3 650.8 463.7 652.4 462.7 654.1 463.6 664.8 469.4 666.5 470.2 666.7 472.4 667.1 484.5 667.1 486.4 665.5 487.4Z" fill="rgba(177, 70, 14, 0.76)"></path><path d="M1305.8 88.3L1314.3 105.9 1302.5 105.6C1301.3 105.4 1299.9 106.5 1299.5 108.2 1299.8 109.8 1300.9 111.2 1302.4 110.8L1317.2 111.8 1324.4 125.3 1293.7 123.2C1292.1 123.5 1290.7 124.6 1290.6 125.8 1290.6 127.9 1291.7 129.3 1293.3 128.9L1327.3 131.1 1337.7 152 1311.3 147.4 1326 169.8 1302.7 168.6 1287.1 138.3C1287.4 137.8 1287 137.5 1286.5 137.2 1285.5 136.6 1284.3 136.5 1283.2 137.1 1282.1 137.7 1281.7 139.4 1282 141L1296.2 168.4 1281 167.1 1274.2 153.9C1274 153.2 1273.6 152.9 1273.1 152.5 1272.6 152.2 1271.4 152.1 1270.3 152.7 1269.2 153.4 1268.8 155.1 1269.4 156.1L1274.5 166.8 1254.9 166C1253.2 165.6 1252.2 167 1251.8 168.7 1251.6 170 1252.7 171.3 1254.8 171.3L1274 172.6 1267.6 182.4C1266.7 183.8 1267.5 185.7 1268.4 186.3 1269.8 187.2 1271.3 186.9 1272.3 185.5L1280.6 172.8 1295.8 174.1 1279.2 199.4C1278.3 200.8 1278.6 202.4 1280 203.3 1281 203.9 1283 203.9 1283.9 202.5L1302.3 174.4 1325.6 175.6 1308.9 196.1 1335.2 194.6 1322.4 214.3 1288.8 212.4C1286.8 212.4 1285.9 213.8 1285.7 215 1285.6 216.3 1286.7 217.7 1288.4 218.1L1319 219.4 1310.7 232.1 1295.6 231.6C1293.9 231.1 1292.5 232.2 1292.5 234.2 1292.4 235.5 1293.5 236.9 1295.5 236.9L1307 237.7 1296.3 254.1C1295.4 255.5 1295.7 257 1297.1 258S1300 258.6 1301 257.2L1311.7 240.8 1317.1 251C1317.9 252.8 1319.6 253.3 1320.6 252.7 1322.5 251.9 1323 250.2 1321.9 248.8L1315.4 235.1 1323.7 222.5 1337.1 250C1338.2 251.4 1339.9 251.9 1341 251.2 1342.8 250.5 1343.3 248.7 1342.2 247.4L1327 217.3 1339.9 197.7 1349.1 222.4 1361.2 198.9 1371.6 219.8 1353.2 247.9C1352.3 249.3 1353.1 251.2 1354 251.8 1355.4 252.7 1357 252.4 1357.9 251L1374.8 225.2 1381.7 239.1 1373.5 251.8C1372.5 253.2 1372.9 254.7 1374.3 255.6 1375.2 256.3 1377.2 256.2 1378.1 254.8L1384.6 245 1393.4 262.2C1394.2 264 1395.9 264.5 1397.3 263.4 1398.4 262.7 1399.3 261.3 1398.2 260L1389.7 242.3 1401.5 242.7C1402.7 242.8 1404.1 241.7 1404.3 240.5 1404.4 239.2 1403.8 238.2 1403.3 237.9 1402.8 237.6 1402.4 237.2 1401.6 237.4L1386.8 236.4 1379.6 223 1410.4 225.1C1411.9 224.7 1413.3 223.6 1413.4 222.4 1413.6 221.2 1413 220.1 1412 219.5 1411.6 219.2 1411.6 219.2 1410.8 219.3L1376.7 217.1 1366.3 196.2 1392.8 200.8 1378 178.4 1401.3 179.6 1416.9 209.9C1417.5 211 1419 211.9 1420.8 211.2 1421.9 210.5 1422.3 208.8 1422 207.3L1407.8 179.9 1423.1 181.2 1429.8 194.3C1430.2 195.9 1431.9 196.3 1433.7 195.5 1434.8 194.9 1435.3 193.2 1434.9 191.6L1429.6 181.4 1449.2 182.2C1450.9 182.6 1451.8 181.2 1452.2 179.5 1452.1 178.8 1451.4 177.7 1451 177.4 1450.5 177.1 1450 176.8 1449.3 176.9L1430 175.7 1436.4 165.8C1437.4 164.4 1436.6 162.6 1435.6 162L1435.6 162C1434.2 161 1432.7 161.4 1431.8 162.8L1423.5 175.4 1408.2 174.1 1424.8 148.8C1425.7 147.4 1425.4 145.9 1424 145S1421 144.4 1420.1 145.8L1401.7 173.9 1378.4 172.7 1395.2 152.2 1368.8 153.6 1381.7 134 1415.2 135.9C1417.3 135.9 1418.2 134.4 1418.3 133.2 1418.5 132 1417.4 130.6 1415.7 130.1L1385.4 128.3 1393.3 116.2 1408.4 116.7C1410.1 117.1 1411.5 116 1411.5 114 1411.6 112.8 1410.5 111.4 1408.8 110.9L1397 110.5 1407.8 94.1C1408.7 92.7 1408.4 91.2 1406.9 90.3S1404 89.7 1403.1 91.1L1392.3 107.5 1387 97.3C1386.8 96.5 1386.3 96.2 1385.9 95.9 1384.9 95.3 1384.2 95.4 1383.4 95.6 1381.5 96.4 1381.1 98.1 1382.2 99.5L1388.6 113.1 1380.4 125.7 1366.9 98.2C1366.5 97.9 1366 97.6 1365.5 97.3 1364.6 96.7 1363.8 96.8 1363 97 1361.2 97.8 1360.7 99.5 1361.8 100.9L1377 130.9 1364.1 150.6 1354.9 125.8 1342.8 149.3 1332.4 128.5 1350.8 100.4C1351.7 98.9 1350.9 97.1 1350 96.5 1348.6 95.6 1347 95.9 1346.1 97.3L1329.5 122.6 1322.3 109.1 1330.6 96.5C1331.5 95.1 1331.2 93.5 1329.8 92.6S1326.8 92 1325.9 93.4L1319.4 103.2 1310.6 86.1C1310.5 85.3 1310 85 1309.5 84.7 1309 84.4 1307.8 84.2 1306.7 84.9 1305.6 85.5 1304.7 86.9 1305.8 88.3ZM1354.1 139.3L1361.5 159.6 1383.1 158.3 1369.3 175.4 1381.1 193.1 1359.8 189.9 1350 208.9 1342.5 188.6 1320.9 189.9 1334.5 173.3 1323 155.1 1344 158.8 1354.1 139.3Z" fill="rgba(177, 70, 14, 0.76)"></path><path d="M1199.9 505.3L1180.6 522.1 1171.3 521.2 1177.9 515.6C1178.7 515.2 1178.6 514.2 1178.2 513.3 1177.6 512.9 1176.5 512.7 1176 513.3L1166.9 520.8 1157.8 520.3 1163 512.8 1174.8 510.7C1174.8 510.7 1175.1 510.5 1175.1 510.5 1175.7 510.2 1176 509.4 1176 508.7 1175.6 507.8 1175 507.4 1174 507.5L1165.5 509.1 1170.8 501.6 1195.8 496.7C1195.8 496.7 1196.2 496.8 1196.2 496.8 1196.8 496.5 1197.1 495.7 1197.1 495 1196.9 494 1195.9 493.4 1195.1 493.8L1173.3 497.9 1179.4 488.5 1189.2 486.7C1189.2 486.7 1189.2 486.7 1189.5 486.6 1190 486.3 1190.5 485.7 1190.5 485 1190.1 484.1 1189.4 483.4 1188.4 483.5L1181.9 484.9 1186.4 478.1C1187.2 477.4 1186.8 476.5 1186.2 476.1 1185.5 475.3 1184.5 475.5 1183.9 476.5L1179.2 483 1178.3 476.7C1177.9 475.8 1177.2 475.1 1176.3 475.5 1175.3 475.6 1174.9 476.2 1175 477.2L1176.9 486.9 1170.6 496 1166.3 473.9C1166.3 473.2 1165.3 472.6 1164.3 472.7 1163.8 473 1163 473.7 1163.2 474.7L1168.1 499.7 1162.8 507.2 1161.2 498.7C1161.1 497.7 1160.3 497.4 1159.2 497.5 1158.5 497.5 1157.9 498.5 1157.9 499.2L1160.3 510.9 1155.2 518.7 1151.2 510.3 1155.1 499.2C1155.4 498.3 1155 497.5 1154.1 497.2 1153.5 496.7 1152.4 497.3 1152.1 498.2L1149.2 506.3 1145.2 497.9 1153.9 473.9C1154.2 473 1153.8 472.1 1152.9 471.8 1152.1 471.5 1151.2 472 1150.9 472.8L1143.3 493.9 1138.6 484.1 1141.8 474.7C1142.1 473.8 1141.7 473 1140.9 472.7 1140 472.4 1139.2 472.8 1138.9 473.6L1136.5 479.7 1133 472.5C1132.6 471.7 1131.7 471.4 1130.9 471.8 1130 472.2 1129.7 473.1 1130.1 473.9L1133.6 481.1 1127.6 479C1126.8 478.7 1125.9 479.2 1125.6 480S1125.7 481.7 1126.6 482L1135.5 485.2 1140.4 495.3 1119.5 487.9C1118.6 487.6 1117.7 488 1117.4 488.9 1117.1 489.8 1117.6 490.6 1118.4 490.9L1142.3 499.3 1146.4 507.7 1138.2 504.8C1137.4 504.5 1136.5 504.9 1136.2 505.8 1135.9 506.6 1136.3 507.5 1137.2 507.8L1148.3 511.7 1152.2 519.8 1143.3 519.1 1135.4 510.1C1134.9 509.6 1133.7 509.5 1133.3 510 1132.6 510.7 1132.6 511.5 1133 512.3L1138.6 518.8 1129.7 518.1 1113 498.9C1112.3 498.1 1111.6 498.1 1110.7 498.5 1110 499.2 1110.1 500.2 1110.4 500.8L1125 517.9 1113.9 516.9 1107.5 509.6C1107.1 508.8 1106.1 508.9 1105.3 509.3 1104.8 509.9 1104.7 511 1105.4 511.8L1109.4 516.5 1101.4 516.1C1100.6 515.8 1099.8 516.5 1099.7 517.7 1099.7 518.4 1100.4 519.1 1101.1 519.1L1109.2 519.8 1104.2 524.1C1103.4 524.8 1103.6 525.8 1104.1 526.2 1104.6 527.1 1105.3 527.1 1105.8 526.8 1106.1 526.7 1106.1 526.7 1106.4 526.5L1113.7 520.2 1124.8 521.2 1108 535.7C1107.1 536.1 1107.3 537.1 1107.7 538 1108.2 538.4 1109 538.4 1109.5 538.2 1109.8 538 1109.8 538 1109.8 538L1129.5 521.4 1138.4 522.1 1131.9 527.8C1131.2 528.5 1131.1 529.2 1131.6 530 1132.1 530.5 1133 530.8 1133.6 530.5 1133.8 530.4 1133.8 530.4 1134.1 530.2L1143.1 522.4 1152 523.1 1147 530.4 1135.4 532.8C1134.4 533 1133.8 533.9 1133.8 534.7 1134.2 535.5 1134.9 536.3 1135.8 535.8L1144.2 534.2 1139.4 541.9 1114 546.7C1113.3 546.7 1112.7 547.7 1112.7 548.4 1113.1 549.2 1113.8 550 1114.8 549.8L1136.6 545.7 1130.3 554.8 1120.9 556.5C1119.9 556.6 1119.3 557.6 1119.7 558.5 1119.7 559.2 1120.4 559.9 1121.4 559.8L1127.8 558.5 1123.3 565.3C1122.9 565.8 1123 566.8 1123.7 567.6 1124.1 567.7 1124.8 567.7 1125.4 567.5 1125.4 567.5 1125.7 567.3 1126 567.2L1130.5 560.4 1131.9 566.8C1131.9 567.6 1132.8 568.1 1133.6 568.2 1133.9 568 1133.9 568 1133.9 568 1134.7 567.6 1135 566.7 1134.7 566.2L1133 556.7 1139.2 547.3 1143.4 569.4C1143.8 570.3 1144.4 570.7 1145.4 570.6 1145.4 570.6 1145.7 570.5 1145.7 570.5 1146.3 570.2 1146.7 569.6 1146.6 568.6L1141.9 543.5 1146.9 536.1 1148.5 544.6C1148.9 545.5 1149.6 546.2 1150.5 545.8 1150.6 546.1 1150.9 545.9 1150.9 545.9 1151.5 545.7 1151.8 544.8 1151.8 544.1L1149.4 532.5 1154.7 525 1158.6 533 1154.7 544.1C1154.4 545 1154.9 546.1 1155.8 546.4 1156.5 546.5 1157.4 546 1157.8 545.5L1160.5 537.1 1164.5 545.4 1156.2 569.3C1155.9 570.2 1156.3 571.1 1157.1 571.4 1158 571.7 1158.8 571.3 1159.1 570.4L1166.5 549.5 1171.3 559.6 1168.2 568.5C1167.9 569.4 1168.3 570.2 1169.2 570.5S1170.9 570.4 1171.2 569.6L1173.3 563.6 1176.7 570.8C1177.2 571.7 1178 572 1178.9 571.6 1179.7 571.1 1180 570.3 1179.6 569.4L1176.2 562.2 1182.4 564.2C1182.9 564.3 1183.3 564.5 1183.6 564.3 1183.9 564.2 1184.3 563.6 1184.4 563.2 1184.7 562.3 1184.3 561.5 1183.5 561.2L1174.2 558.2 1169.4 548.1 1190.6 555.3C1191 555.4 1191.4 555.6 1191.7 555.4 1192 555.3 1192.4 554.7 1192.6 554.3 1192.9 553.4 1192.5 552.6 1191.6 552.3L1167.4 544 1163.4 535.7 1171.6 538.8C1172.1 539 1172.7 538.7 1172.9 538.5 1173.2 538.4 1173.5 538.3 1173.7 537.8 1174 537 1173.4 535.8 1172.7 535.8L1161.5 531.6 1157.6 523.6 1166.7 524.1 1174.3 533.3C1174.9 533.7 1175.7 534 1176.3 533.7 1176.6 533.6 1176.6 533.6 1176.5 533.3 1177.3 532.9 1177.5 531.7 1176.8 531L1171.1 524.5 1180.3 525.1 1196.9 544.8C1197.5 545.2 1198.2 545.2 1198.7 544.9 1199 544.8 1199 544.8 1199 544.8 1199.8 544.1 1200.1 543.2 1199.4 542.5L1184.7 525.4 1195.9 526.4 1202.2 533.7C1202.9 534.4 1203.6 534.4 1204.2 534.2 1204.2 534.2 1204.5 534 1204.5 534 1205.2 533.3 1205.1 532.3 1204.8 531.7L1200.3 526.8 1208.5 527.5C1208.7 527.3 1209 527.2 1209.3 527.1 1209.6 526.9 1210 526.4 1210.2 525.9 1210.1 524.9 1209.7 524.1 1208.7 524.2L1200.5 523.5 1205.6 519.3C1206.3 518.6 1206.2 517.6 1205.9 517 1205.2 516.3 1204.2 516.4 1203.3 516.8L1196.1 523.2 1185.1 522.4 1201.9 507.9C1202.6 507.2 1202.8 506.1 1202.2 505.6 1201.5 504.9 1200.6 504.6 1199.9 505.3Z" fill="rgba(177, 70, 14, 0.76)"></path><path d="M1355.8 447.2L1362.3 459.6 1353.8 459.6C1353 459.5 1352 460.3 1351.7 461.5 1352 462.6 1352.8 463.6 1353.9 463.3L1364.4 463.7 1369.9 473.2 1347.9 472.3C1346.8 472.6 1345.8 473.4 1345.7 474.3 1345.8 475.7 1346.6 476.7 1347.7 476.4L1372 477.3 1379.9 492 1360.9 489.3 1371.9 505 1355.3 504.6 1343.5 483.2C1343.7 482.9 1343.4 482.7 1343 482.5 1342.3 482.1 1341.5 482 1340.7 482.5 1339.9 482.9 1339.6 484.2 1339.9 485.3L1350.6 504.5 1339.7 503.9 1334.6 494.7C1334.5 494.1 1334.1 493.9 1333.8 493.7 1333.4 493.5 1332.5 493.4 1331.8 493.9 1331 494.4 1330.7 495.6 1331.2 496.3L1335 503.9 1321 503.7C1319.8 503.4 1319.2 504.4 1318.9 505.7 1318.8 506.6 1319.6 507.5 1321.1 507.5L1334.9 508 1330.5 515.1C1329.8 516.2 1330.4 517.5 1331.1 517.9 1332.1 518.5 1333.2 518.3 1333.9 517.2L1339.5 508 1350.4 508.6 1339.1 527C1338.5 528.1 1338.7 529.2 1339.8 529.8 1340.4 530.2 1341.9 530.2 1342.5 529.1L1355.1 508.7 1371.8 509.1 1360.2 524 1379 522.5 1370.2 536.8 1346.2 536.1C1344.8 536.2 1344.1 537.2 1344.1 538.1 1344 539 1344.8 539.9 1346 540.2L1367.9 540.5 1362.2 549.7 1351.5 549.7C1350.2 549.4 1349.3 550.2 1349.3 551.6 1349.2 552.5 1350.1 553.5 1351.5 553.4L1359.7 553.8 1352.4 565.7C1351.8 566.8 1352 567.9 1353.1 568.5S1355.2 568.9 1355.8 567.8L1363.1 555.9 1367.2 563.1C1367.8 564.4 1369 564.7 1369.8 564.2 1371.1 563.6 1371.4 562.4 1370.6 561.4L1365.7 551.8 1371.3 542.6 1381.5 562C1382.3 563 1383.5 563.3 1384.3 562.8 1385.6 562.2 1385.9 561 1385 560L1373.6 538.9 1382.4 524.6 1389.5 542.1 1397.6 525 1405.5 539.7 1392.9 560.1C1392.3 561.2 1392.9 562.5 1393.6 562.9 1394.6 563.5 1395.7 563.3 1396.3 562.2L1407.9 543.5 1413.1 553.3 1407.5 562.5C1406.8 563.5 1407.1 564.6 1408.1 565.3 1408.8 565.7 1410.2 565.6 1410.9 564.6L1415.3 557.4 1421.9 569.5C1422.5 570.8 1423.8 571.1 1424.7 570.3 1425.5 569.8 1426.1 568.8 1425.3 567.8L1418.8 555.4 1427.3 555.5C1428.2 555.5 1429.1 554.7 1429.2 553.8 1429.3 552.9 1428.8 552.2 1428.5 552 1428.2 551.8 1427.8 551.5 1427.3 551.7L1416.7 551.3 1411.2 541.8 1433.3 542.7C1434.4 542.4 1435.3 541.6 1435.4 540.7 1435.5 539.8 1435 539.1 1434.3 538.7 1434 538.4 1434 538.4 1433.4 538.6L1409.1 537.7 1401.2 523 1420.2 525.7 1409.2 510 1425.9 510.4 1437.6 531.8C1438.1 532.5 1439.1 533.2 1440.4 532.5 1441.2 532.1 1441.5 530.8 1441.2 529.7L1430.5 510.5 1441.4 511.1 1446.5 520.3C1446.8 521.4 1448 521.7 1449.3 521.1 1450.1 520.7 1450.4 519.4 1450.1 518.3L1446.1 511.1 1460.1 511.3C1461.3 511.6 1462 510.6 1462.2 509.3 1462.1 508.8 1461.6 508 1461.3 507.8 1461 507.6 1460.6 507.4 1460.1 507.5L1446.3 507 1450.7 499.9C1451.3 498.8 1450.7 497.5 1450 497.1L1450 497.1C1449 496.5 1447.9 496.8 1447.3 497.8L1441.6 507 1430.7 506.4 1442 488C1442.7 487 1442.4 485.9 1441.4 485.2S1439.3 484.9 1438.6 485.9L1426 506.3 1409.4 505.9 1420.9 491 1402.1 492.5 1410.9 478.2 1434.9 478.9C1436.4 478.9 1437 477.8 1437.1 476.9 1437.2 476.1 1436.3 475.1 1435.1 474.8L1413.4 474.1 1418.9 465.3 1429.7 465.3C1430.9 465.6 1431.9 464.8 1431.8 463.4 1431.9 462.5 1431.1 461.5 1429.8 461.2L1421.4 461.2 1428.7 449.3C1429.4 448.2 1429.1 447.1 1428.1 446.5S1426 446.2 1425.3 447.2L1418 459.1 1414 451.9C1413.8 451.4 1413.5 451.2 1413.1 451 1412.5 450.5 1411.9 450.7 1411.4 450.8 1410.1 451.4 1409.8 452.6 1410.6 453.6L1415.5 463.2 1409.8 472.4 1399.7 453C1399.3 452.8 1399 452.6 1398.7 452.4 1398 451.9 1397.4 452.1 1396.9 452.2 1395.6 452.8 1395.3 454 1396.1 455L1407.5 476.1 1398.7 490.4 1391.6 472.9 1383.5 490 1375.6 475.3 1388.2 454.9C1388.8 453.8 1388.2 452.5 1387.5 452.1 1386.5 451.5 1385.4 451.7 1384.8 452.8L1373.5 471.2 1368 461.7 1373.7 452.5C1374.3 451.5 1374.1 450.4 1373 449.8S1370.9 449.4 1370.3 450.4L1365.9 457.6 1359.2 445.5C1359.1 444.9 1358.7 444.7 1358.4 444.5 1358.1 444.3 1357.2 444.2 1356.4 444.7 1355.7 445.2 1355 446.2 1355.8 447.2ZM1391.3 482.6L1397.1 496.9 1412.4 495.6 1402.9 508.1 1411.7 520.5 1396.4 518.6 1389.8 532.4 1384.1 518.1 1368.7 519.4 1378 507.3 1369.4 494.5 1384.5 496.7 1391.3 482.6Z" fill="rgba(177, 70, 14, 0.76)"></path></g><defs><mask id="SvgjsMask1004"><rect width="1440" height="560" fill="#ffffff"></rect></mask><filter id="SvgjsFilter1005"><feGaussianBlur stdDeviation="1"></feGaussianBlur></filter></defs></svg>